SplineFontDB: 3.0
FontName: LinLibertine
FullName: Linux Libertine Regular
FamilyName: Linux Libertine
Weight: Book
Copyright: Linux Libertine by Philipp H. Poll,\nOpen Font under Terms of following Free Software Licenses:\nGPL (General Public License) with font-exception and OFL (Open Font License).\nCreated with FontForge (http://fontforge.sf.net)\nSept 2003, 2004, 2005, 2006, 2007, 2008, 2009, 2010, 2011,2012
Version: 5.3.0 ; ttfautohint (v0.9)
ItalicAngle: 0
UnderlinePosition: -201
UnderlineWidth: 81
Ascent: 1638
Descent: 410
InvalidEm: 0
sfntRevision: 0x00054ccc
LayerCount: 2
Layer: 0 1 "Back" 1
Layer: 1 1 "Fore" 0
XUID: [1021 591 -286901576 7325298]
FSType: 4
OS2Version: 3
OS2_WeightWidthSlopeOnly: 0
OS2_UseTypoMetrics: 1
CreationTime: 1156455862
ModificationTime: 1357253173
PfmFamily: 17
TTFWeight: 400
TTFWidth: 5
LineGap: 0
VLineGap: 0
Panose: 2 0 5 3 0 0 0 0 0 0
OS2TypoAscent: 1638
OS2TypoAOffset: 0
OS2TypoDescent: -410
OS2TypoDOffset: 0
OS2TypoLinegap: 0
OS2WinAscent: 2304
OS2WinAOffset: 0
OS2WinDescent: 564
OS2WinDOffset: 0
HheadAscent: 2304
HheadAOffset: 0
HheadDescent: -564
HheadDOffset: 0
OS2SubXSize: 1331
OS2SubYSize: 1433
OS2SubXOff: 0
OS2SubYOff: 286
OS2SupXSize: 1331
OS2SupYSize: 1433
OS2SupXOff: 0
OS2SupYOff: 983
OS2StrikeYSize: 102
OS2StrikeYPos: 530
OS2CapHeight: 0
OS2XHeight: 0
OS2FamilyClass: 261
OS2Vendor: 'PfEd'
OS2CodePages: 600001bf.00000000
OS2UnicodeRanges: e0000aff.5200e5fb.02000020.00000000
Lookup: 6 0 0 "'frac' Diagonal Fractions lookup 0" { "'frac' Diagonal Fractions lookup 0 contextual 0"  "'frac' Diagonal Fractions lookup 0 contextual 1"  } ['frac' ('DFLT' <'dflt' > 'cyrl' <'dflt' > 'grek' <'dflt' > 'hebr' <'dflt' > 'latn' <'AZE ' 'CRT ' 'DEU ' 'MOL ' 'ROM ' 'TRK ' 'dflt' > ) ]
Lookup: 4 0 1 "'liga' Standard Ligatures lookup 1" { "'liga' Standard Ligatures lookup 1 subtable"  } ['liga' ('DFLT' <'dflt' > 'cyrl' <'dflt' > 'grek' <'dflt' > 'latn' <'AZE ' 'CRT ' 'DEU ' 'MOL ' 'ROM ' 'TRK ' 'dflt' > ) ]

StartChar: .notdef
Encoding: 65536 -1 0
Width: 748
Flags: W
LayerCount: 2
Back
Fore
SplineSet
68 0 m 1,0,-1
 68 1365 l 1,1,-1
 612 1365 l 1,2,-1
 612 0 l 1,3,-1
 68 0 l 1,0,-1
136 68 m 1,4,-1
 544 68 l 1,5,-1
 544 1297 l 1,6,-1
 136 1297 l 1,7,-1
 136 68 l 1,4,-1
EndSplineSet
EndChar

StartChar: exclam
Encoding: 33 33 4
Width: 589
GlyphClass: 2
Flags: W
LayerCount: 2
Back
Fore
SplineSet
295 1348 m 128,-1,1
 338 1348 338 1348 370.5 1311 c 128,-1,2
 403 1274 403 1274 403 1198 c 0,3,4
 403 1139 403 1139 396 1082.5 c 128,-1,5
 389 1026 389 1026 375.5 947 c 128,-1,6
 362 868 362 868 354 803 c 0,7,8
 342 707 342 707 336 619.5 c 128,-1,9
 330 532 330 532 328 485 c 128,-1,10
 326 438 326 438 324 430 c 0,11,12
 320 389 320 389 295 389 c 128,-1,13
 270 389 270 389 266 416 c 0,14,15
 264 428 264 428 260 493.5 c 128,-1,16
 256 559 256 559 249 646 c 128,-1,17
 242 733 242 733 233 803 c 0,18,19
 227 866 227 866 206.5 991 c 128,-1,20
 186 1116 186 1116 186 1198 c 0,21,22
 186 1274 186 1274 219 1311 c 128,-1,0
 252 1348 252 1348 295 1348 c 128,-1,1
186 88 m 128,-1,24
 186 133 186 133 218 165 c 128,-1,25
 250 197 250 197 295 197 c 128,-1,26
 340 197 340 197 371.5 165 c 128,-1,27
 403 133 403 133 403 88 c 128,-1,28
 403 43 403 43 371.5 11.5 c 128,-1,29
 340 -20 340 -20 295 -20 c 128,-1,30
 250 -20 250 -20 218 11.5 c 128,-1,23
 186 43 186 43 186 88 c 128,-1,24
EndSplineSet
EndChar

StartChar: quotedbl
Encoding: 34 34 5
Width: 688
GlyphClass: 2
Flags: W
LayerCount: 2
Back
Fore
SplineSet
440 874 m 1,0,1
 387 1200 387 1200 387 1219 c 0,2,3
 387 1256 387 1256 418 1288.5 c 128,-1,4
 449 1321 449 1321 492 1321 c 0,5,6
 564 1321 564 1321 563 1253 c 1,7,-1
 496 883 l 1,8,-1
 440 874 l 1,0,1
182 872 m 1,9,10
 129 1198 129 1198 129 1217 c 0,11,12
 129 1254 129 1254 159.5 1286.5 c 128,-1,13
 190 1319 190 1319 233 1319 c 0,14,15
 305 1319 305 1319 305 1251 c 1,16,-1
 238 881 l 1,17,-1
 182 872 l 1,9,10
EndSplineSet
EndChar

StartChar: numbersign
Encoding: 35 35 6
Width: 952
GlyphClass: 2
Flags: W
LayerCount: 2
Back
Fore
SplineSet
571 502 m 1,0,-1
 608 737 l 1,1,-1
 377 737 l 1,2,-1
 338 502 l 1,3,-1
 571 502 l 1,0,-1
686 737 m 1,4,-1
 647 502 l 1,5,-1
 842 502 l 1,6,-1
 827 393 l 1,7,-1
 635 393 l 1,8,-1
 573 29 l 1,9,-1
 496 29 l 1,10,-1
 551 393 l 1,11,-1
 322 393 l 1,12,-1
 262 29 l 1,13,-1
 186 29 l 1,14,-1
 244 393 l 1,15,-1
 53 393 l 1,16,-1
 70 502 l 1,17,-1
 262 502 l 1,18,-1
 299 737 l 1,19,-1
 109 737 l 1,20,-1
 125 846 l 1,21,-1
 315 846 l 1,22,-1
 375 1212 l 1,23,-1
 453 1212 l 1,24,-1
 391 846 l 1,25,-1
 625 846 l 1,26,-1
 682 1212 l 1,27,-1
 760 1212 l 1,28,-1
 700 846 l 1,29,-1
 897 846 l 1,30,-1
 881 737 l 1,31,-1
 686 737 l 1,4,-1
EndSplineSet
EndChar

StartChar: dollar
Encoding: 36 36 7
Width: 952
GlyphClass: 2
Flags: W
LayerCount: 2
Back
Fore
SplineSet
424 751 m 1,0,-1
 448 1184 l 1,1,2
 365 1183 365 1183 303.5 1119 c 128,-1,3
 242 1055 242 1055 242 975 c 0,4,5
 242 841 242 841 424 751 c 1,0,-1
488 548 m 1,6,-1
 461 49 l 1,7,8
 573 50 573 50 633.5 110.5 c 128,-1,9
 694 171 694 171 694 285 c 0,10,11
 694 394 694 394 639 451.5 c 128,-1,12
 584 509 584 509 488 548 c 1,6,-1
760 1198 m 1,13,14
 787 1065 787 1065 795 952 c 1,15,16
 781 940 781 940 731 940 c 1,17,18
 701 1037 701 1037 655.5 1097.5 c 128,-1,19
 610 1158 610 1158 523 1177 c 1,20,-1
 497 719 l 1,21,22
 513 713 513 713 546 700 c 128,-1,23
 579 687 579 687 592 682 c 0,24,25
 854 569 854 569 854 350 c 0,26,27
 854 260 854 260 806 177 c 128,-1,28
 758 94 758 94 676 43 c 0,29,30
 584 -14 584 -14 457 -18 c 1,31,-1
 447 -191 l 1,32,33
 429 -201 429 -201 372 -201 c 1,34,-1
 382 -17 l 1,35,36
 322 -13 322 -13 237.5 6 c 128,-1,37
 153 25 153 25 98 25 c 1,38,39
 67 150 67 150 59 313 c 1,40,41
 90 329 90 329 121 319 c 1,42,43
 174 84 174 84 386 54 c 1,44,-1
 415 576 l 1,45,46
 396 583 396 583 381 590 c 0,47,48
 105 709 105 709 104 924 c 0,49,50
 104 1067 104 1067 205 1155.5 c 128,-1,51
 306 1244 306 1244 451 1249 c 1,52,-1
 460 1412 l 1,53,54
 487 1422 487 1422 536 1422 c 1,55,-1
 527 1248 l 1,56,57
 598 1244 598 1244 659.5 1223.5 c 128,-1,58
 721 1203 721 1203 760 1198 c 1,13,14
EndSplineSet
EndChar

StartChar: percent
Encoding: 37 37 8
Width: 1304
GlyphClass: 2
Flags: W
LayerCount: 2
Back
Fore
SplineSet
887 170 m 0,0,1
 887 39 887 39 977 39 c 0,2,3
 1055 39 1055 39 1106 138.5 c 128,-1,4
 1157 238 1157 238 1157 336 c 0,5,6
 1157 385 1157 385 1140.5 414.5 c 128,-1,7
 1124 444 1124 444 1107 452.5 c 128,-1,8
 1090 461 1090 461 1071 461 c 0,9,10
 999 461 999 461 943 363.5 c 128,-1,11
 887 266 887 266 887 170 c 0,0,1
774 201 m 0,12,13
 774 328 774 328 855 426 c 128,-1,14
 936 524 936 524 1049 524 c 0,15,16
 1123 524 1123 524 1174 482 c 128,-1,17
 1225 440 1225 440 1225 338 c 0,18,19
 1225 217 1225 217 1153 96 c 128,-1,20
 1081 -25 1081 -25 965 -25 c 0,21,22
 877 -25 877 -25 825.5 44 c 128,-1,23
 774 113 774 113 774 201 c 0,12,13
745 1067 m 0,24,25
 827 1067 827 1067 918.5 1093.5 c 128,-1,26
 1010 1120 1010 1120 1053 1178 c 1,27,-1
 1118 1145 l 1,28,-1
 279 -25 l 1,29,-1
 209 6 l 1,30,-1
 944 1030 l 1,31,32
 846 991 846 991 725 991 c 0,33,34
 635 991 635 991 561 1034 c 1,35,36
 567 1011 567 1011 567 983 c 0,37,38
 567 864 567 864 494.5 742.5 c 128,-1,39
 422 621 422 621 305 621 c 0,40,41
 217 621 217 621 167 689.5 c 128,-1,42
 117 758 117 758 117 844 c 0,43,44
 117 979 117 979 198 1074 c 128,-1,45
 279 1169 279 1169 389 1169 c 0,46,47
 430 1169 430 1169 470 1154 c 128,-1,48
 510 1139 510 1139 526 1118 c 1,49,50
 636 1067 636 1067 745 1067 c 0,24,25
227 815 m 0,51,52
 227 743 227 743 255 713.5 c 128,-1,53
 283 684 283 684 317 684 c 0,54,55
 395 684 395 684 447.5 782.5 c 128,-1,56
 500 881 500 881 500 981 c 0,57,58
 500 1106 500 1106 412 1106 c 0,59,60
 340 1106 340 1106 283.5 1008.5 c 128,-1,61
 227 911 227 911 227 815 c 0,51,52
EndSplineSet
EndChar

StartChar: ampersand
Encoding: 38 38 9
Width: 1443
GlyphClass: 2
Flags: W
LayerCount: 2
Back
Fore
SplineSet
512 692 m 1,0,1
 362 610 362 610 309 524 c 128,-1,2
 256 438 256 438 256 319 c 0,3,4
 256 178 256 178 322.5 112.5 c 128,-1,5
 389 47 389 47 496 47 c 0,6,7
 598 47 598 47 664.5 95 c 128,-1,8
 731 143 731 143 815 258 c 1,9,10
 731 369 731 369 630.5 513 c 128,-1,11
 530 657 530 657 512 692 c 1,0,1
862 193 m 1,12,13
 706 -20 706 -20 481 -20 c 0,14,15
 303 -20 303 -20 195.5 61.5 c 128,-1,16
 88 143 88 143 88 319 c 0,17,18
 88 442 88 442 177 549.5 c 128,-1,19
 266 657 266 657 467 770 c 1,20,21
 363 950 363 950 362 1059 c 0,22,23
 362 1159 362 1159 448.5 1242 c 128,-1,24
 535 1325 535 1325 678 1325 c 0,25,26
 787 1325 787 1325 863.5 1262.5 c 128,-1,27
 940 1200 940 1200 940 1104 c 0,28,29
 940 1022 940 1022 854 930 c 128,-1,30
 768 838 768 838 635 760 c 1,31,-1
 643 743 l 1,32,33
 706 634 706 634 893 383 c 1,34,35
 979 510 979 510 1051 645 c 0,36,37
 1080 699 1080 699 1090 729.5 c 128,-1,38
 1100 760 1100 760 1088.5 776.5 c 128,-1,39
 1077 793 1077 793 1055.5 798 c 128,-1,40
 1034 803 1034 803 987 805 c 1,41,42
 979 815 979 815 979 839.5 c 128,-1,43
 979 864 979 864 987 872 c 1,44,45
 1069 868 1069 868 1182 868 c 0,46,47
 1272 868 1272 868 1354 872 c 1,48,49
 1364 864 1364 864 1364 839.5 c 128,-1,50
 1364 815 1364 815 1354 805 c 1,51,52
 1260 799 1260 799 1225 771 c 128,-1,53
 1190 743 1190 743 1120 618 c 0,54,55
 1020 440 1020 440 938 322 c 1,56,-1
 1012 219 l 2,57,58
 1057 158 1057 158 1100 124 c 128,-1,59
 1143 90 1143 90 1169 90 c 0,60,61
 1267 90 1267 90 1325 201 c 1,62,63
 1348 201 1348 201 1368 180 c 1,64,65
 1335 80 1335 80 1276 30 c 128,-1,66
 1217 -20 1217 -20 1157 -20 c 0,67,68
 1116 -20 1116 -20 1087.5 -15 c 128,-1,69
 1059 -10 1059 -10 1013 22.5 c 128,-1,70
 967 55 967 55 922 117 c 2,71,-1
 862 193 l 1,12,13
592 838 m 1,72,73
 688 901 688 901 743.5 974 c 128,-1,74
 799 1047 799 1047 799 1104 c 0,75,76
 799 1174 799 1174 764 1215.5 c 128,-1,77
 729 1257 729 1257 668 1257 c 0,78,79
 619 1257 619 1257 566.5 1206 c 128,-1,80
 514 1155 514 1155 514 1063 c 0,81,82
 514 985 514 985 592 838 c 1,72,73
EndSplineSet
EndChar

StartChar: quotesingle
Encoding: 39 39 10
Width: 389
GlyphClass: 2
Flags: W
LayerCount: 2
Back
Fore
SplineSet
162 872 m 1,0,1
 109 1198 109 1198 109 1217 c 0,2,3
 109 1254 109 1254 139.5 1286.5 c 128,-1,4
 170 1319 170 1319 213 1319 c 0,5,6
 285 1319 285 1319 285 1251 c 1,7,-1
 217 881 l 1,8,-1
 162 872 l 1,0,1
EndSplineSet
EndChar

StartChar: parenleft
Encoding: 40 40 11
Width: 610
GlyphClass: 2
Flags: W
GlyphCompositionVertical: 3  .notdef%0,0,279,1831 .notdef%1,1829,1829,1831 .notdef%0,279,0,1831
LayerCount: 2
Back
Fore
SplineSet
90 516 m 0,0,1
 90 790 90 790 211 1036 c 128,-1,2
 332 1282 332 1282 524 1448 c 1,3,4
 555 1446 555 1446 567 1411 c 1,5,6
 260 1065 260 1065 260 516 c 0,7,8
 260 -29 260 -29 567 -383 c 1,9,10
 557 -412 557 -412 524 -418 c 1,11,12
 403 -314 403 -314 316 -186.5 c 128,-1,13
 229 -59 229 -59 187 42 c 128,-1,14
 145 143 145 143 120.5 255 c 128,-1,15
 96 367 96 367 93 417 c 128,-1,16
 90 467 90 467 90 516 c 0,0,1
EndSplineSet
EndChar

StartChar: parenright
Encoding: 41 41 12
Width: 610
GlyphClass: 2
Flags: W
LayerCount: 2
Back
Fore
SplineSet
520 516 m 0,0,1
 520 242 520 242 399.5 -4 c 128,-1,2
 279 -250 279 -250 86 -416 c 1,3,4
 55 -414 55 -414 43 -379 c 1,5,6
 350 -33 350 -33 350 516 c 0,7,8
 350 1061 350 1061 43 1415 c 1,9,10
 53 1444 53 1444 86 1450 c 1,11,12
 207 1346 207 1346 294 1219 c 128,-1,13
 381 1092 381 1092 423 990.5 c 128,-1,14
 465 889 465 889 489.5 777.5 c 128,-1,15
 514 666 514 666 517 615.5 c 128,-1,16
 520 565 520 565 520 516 c 0,0,1
EndSplineSet
EndChar

StartChar: asterisk
Encoding: 42 42 13
Width: 755
GlyphClass: 2
Flags: W
LayerCount: 2
Back
Fore
SplineSet
344 1120 m 1,0,1
 309 1128 309 1128 258 1128 c 0,2,3
 92 1128 92 1128 92 1204 c 0,4,5
 92 1229 92 1229 108.5 1247.5 c 128,-1,6
 125 1266 125 1266 160 1266 c 0,7,8
 199 1266 199 1266 259 1221 c 128,-1,9
 319 1176 319 1176 356 1161 c 1,10,11
 352 1202 352 1202 330.5 1262.5 c 128,-1,12
 309 1323 309 1323 309 1350 c 0,13,14
 309 1383 309 1383 326.5 1406.5 c 128,-1,15
 344 1430 344 1430 371 1430 c 0,16,17
 439 1430 439 1430 438 1358 c 0,18,19
 438 1329 438 1329 419.5 1258.5 c 128,-1,20
 401 1188 401 1188 399 1159 c 1,21,22
 438 1175 438 1175 497.5 1220.5 c 128,-1,23
 557 1266 557 1266 594 1266 c 128,-1,24
 631 1266 631 1266 647.5 1245.5 c 128,-1,25
 664 1225 664 1225 664 1204 c 0,26,27
 664 1128 664 1128 522 1128 c 0,28,29
 459 1128 459 1128 410 1120 c 1,30,31
 435 1093 435 1093 481.5 1061.5 c 128,-1,32
 528 1030 528 1030 554 1004.5 c 128,-1,33
 580 979 580 979 580 942 c 0,34,35
 580 915 580 915 561.5 899 c 128,-1,36
 543 883 543 883 520 883 c 0,37,38
 485 883 485 883 461.5 915.5 c 128,-1,39
 438 948 438 948 414.5 1008.5 c 128,-1,40
 391 1069 391 1069 375 1096 c 1,41,42
 361 1069 361 1069 336 1005.5 c 128,-1,43
 311 942 311 942 288.5 912.5 c 128,-1,44
 266 883 266 883 231 883 c 0,45,46
 204 883 204 883 188 900.5 c 128,-1,47
 172 918 172 918 172 940 c 0,48,49
 172 979 172 979 198.5 1005.5 c 128,-1,50
 225 1032 225 1032 272 1061.5 c 128,-1,51
 319 1091 319 1091 344 1120 c 1,0,1
EndSplineSet
EndChar

StartChar: plus
Encoding: 43 43 14
Width: 1126
GlyphClass: 2
Flags: W
LayerCount: 2
Back
Fore
SplineSet
512 891 m 2,0,1
 512 909 512 909 537.5 927.5 c 128,-1,2
 563 946 563 946 580 946 c 0,3,4
 615 946 615 946 614 918 c 2,5,-1
 614 565 l 1,6,-1
 975 565 l 2,7,8
 1004 565 1004 565 1004 530 c 0,9,10
 1004 514 1004 514 985.5 488.5 c 128,-1,11
 967 463 967 463 948 463 c 2,12,-1
 614 463 l 1,13,-1
 614 135 l 2,14,15
 614 117 614 117 590.5 100.5 c 128,-1,16
 567 84 567 84 545 84 c 0,17,18
 512 84 512 84 512 115 c 2,19,-1
 512 463 l 1,20,-1
 154 463 l 2,21,22
 123 463 123 463 123 496 c 0,23,24
 123 519 123 519 139.5 542 c 128,-1,25
 156 565 156 565 174 565 c 2,26,-1
 512 565 l 1,27,-1
 512 891 l 2,0,1
EndSplineSet
EndChar

StartChar: comma
Encoding: 44 44 15
Width: 450
GlyphClass: 2
Flags: W
LayerCount: 2
Back
Fore
SplineSet
213 195 m 0,0,1
 274 195 274 195 311 139.5 c 128,-1,2
 348 84 348 84 348 -8 c 0,3,4
 348 -110 348 -110 276.5 -182 c 128,-1,5
 205 -254 205 -254 106 -272 c 1,6,7
 88 -254 88 -254 88 -223 c 1,8,9
 162 -205 162 -205 215 -150.5 c 128,-1,10
 268 -96 268 -96 268 -59 c 0,11,12
 268 -4 268 -4 195 4 c 0,13,14
 105 18 105 18 104 94 c 0,15,16
 104 137 104 137 135 166 c 128,-1,17
 166 195 166 195 213 195 c 0,0,1
EndSplineSet
EndChar

StartChar: hyphen
Encoding: 45 45 16
Width: 692
GlyphClass: 2
Flags: W
LayerCount: 2
Back
Fore
SplineSet
555 457 m 2,0,-1
 113 457 l 2,1,2
 82 457 82 457 82 496 c 0,3,4
 82 525 82 525 98.5 552.5 c 128,-1,5
 115 580 115 580 133 580 c 2,6,-1
 582 580 l 2,7,8
 611 580 611 580 610 539 c 0,9,10
 610 519 610 519 591.5 488 c 128,-1,11
 573 457 573 457 555 457 c 2,0,-1
EndSplineSet
Position2: "'lfbd' Left Bounds lookup 2 subtable" dx=-88 dy=0 dh=-88 dv=0
Position2: "'rtbd' Right Bounds lookup 1 subtable" dx=0 dy=0 dh=0 dv=0
EndChar

StartChar: period
Encoding: 46 46 17
Width: 450
GlyphClass: 2
Flags: W
LayerCount: 2
Back
Fore
SplineSet
117 88 m 128,-1,1
 117 133 117 133 148.5 165 c 128,-1,2
 180 197 180 197 225 197 c 128,-1,3
 270 197 270 197 302 165 c 128,-1,4
 334 133 334 133 334 88 c 128,-1,5
 334 43 334 43 302 11.5 c 128,-1,6
 270 -20 270 -20 225 -20 c 128,-1,7
 180 -20 180 -20 148.5 11.5 c 128,-1,0
 117 43 117 43 117 88 c 128,-1,1
EndSplineSet
EndChar

StartChar: slash
Encoding: 47 47 18
Width: 661
GlyphClass: 3
Flags: W
LayerCount: 2
Back
Fore
SplineSet
600 1323 m 1,0,-1
 115 -121 l 1,1,-1
 31 -121 l 1,2,-1
 516 1323 l 1,3,-1
 600 1323 l 1,0,-1
EndSplineSet
EndChar

StartChar: zero
Encoding: 48 48 19
Width: 952
GlyphClass: 2
Flags: W
LayerCount: 2
Back
Fore
SplineSet
475 1178 m 0,0,1
 436 1178 436 1178 401.5 1153 c 128,-1,2
 367 1128 367 1128 333 1069 c 128,-1,3
 299 1010 299 1010 278.5 884 c 128,-1,4
 258 758 258 758 258 580 c 0,5,6
 258 52 258 52 469 51 c 0,7,8
 487 51 487 51 507.5 57 c 128,-1,9
 528 63 528 63 556 80.5 c 128,-1,10
 584 98 584 98 609.5 138 c 128,-1,11
 635 178 635 178 651 238 c 0,12,13
 686 365 686 365 686 659 c 0,14,15
 686 1042 686 1042 567 1143 c 0,16,17
 528 1178 528 1178 475 1178 c 0,0,1
467 -20 m 0,18,19
 345 -20 345 -20 259 66 c 0,20,21
 175 149 175 149 127.5 293 c 128,-1,22
 80 437 80 437 80 602 c 0,23,24
 80 893 80 893 197.5 1071 c 128,-1,25
 315 1249 315 1249 475 1249 c 0,26,27
 625 1249 625 1249 725 1116 c 0,28,29
 864 932 864 932 864 621 c 0,30,31
 864 451 864 451 825 319.5 c 128,-1,32
 786 188 786 188 724 117.5 c 128,-1,33
 662 47 662 47 596 13.5 c 128,-1,34
 530 -20 530 -20 467 -20 c 0,18,19
EndSplineSet
EndChar

StartChar: one
Encoding: 49 49 20
Width: 952
GlyphClass: 2
Flags: W
LayerCount: 2
Back
Fore
SplineSet
590 250 m 2,0,1
 590 127 590 127 621.5 97.5 c 128,-1,2
 653 68 653 68 768 63 c 1,3,4
 778 53 778 53 778 28.5 c 128,-1,5
 778 4 778 4 768 -4 c 1,6,7
 563 0 563 0 518 0 c 0,8,9
 434 0 434 0 233 -4 c 1,10,11
 225 4 225 4 225 28.5 c 128,-1,12
 225 53 225 53 233 63 c 1,13,14
 352 67 352 67 392 99 c 128,-1,15
 432 131 432 131 432 250 c 2,16,-1
 432 918 l 2,17,18
 432 1037 432 1037 391 1036 c 0,19,20
 336 1036 336 1036 213 985 c 1,21,22
 188 1001 188 1001 182 1040 c 1,23,24
 469 1173 469 1173 584 1245 c 1,25,26
 596 1245 596 1245 596 1235 c 0,27,28
 590 1188 590 1188 590 961 c 2,29,-1
 590 250 l 2,0,1
EndSplineSet
EndChar

StartChar: two
Encoding: 50 50 21
Width: 952
GlyphClass: 2
Flags: W
LayerCount: 2
Back
Fore
SplineSet
125 958 m 0,0,1
 125 1060 125 1060 229.5 1154.5 c 128,-1,2
 334 1249 334 1249 494 1249 c 0,3,4
 633 1249 633 1249 736.5 1170.5 c 128,-1,5
 840 1092 840 1092 840 938 c 0,6,7
 840 864 840 864 809 798.5 c 128,-1,8
 778 733 778 733 742.5 691 c 128,-1,9
 707 649 707 649 635 580 c 2,10,-1
 428 381 l 1,11,12
 276 229 276 229 276 133 c 1,13,-1
 641 133 l 2,14,15
 696 133 696 133 727 176 c 128,-1,16
 758 219 758 219 784 330 c 1,17,18
 823 338 823 338 844 319 c 1,19,20
 840 176 840 176 795 -4 c 1,21,22
 701 0 701 0 635 0 c 2,23,-1
 276 0 l 1,24,-1
 106 -4 l 1,25,26
 106 94 106 94 152.5 185 c 128,-1,27
 199 276 199 276 340 420 c 1,28,-1
 492 569 l 2,29,30
 660 739 660 739 659 930 c 0,31,32
 659 1063 659 1063 605 1120.5 c 128,-1,33
 551 1178 551 1178 481 1178 c 0,34,35
 379 1178 379 1178 329 1139 c 128,-1,36
 279 1100 279 1100 279 1053 c 0,37,38
 279 1043 279 1043 287 1024.5 c 128,-1,39
 295 1006 295 1006 295 1004 c 0,40,41
 303 975 303 975 303 961 c 0,42,43
 303 930 303 930 269.5 904.5 c 128,-1,44
 236 879 236 879 207 879 c 0,45,46
 174 879 174 879 149.5 902 c 128,-1,47
 125 925 125 925 125 958 c 0,0,1
EndSplineSet
EndChar

StartChar: three
Encoding: 51 51 22
Width: 952
GlyphClass: 2
Flags: W
LayerCount: 2
Back
Fore
SplineSet
440 1178 m 0,0,1
 403 1178 403 1178 364.5 1167.5 c 128,-1,2
 326 1157 326 1157 286 1119 c 128,-1,3
 246 1081 246 1081 246 1022 c 0,4,5
 246 916 246 916 166 915 c 0,6,7
 133 915 133 915 114.5 938 c 128,-1,8
 96 961 96 961 96 985 c 0,9,10
 96 1016 96 1016 115.5 1056 c 128,-1,11
 135 1096 135 1096 176 1142 c 128,-1,12
 217 1188 217 1188 298 1218.5 c 128,-1,13
 379 1249 379 1249 483 1249 c 0,14,15
 628 1249 628 1249 707 1169 c 0,16,17
 771 1104 771 1104 771 1007 c 0,18,19
 771 921 771 921 723 856.5 c 128,-1,20
 675 792 675 792 555 735 c 1,21,-1
 557 731 l 1,22,23
 672 713 672 713 759 635 c 128,-1,24
 846 557 846 557 846 408 c 0,25,26
 846 213 846 213 710.5 96.5 c 128,-1,27
 575 -20 575 -20 385 -20 c 0,28,29
 283 -20 283 -20 186.5 19.5 c 128,-1,30
 90 59 90 59 90 117 c 0,31,32
 90 142 90 142 117.5 165 c 128,-1,33
 145 188 145 188 176 188 c 0,34,35
 225 188 225 188 264 135 c 0,36,37
 266 133 266 133 273.5 122 c 128,-1,38
 281 111 281 111 284 106.5 c 128,-1,39
 287 102 287 102 294 93 c 128,-1,40
 301 84 301 84 307 80 c 128,-1,41
 313 76 313 76 324.5 68.5 c 128,-1,42
 336 61 336 61 348 58 c 128,-1,43
 360 55 360 55 376.5 53 c 128,-1,44
 393 51 393 51 412 51 c 0,45,46
 445 51 445 51 482.5 65.5 c 128,-1,47
 520 80 520 80 564 111.5 c 128,-1,48
 608 143 608 143 637 213 c 128,-1,49
 666 283 666 283 666 379 c 0,50,51
 666 643 666 643 397 643 c 0,52,53
 334 643 334 643 299 639 c 1,54,-1
 289 705 l 1,55,56
 431 725 431 725 521 815.5 c 128,-1,57
 611 906 611 906 611 993 c 0,58,59
 611 1086 611 1086 562 1132 c 128,-1,60
 513 1178 513 1178 440 1178 c 0,0,1
EndSplineSet
EndChar

StartChar: four
Encoding: 52 52 23
Width: 952
GlyphClass: 2
Flags: W
LayerCount: 2
Back
Fore
SplineSet
555 1038 m 1,0,1
 399 825 399 825 164 449 c 1,2,-1
 555 449 l 1,3,-1
 555 1038 l 1,0,1
881 449 m 2,4,5
 912 449 912 449 911 416 c 0,6,7
 911 398 911 398 891.5 375 c 128,-1,8
 872 352 872 352 852 352 c 2,9,-1
 711 352 l 1,10,-1
 711 164 l 2,11,12
 711 131 711 131 716 111.5 c 128,-1,13
 721 92 721 92 742.5 83 c 128,-1,14
 764 74 764 74 776 72 c 128,-1,15
 788 70 788 70 833 65 c 0,16,17
 847 63 847 63 854 63 c 1,18,19
 864 53 864 53 864 28.5 c 128,-1,20
 864 4 864 4 854 -4 c 1,21,22
 723 0 723 0 631 0 c 0,23,24
 520 0 520 0 389 -4 c 1,25,26
 381 4 381 4 381 28.5 c 128,-1,27
 381 53 381 53 389 63 c 1,28,29
 499 71 499 71 526 93 c 0,30,31
 555 116 555 116 555 164 c 2,32,-1
 555 352 l 1,33,-1
 137 352 l 2,34,35
 74 352 74 352 57 438 c 1,36,37
 374 936 374 936 612 1227 c 0,38,39
 630 1250 630 1250 645 1249 c 2,40,-1
 711 1249 l 1,41,-1
 715 1245 l 1,42,43
 711 1227 711 1227 711 1047 c 2,44,-1
 711 449 l 1,45,-1
 881 449 l 2,4,5
EndSplineSet
EndChar

StartChar: five
Encoding: 53 53 24
Width: 952
GlyphClass: 2
Flags: W
LayerCount: 2
Back
Fore
SplineSet
653 387 m 0,0,1
 653 547 653 547 587.5 622.5 c 128,-1,2
 522 698 522 698 416 698 c 0,3,4
 287 698 287 698 156 649 c 1,5,-1
 225 1239 l 1,6,7
 344 1229 344 1229 446 1229 c 0,8,9
 569 1229 569 1229 782 1251 c 1,10,-1
 797 1243 l 1,11,-1
 764 1104 l 1,12,13
 639 1092 639 1092 549 1092 c 0,14,15
 479 1092 479 1092 309 1110 c 1,16,-1
 268 768 l 1,17,18
 352 801 352 801 469 801 c 0,19,20
 635 801 635 801 735.5 690.5 c 128,-1,21
 836 580 836 580 836 424 c 0,22,23
 836 229 836 229 714 103 c 128,-1,24
 592 -23 592 -23 401 -23 c 0,25,26
 307 -23 307 -23 209 24.5 c 128,-1,27
 111 72 111 72 111 131 c 0,28,29
 111 162 111 162 134.5 184.5 c 128,-1,30
 158 207 158 207 188 207 c 0,31,32
 243 207 243 207 293 141 c 0,33,34
 295 137 295 137 305 124 c 128,-1,35
 315 111 315 111 319.5 104.5 c 128,-1,36
 324 98 324 98 334 88 c 128,-1,37
 344 78 344 78 352 73 c 128,-1,38
 360 68 360 68 372.5 60.5 c 128,-1,39
 385 53 385 53 398.5 51 c 128,-1,40
 412 49 412 49 428 49 c 0,41,42
 522 49 522 49 587.5 146.5 c 128,-1,43
 653 244 653 244 653 387 c 0,0,1
EndSplineSet
EndChar

StartChar: six
Encoding: 54 54 25
Width: 952
GlyphClass: 2
Flags: W
LayerCount: 2
Back
Fore
SplineSet
277 629 m 1,0,1
 260 547 260 547 260 469 c 0,2,3
 260 227 260 227 326.5 138 c 128,-1,4
 393 49 393 49 506 49 c 0,5,6
 586 49 586 49 639 133 c 128,-1,7
 692 217 692 217 692 377 c 0,8,9
 692 422 692 422 681 468 c 128,-1,10
 670 514 670 514 645.5 563 c 128,-1,11
 621 612 621 612 569.5 644 c 128,-1,12
 518 676 518 676 446 676 c 0,13,14
 349 676 349 676 277 629 c 1,0,1
296 703 m 1,15,16
 393 747 393 747 489 748 c 0,17,18
 684 748 684 748 773 654.5 c 128,-1,19
 862 561 862 561 862 414 c 0,20,21
 862 256 862 256 764 116.5 c 128,-1,22
 666 -23 666 -23 483 -23 c 0,23,24
 415 -23 415 -23 354 -2.5 c 128,-1,25
 293 18 293 18 229.5 68.5 c 128,-1,26
 166 119 166 119 128 223.5 c 128,-1,27
 90 328 90 328 90 475 c 0,28,29
 90 749 90 749 281 971 c 0,30,31
 451 1170 451 1170 729 1251 c 1,32,33
 754 1237 754 1237 754 1198 c 1,34,35
 565 1127 565 1127 454.5 995 c 128,-1,36
 344 863 344 863 296 703 c 1,15,16
EndSplineSet
EndChar

StartChar: seven
Encoding: 55 55 26
Width: 952
GlyphClass: 2
Flags: W
LayerCount: 2
Back
Fore
SplineSet
348 1096 m 2,0,1
 309 1096 309 1096 281.5 1086.5 c 128,-1,2
 254 1077 254 1077 222 1036 c 128,-1,3
 190 995 190 995 170 918 c 1,4,5
 139 914 139 914 104 924 c 1,6,7
 143 1180 143 1180 145 1251 c 0,8,9
 145 1257 145 1257 154 1257 c 0,10,11
 162 1255 162 1255 188.5 1242 c 128,-1,12
 215 1229 215 1229 256 1229 c 2,13,-1
 678 1229 l 2,14,15
 760 1229 760 1229 836 1251 c 1,16,-1
 868 1227 l 1,17,18
 647 686 647 686 410 -20 c 1,19,-1
 270 -27 l 1,20,-1
 254 -12 l 1,21,22
 406 326 406 326 715 1096 c 1,23,-1
 348 1096 l 2,0,1
EndSplineSet
EndChar

StartChar: eight
Encoding: 56 56 27
Width: 952
GlyphClass: 2
Flags: W
LayerCount: 2
Back
Fore
SplineSet
479 1178 m 0,0,1
 391 1178 391 1178 341 1128.5 c 128,-1,2
 291 1079 291 1079 291 1006 c 0,3,4
 291 949 291 949 318.5 898.5 c 128,-1,5
 346 848 346 848 434 791 c 2,6,-1
 498 752 l 1,7,8
 662 873 662 873 662 995 c 0,9,10
 662 1073 662 1073 617.5 1125.5 c 128,-1,11
 573 1178 573 1178 479 1178 c 0,0,1
805 993 m 0,12,13
 805 905 805 905 726 830.5 c 128,-1,14
 647 756 647 756 553 709 c 1,15,-1
 698 621 l 2,16,17
 858 525 858 525 858 332 c 0,18,19
 858 201 858 201 751.5 90.5 c 128,-1,20
 645 -20 645 -20 459 -20 c 0,21,22
 293 -20 293 -20 193.5 62.5 c 128,-1,23
 94 145 94 145 94 299 c 0,24,25
 94 440 94 440 213 545 c 0,26,27
 284 607 284 607 378 657 c 1,28,-1
 326 690 l 2,29,30
 146 803 146 803 145 967 c 0,31,32
 145 1088 145 1088 240.5 1168.5 c 128,-1,33
 336 1249 336 1249 489 1249 c 0,34,35
 636 1249 636 1249 720.5 1177.5 c 128,-1,36
 805 1106 805 1106 805 993 c 0,12,13
463 51 m 0,37,38
 557 51 557 51 633 103.5 c 128,-1,39
 709 156 709 156 709 291 c 0,40,41
 709 455 709 455 530 563 c 2,42,-1
 434 621 l 1,43,44
 319 545 319 545 275 456 c 128,-1,45
 231 367 231 367 231 299 c 0,46,47
 231 174 231 174 304 112.5 c 128,-1,48
 377 51 377 51 463 51 c 0,37,38
EndSplineSet
EndChar

StartChar: nine
Encoding: 57 57 28
Width: 952
GlyphClass: 2
Flags: W
LayerCount: 2
Back
Fore
SplineSet
688 598 m 1,0,1
 705 680 705 680 705 758 c 0,2,3
 705 1000 705 1000 638 1089 c 128,-1,4
 571 1178 571 1178 459 1178 c 0,5,6
 379 1178 379 1178 325.5 1094 c 128,-1,7
 272 1010 272 1010 272 850 c 0,8,9
 272 805 272 805 283.5 759 c 128,-1,10
 295 713 295 713 319.5 663.5 c 128,-1,11
 344 614 344 614 395 582.5 c 128,-1,12
 446 551 446 551 518 551 c 0,13,14
 616 551 616 551 688 598 c 1,0,1
669 524 m 1,15,16
 572 480 572 480 475 479 c 0,17,18
 280 479 280 479 191 572.5 c 128,-1,19
 102 666 102 666 102 813 c 0,20,21
 102 971 102 971 200.5 1110 c 128,-1,22
 299 1249 299 1249 481 1249 c 0,23,24
 549 1249 549 1249 610.5 1228.5 c 128,-1,25
 672 1208 672 1208 735.5 1158 c 128,-1,26
 799 1108 799 1108 836.5 1003.5 c 128,-1,27
 874 899 874 899 874 752 c 0,28,29
 874 478 874 478 684 256 c 0,30,31
 514 57 514 57 236 -25 c 1,32,33
 211 -9 211 -9 211 29 c 1,34,35
 400 100 400 100 510.5 232 c 128,-1,36
 621 364 621 364 669 524 c 1,15,16
EndSplineSet
EndChar

StartChar: colon
Encoding: 58 58 29
Width: 483
GlyphClass: 2
Flags: W
LayerCount: 2
Back
Fore
SplineSet
143 727 m 128,-1,1
 143 772 143 772 175 804 c 128,-1,2
 207 836 207 836 252 836 c 128,-1,3
 297 836 297 836 328.5 804 c 128,-1,4
 360 772 360 772 360 727 c 128,-1,5
 360 682 360 682 328.5 650 c 128,-1,6
 297 618 297 618 252 618 c 128,-1,7
 207 618 207 618 175 650 c 128,-1,0
 143 682 143 682 143 727 c 128,-1,1
143 147.5 m 128,-1,9
 143 193 143 193 175 224.5 c 128,-1,10
 207 256 207 256 252 256 c 128,-1,11
 297 256 297 256 328.5 224.5 c 128,-1,12
 360 193 360 193 360 147.5 c 128,-1,13
 360 102 360 102 328.5 70.5 c 128,-1,14
 297 39 297 39 252 39 c 128,-1,15
 207 39 207 39 175 70.5 c 128,-1,8
 143 102 143 102 143 147.5 c 128,-1,9
EndSplineSet
EndChar

StartChar: semicolon
Encoding: 59 59 30
Width: 483
GlyphClass: 2
Flags: W
LayerCount: 2
Back
Fore
SplineSet
143 727 m 128,-1,1
 143 772 143 772 175 804 c 128,-1,2
 207 836 207 836 252 836 c 128,-1,3
 297 836 297 836 328.5 804 c 128,-1,4
 360 772 360 772 360 727 c 128,-1,5
 360 682 360 682 328.5 650 c 128,-1,6
 297 618 297 618 252 618 c 128,-1,7
 207 618 207 618 175 650 c 128,-1,0
 143 682 143 682 143 727 c 128,-1,1
252 195 m 0,8,9
 313 195 313 195 350 139.5 c 128,-1,10
 387 84 387 84 387 -8 c 0,11,12
 387 -110 387 -110 315.5 -182 c 128,-1,13
 244 -254 244 -254 145 -272 c 1,14,15
 127 -254 127 -254 127 -223 c 1,16,17
 201 -205 201 -205 254 -150.5 c 128,-1,18
 307 -96 307 -96 307 -59 c 0,19,20
 307 -4 307 -4 233 4 c 0,21,22
 143 18 143 18 143 94 c 0,23,24
 143 137 143 137 174 166 c 128,-1,25
 205 195 205 195 252 195 c 0,8,9
EndSplineSet
EndChar

StartChar: less
Encoding: 60 60 31
Width: 1126
GlyphClass: 2
Flags: W
LayerCount: 2
Back
Fore
SplineSet
283 489 m 1,0,-1
 932 252 l 1,1,2
 952 229 952 229 952 194.5 c 128,-1,3
 952 160 952 160 932 150 c 1,4,-1
 133 440 l 1,5,6
 104 485 104 485 133 539 c 1,7,-1
 932 827 l 1,8,9
 952 817 952 817 952 782.5 c 128,-1,10
 952 748 952 748 932 725 c 1,11,-1
 283 489 l 1,0,-1
EndSplineSet
EndChar

StartChar: equal
Encoding: 61 61 32
Width: 1126
GlyphClass: 2
Flags: W
LayerCount: 2
Back
Fore
SplineSet
950 633 m 2,0,-1
 154 633 l 2,1,2
 123 633 123 633 123 666 c 0,3,4
 123 689 123 689 139.5 712 c 128,-1,5
 156 735 156 735 174 735 c 2,6,-1
 977 735 l 2,7,8
 1006 735 1006 735 1006 700 c 0,9,10
 1006 684 1006 684 987 658.5 c 128,-1,11
 968 633 968 633 950 633 c 2,0,-1
950 293 m 2,12,-1
 154 293 l 2,13,14
 123 293 123 293 123 326 c 0,15,16
 123 349 123 349 139.5 372 c 128,-1,17
 156 395 156 395 174 395 c 2,18,-1
 977 395 l 2,19,20
 1006 395 1006 395 1006 360 c 0,21,22
 1006 344 1006 344 987 318.5 c 128,-1,23
 968 293 968 293 950 293 c 2,12,-1
EndSplineSet
EndChar

StartChar: greater
Encoding: 62 62 33
Width: 1126
GlyphClass: 2
Flags: W
LayerCount: 2
Back
Fore
SplineSet
844 483 m 1,0,-1
 195 721 l 1,1,2
 175 744 175 744 174.5 778.5 c 128,-1,3
 174 813 174 813 195 823 c 1,4,-1
 993 532 l 1,5,6
 1022 487 1022 487 993 434 c 1,7,-1
 195 145 l 1,8,9
 175 155 175 155 174.5 190 c 128,-1,10
 174 225 174 225 195 248 c 1,11,-1
 844 483 l 1,0,-1
EndSplineSet
EndChar

StartChar: question
Encoding: 63 63 34
Width: 890
GlyphClass: 2
Flags: W
LayerCount: 2
Back
Fore
SplineSet
233 1171 m 0,0,1
 233 1134 233 1134 246 1118 c 0,2,3
 258 1104 258 1104 258 1069 c 0,4,5
 258 1036 258 1036 233.5 1016.5 c 128,-1,6
 209 997 209 997 178 997 c 0,7,8
 145 997 145 997 119.5 1017.5 c 128,-1,9
 94 1038 94 1038 94 1085 c 0,10,11
 94 1185 94 1185 199 1270 c 1,12,13
 291 1350 291 1350 453 1350 c 0,14,15
 609 1350 609 1350 703 1265 c 128,-1,16
 797 1180 797 1180 797 1040 c 0,17,18
 797 983 797 983 778.5 934 c 128,-1,19
 760 885 760 885 719 843 c 128,-1,20
 678 801 678 801 651.5 778.5 c 128,-1,21
 625 756 625 756 573 719 c 0,22,23
 487 656 487 656 467 616 c 0,24,25
 438 561 438 561 438 467 c 2,26,-1
 438 377 l 2,27,28
 438 357 438 357 403 356 c 0,29,30
 370 356 370 356 371 377 c 2,31,-1
 371 471 l 2,32,33
 371 670 371 670 514 801 c 0,34,35
 575 858 575 858 601 909.5 c 128,-1,36
 627 961 627 961 627 1032 c 0,37,38
 627 1134 627 1134 572.5 1208 c 128,-1,39
 518 1282 518 1282 432 1282 c 128,-1,40
 346 1282 346 1282 289.5 1250 c 128,-1,41
 233 1218 233 1218 233 1171 c 0,0,1
295 88 m 128,-1,43
 295 133 295 133 326.5 165 c 128,-1,44
 358 197 358 197 403.5 197 c 128,-1,45
 449 197 449 197 480.5 165 c 128,-1,46
 512 133 512 133 512 88 c 128,-1,47
 512 43 512 43 480.5 11.5 c 128,-1,48
 449 -20 449 -20 403.5 -20 c 128,-1,49
 358 -20 358 -20 326.5 11.5 c 128,-1,42
 295 43 295 43 295 88 c 128,-1,43
EndSplineSet
EndChar

StartChar: at
Encoding: 64 64 35
Width: 1832
GlyphClass: 2
Flags: W
LayerCount: 2
Back
Fore
SplineSet
1165 647 m 0,0,1
 1165 704 1165 704 1127.5 740 c 128,-1,2
 1090 776 1090 776 1032 776 c 0,3,4
 997 776 997 776 943 756.5 c 128,-1,5
 889 737 889 737 848 694 c 0,6,7
 709 555 709 555 709 332 c 0,8,9
 709 144 709 144 868 143 c 0,10,11
 921 143 921 143 989 220 c 128,-1,12
 1057 297 1057 297 1104 410 c 0,13,14
 1165 557 1165 557 1165 647 c 0,0,1
1194 152 m 0,15,16
 1194 127 1194 127 1217 127 c 0,17,18
 1385 127 1385 127 1469.5 224.5 c 128,-1,19
 1554 322 1554 322 1554 563 c 0,20,21
 1554 715 1554 715 1495 838 c 128,-1,22
 1436 961 1436 961 1342.5 1034.5 c 128,-1,23
 1249 1108 1249 1108 1144.5 1148 c 128,-1,24
 1040 1188 1040 1188 940 1188 c 0,25,26
 819 1188 819 1188 705.5 1146 c 128,-1,27
 592 1104 592 1104 496.5 1023 c 128,-1,28
 401 942 401 942 343 805 c 128,-1,29
 285 668 285 668 285 494 c 0,30,31
 285 396 285 396 304.5 297.5 c 128,-1,32
 324 199 324 199 374 97.5 c 128,-1,33
 424 -4 424 -4 498.5 -81 c 128,-1,34
 573 -158 573 -158 695 -207 c 128,-1,35
 817 -256 817 -256 969 -256 c 0,36,37
 1211 -256 1211 -256 1380 -121 c 1,38,-1
 1407 -158 l 1,39,40
 1298 -240 1298 -240 1194 -282 c 128,-1,41
 1090 -324 1090 -324 930 -324 c 0,42,43
 570 -324 570 -324 345.5 -100.5 c 128,-1,44
 121 123 121 123 121 457 c 0,45,46
 121 787 121 787 367.5 1019 c 128,-1,47
 614 1251 614 1251 961 1251 c 0,48,49
 1289 1251 1289 1251 1503.5 1058.5 c 128,-1,50
 1718 866 1718 866 1718 578 c 0,51,52
 1718 484 1718 484 1687.5 396.5 c 128,-1,53
 1657 309 1657 309 1592.5 230.5 c 128,-1,54
 1528 152 1528 152 1408 103.5 c 128,-1,55
 1288 55 1288 55 1128 55 c 0,56,57
 1054 55 1054 55 1055 139 c 0,58,59
 1055 172 1055 172 1085 268 c 1,60,-1
 1081 270 l 1,61,62
 1018 164 1018 164 943 111.5 c 128,-1,63
 868 59 868 59 809 59 c 0,64,65
 737 59 737 59 684 87 c 128,-1,66
 631 115 631 115 606.5 157 c 128,-1,67
 582 199 582 199 570.5 237.5 c 128,-1,68
 559 276 559 276 559 313 c 0,69,70
 559 524 559 524 711.5 682 c 128,-1,71
 864 840 864 840 1036 840 c 0,72,73
 1087 840 1087 840 1133.5 815.5 c 128,-1,74
 1180 791 1180 791 1194 752 c 1,75,-1
 1204 801 l 1,76,-1
 1313 827 l 1,77,-1
 1343 817 l 1,78,-1
 1221 289 l 2,79,80
 1194 168 1194 168 1194 152 c 0,15,16
EndSplineSet
EndChar

StartChar: A
Encoding: 65 65 36
Width: 1423
GlyphClass: 2
Flags: W
LayerCount: 2
Back
Fore
SplineSet
539 580 m 2,0,-1
 901 580 l 1,1,-1
 709 1137 l 1,2,-1
 696 1137 l 1,3,-1
 487 607 l 2,4,5
 481 591 481 591 493 585.5 c 128,-1,6
 505 580 505 580 539 580 c 2,0,-1
317 162 m 1,7,8
 315 142 315 142 311 126.5 c 128,-1,9
 307 111 307 111 322.5 100.5 c 128,-1,10
 338 90 338 90 347 84 c 128,-1,11
 356 78 356 78 381 73 c 128,-1,12
 406 68 406 68 420 67 c 128,-1,13
 434 66 434 66 459 63 c 1,14,15
 467 53 467 53 467 28.5 c 128,-1,16
 467 4 467 4 459 -4 c 1,17,18
 307 0 307 0 197 0 c 0,19,20
 121 0 121 0 14 -4 c 1,21,22
 4 4 4 4 4 28.5 c 128,-1,23
 4 53 4 53 14 63 c 1,24,25
 92 69 92 69 137 95 c 128,-1,26
 182 121 182 121 219 209 c 2,27,-1
 684 1307 l 1,28,29
 729 1307 729 1307 797 1348 c 1,30,-1
 1219 176 l 2,31,32
 1235 129 1235 129 1266.5 104.5 c 128,-1,33
 1298 80 1298 80 1325 74 c 128,-1,34
 1352 68 1352 68 1403 63 c 1,35,36
 1413 53 1413 53 1413 28.5 c 128,-1,37
 1413 4 1413 4 1403 -4 c 1,38,39
 1260 0 1260 0 1169 0 c 0,40,41
 1052 0 1052 0 901 -4 c 1,42,43
 893 4 893 4 893 28.5 c 128,-1,44
 893 53 893 53 901 63 c 1,45,46
 919 65 919 65 929.5 65.5 c 128,-1,47
 940 66 940 66 956.5 68 c 128,-1,48
 973 70 973 70 982 72 c 128,-1,49
 991 74 991 74 1003.5 76 c 128,-1,50
 1016 78 1016 78 1023 81 c 128,-1,51
 1030 84 1030 84 1038.5 89 c 128,-1,52
 1047 94 1047 94 1050 99 c 128,-1,53
 1053 104 1053 104 1056 111.5 c 128,-1,54
 1059 119 1059 119 1058 128 c 128,-1,55
 1057 137 1057 137 1053 147 c 2,56,-1
 934 494 l 1,57,-1
 502 494 l 2,58,59
 465 494 465 494 451.5 486.5 c 128,-1,60
 438 479 438 479 430 459 c 2,61,-1
 317 162 l 1,7,8
EndSplineSet
Position2: "'cpsp' Capital Spacing lookup 0 subtable" dx=4 dy=0 dh=10 dv=0
EndChar

StartChar: B
Encoding: 66 66 37
Width: 1204
GlyphClass: 2
Flags: W
LayerCount: 2
Back
Fore
SplineSet
391 1126 m 2,0,-1
 391 750 l 1,1,-1
 543 750 l 2,2,3
 834 750 834 750 834 985 c 0,4,5
 834 1126 834 1126 754 1190.5 c 128,-1,6
 674 1255 674 1255 569 1255 c 0,7,8
 479 1255 479 1255 443.5 1244 c 128,-1,9
 408 1233 408 1233 399.5 1211 c 128,-1,10
 391 1189 391 1189 391 1126 c 2,0,-1
391 680 m 1,11,-1
 391 242 l 2,12,13
 391 144 391 144 425 103.5 c 128,-1,14
 459 63 459 63 561 63 c 0,15,16
 776 63 776 63 853 136 c 128,-1,17
 930 209 930 209 930 338 c 0,18,19
 930 488 930 488 830.5 584 c 128,-1,20
 731 680 731 680 532 680 c 2,21,-1
 391 680 l 1,11,-1
303 1321 m 0,22,23
 340 1321 340 1321 432 1323 c 128,-1,24
 524 1325 524 1325 559 1325 c 0,25,26
 999 1325 999 1325 999 1010 c 0,27,28
 999 930 999 930 943 856 c 128,-1,29
 887 782 887 782 805 741 c 1,30,-1
 805 737 l 1,31,32
 948 696 948 696 1034 606 c 128,-1,33
 1120 516 1120 516 1120 377 c 0,34,35
 1120 305 1120 305 1095.5 241.5 c 128,-1,36
 1071 178 1071 178 1016 120.5 c 128,-1,37
 961 63 961 63 855.5 29.5 c 128,-1,38
 750 -4 750 -4 604 -4 c 0,39,40
 506 -4 506 -4 418 -2 c 128,-1,41
 330 0 330 0 305 0 c 0,42,43
 199 0 199 0 39 -4 c 1,44,45
 29 4 29 4 29 28.5 c 128,-1,46
 29 53 29 53 39 63 c 1,47,48
 154 67 154 67 185.5 97 c 128,-1,49
 217 127 217 127 217 250 c 2,50,-1
 217 1071 l 2,51,52
 217 1194 217 1194 185.5 1223.5 c 128,-1,53
 154 1253 154 1253 39 1257 c 1,54,55
 29 1265 29 1265 29 1290 c 128,-1,56
 29 1315 29 1315 39 1325 c 1,57,58
 199 1321 199 1321 303 1321 c 0,22,23
EndSplineSet
Position2: "'cpsp' Capital Spacing lookup 0 subtable" dx=4 dy=0 dh=10 dv=0
EndChar

StartChar: C
Encoding: 67 67 38
Width: 1323
GlyphClass: 2
Flags: W
LayerCount: 2
Back
Fore
SplineSet
731 -20 m 0,0,1
 416 -20 416 -20 246 166 c 128,-1,2
 76 352 76 352 76 635 c 0,3,4
 76 795 76 795 133 937 c 128,-1,5
 190 1079 190 1079 293 1174 c 0,6,7
 483 1348 483 1348 733 1348 c 0,8,9
 880 1348 880 1348 1020.5 1302.5 c 128,-1,10
 1161 1257 1161 1257 1182 1255 c 1,11,12
 1213 1085 1213 1085 1227 938 c 1,13,14
 1188 918 1188 918 1159 928 c 1,15,16
 1055 1272 1055 1272 711 1272 c 0,17,18
 532 1272 532 1272 384 1090 c 0,19,20
 262 940 262 940 262 674 c 0,21,22
 262 438 262 438 396 250.5 c 128,-1,23
 530 63 530 63 729 63 c 0,24,25
 872 63 872 63 984 115.5 c 128,-1,26
 1096 168 1096 168 1204 287 c 1,27,28
 1235 287 1235 287 1251 256 c 1,29,30
 1040 -20 1040 -20 731 -20 c 0,0,1
EndSplineSet
Position2: "'cpsp' Capital Spacing lookup 0 subtable" dx=4 dy=0 dh=10 dv=0
EndChar

StartChar: D
Encoding: 68 68 39
Width: 1435
GlyphClass: 2
Flags: W
LayerCount: 2
Back
Fore
SplineSet
391 172 m 2,0,1
 391 117 391 117 433 91.5 c 128,-1,2
 475 66 475 66 614 66 c 0,3,4
 731 66 731 66 821 89.5 c 128,-1,5
 911 113 911 113 989 168 c 128,-1,6
 1067 223 1067 223 1109 327.5 c 128,-1,7
 1151 432 1151 432 1151 582 c 0,8,9
 1151 707 1151 707 1120.5 821.5 c 128,-1,10
 1090 936 1090 936 1024 1036.5 c 128,-1,11
 958 1137 958 1137 839.5 1196 c 128,-1,12
 721 1255 721 1255 563 1255 c 0,13,14
 391 1255 391 1255 391 1155 c 2,15,-1
 391 172 l 2,0,1
303 1321 m 0,16,17
 336 1321 336 1321 447.5 1323 c 128,-1,18
 559 1325 559 1325 641 1325 c 0,19,20
 936 1325 936 1325 1142 1121.5 c 128,-1,21
 1348 918 1348 918 1348 631 c 0,22,23
 1348 451 1348 451 1285.5 320.5 c 128,-1,24
 1223 190 1223 190 1119.5 122.5 c 128,-1,25
 1016 55 1016 55 906.5 25.5 c 128,-1,26
 797 -4 797 -4 678 -4 c 0,27,28
 555 -4 555 -4 440.5 -2 c 128,-1,29
 326 0 326 0 305 0 c 0,30,31
 199 0 199 0 39 -4 c 1,32,33
 29 4 29 4 29 28.5 c 128,-1,34
 29 53 29 53 39 63 c 1,35,36
 154 67 154 67 185.5 97 c 128,-1,37
 217 127 217 127 217 250 c 2,38,-1
 217 1071 l 2,39,40
 217 1194 217 1194 185.5 1223.5 c 128,-1,41
 154 1253 154 1253 39 1257 c 1,42,43
 29 1265 29 1265 29 1290 c 128,-1,44
 29 1315 29 1315 39 1325 c 1,45,46
 203 1321 203 1321 303 1321 c 0,16,17
EndSplineSet
Position2: "'cpsp' Capital Spacing lookup 0 subtable" dx=4 dy=0 dh=10 dv=0
EndChar

StartChar: E
Encoding: 69 69 40
Width: 1140
GlyphClass: 2
Flags: W
LayerCount: 2
Back
Fore
SplineSet
575 739 m 2,0,1
 700 739 700 739 729 763.5 c 128,-1,2
 758 788 758 788 762 879 c 1,3,4
 770 889 770 889 794.5 889 c 128,-1,5
 819 889 819 889 829 879 c 1,6,7
 825 781 825 781 825 702 c 0,8,9
 825 628 825 628 829 522 c 1,10,11
 819 512 819 512 794.5 512 c 128,-1,12
 770 512 770 512 762 522 c 1,13,14
 758 577 758 577 749.5 601 c 128,-1,15
 741 625 741 625 700 643.5 c 128,-1,16
 659 662 659 662 575 662 c 2,17,-1
 389 662 l 1,18,-1
 389 209 l 2,19,20
 389 137 389 137 414.5 108.5 c 128,-1,21
 440 80 440 80 504 80 c 2,22,-1
 741 80 l 2,23,24
 936 80 936 80 1010 348 c 1,25,26
 1047 356 1047 356 1081 338 c 1,27,28
 1056 176 1056 176 1006 -4 c 1,29,30
 842 0 842 0 743 0 c 2,31,-1
 303 0 l 2,32,33
 188 0 188 0 37 -4 c 1,34,35
 29 4 29 4 29 28.5 c 128,-1,36
 29 53 29 53 37 63 c 1,37,38
 152 67 152 67 183.5 97 c 128,-1,39
 215 127 215 127 215 250 c 2,40,-1
 215 1071 l 2,41,42
 215 1194 215 1194 183.5 1223.5 c 128,-1,43
 152 1253 152 1253 37 1257 c 1,44,45
 29 1265 29 1265 29 1290 c 128,-1,46
 29 1315 29 1315 37 1325 c 1,47,48
 201 1321 201 1321 301 1321 c 2,49,-1
 823 1321 l 2,50,51
 876 1321 876 1321 924 1329 c 0,52,53
 932 1329 932 1329 932 1323 c 0,54,55
 948 1253 948 1253 977 1026 c 1,56,57
 944 1010 944 1010 909 1016 c 1,58,59
 870 1139 870 1139 827 1189 c 128,-1,60
 784 1239 784 1239 678 1239 c 2,61,-1
 524 1239 l 2,62,63
 444 1239 444 1239 416.5 1209.5 c 128,-1,64
 389 1180 389 1180 389 1108 c 2,65,-1
 389 739 l 1,66,-1
 575 739 l 2,0,1
EndSplineSet
Position2: "'cpsp' Capital Spacing lookup 0 subtable" dx=4 dy=0 dh=10 dv=0
EndChar

StartChar: F
Encoding: 70 70 41
Width: 993
GlyphClass: 2
Flags: W
LayerCount: 2
Back
Fore
SplineSet
580 662 m 2,0,-1
 389 662 l 1,1,-1
 389 250 l 2,2,3
 389 127 389 127 421 97.5 c 128,-1,4
 453 68 453 68 567 63 c 1,5,6
 577 53 577 53 577.5 28.5 c 128,-1,7
 578 4 578 4 567 -4 c 1,8,9
 424 0 424 0 303 0 c 0,10,11
 180 0 180 0 37 -4 c 1,12,13
 29 4 29 4 29 28.5 c 128,-1,14
 29 53 29 53 37 63 c 1,15,16
 152 67 152 67 183.5 97 c 128,-1,17
 215 127 215 127 215 250 c 2,18,-1
 215 1071 l 2,19,20
 215 1194 215 1194 183.5 1223.5 c 128,-1,21
 152 1253 152 1253 37 1257 c 1,22,23
 29 1265 29 1265 29 1290 c 128,-1,24
 29 1315 29 1315 37 1325 c 1,25,26
 201 1321 201 1321 301 1321 c 2,27,-1
 824 1321 l 2,28,29
 878 1321 878 1321 920 1329 c 0,30,31
 927 1329 927 1329 928 1323 c 0,32,33
 950 1205 950 1205 973 1026 c 1,34,35
 946 1016 946 1016 909 1016 c 1,36,37
 884 1096 884 1096 855.5 1139 c 128,-1,38
 827 1182 827 1182 763.5 1210.5 c 128,-1,39
 700 1239 700 1239 596 1239 c 2,40,-1
 504 1239 l 2,41,42
 434 1239 434 1239 411.5 1214.5 c 128,-1,43
 389 1190 389 1190 389 1108 c 2,44,-1
 389 739 l 1,45,-1
 580 739 l 2,46,47
 705 739 705 739 733.5 763.5 c 128,-1,48
 762 788 762 788 766 879 c 1,49,50
 774 889 774 889 798.5 889 c 128,-1,51
 823 889 823 889 834 879 c 1,52,53
 830 773 830 773 829 702 c 0,54,55
 829 624 829 624 834 522 c 1,56,57
 824 512 824 512 799 512 c 128,-1,58
 774 512 774 512 766 522 c 1,59,60
 762 577 762 577 753.5 601 c 128,-1,61
 745 625 745 625 704.5 643.5 c 128,-1,62
 664 662 664 662 580 662 c 2,0,-1
EndSplineSet
Position2: "'cpsp' Capital Spacing lookup 0 subtable" dx=4 dy=0 dh=10 dv=0
EndChar

StartChar: G
Encoding: 71 71 42
Width: 1402
GlyphClass: 2
Flags: W
LayerCount: 2
Back
Fore
SplineSet
772 1348 m 0,0,1
 872 1348 872 1348 949 1329.5 c 128,-1,2
 1026 1311 1026 1311 1090.5 1286.5 c 128,-1,3
 1155 1262 1155 1262 1198 1255 c 1,4,5
 1237 1081 1237 1081 1245 940 c 1,6,7
 1210 926 1210 926 1178 928 c 1,8,9
 1155 1006 1155 1006 1128.5 1059 c 128,-1,10
 1102 1112 1102 1112 1054 1165.5 c 128,-1,11
 1006 1219 1006 1219 928 1246.5 c 128,-1,12
 850 1274 850 1274 743 1274 c 0,13,14
 557 1274 557 1274 414.5 1102 c 128,-1,15
 272 930 272 930 272 670 c 0,16,17
 272 529 272 529 326.5 390.5 c 128,-1,18
 381 252 381 252 497.5 152.5 c 128,-1,19
 614 53 614 53 768 53 c 0,20,21
 1004 53 1004 53 1085 131 c 1,22,-1
 1085 444 l 2,23,24
 1085 501 1085 501 1049.5 518 c 128,-1,25
 1014 535 1014 535 918 543 c 1,26,27
 910 553 910 553 909.5 579.5 c 128,-1,28
 909 606 909 606 918 616 c 1,29,30
 1098 612 1098 612 1171 612 c 0,31,32
 1255 612 1255 612 1354 616 c 1,33,34
 1364 606 1364 606 1364 579.5 c 128,-1,35
 1364 553 1364 553 1354 543 c 1,36,37
 1305 539 1305 539 1282.5 517.5 c 128,-1,38
 1260 496 1260 496 1260 444 c 2,39,-1
 1260 207 l 2,40,41
 1260 176 1260 176 1292 150 c 1,42,43
 1093 -20 1093 -20 721 -20 c 0,44,45
 432 -20 432 -20 254 164 c 128,-1,46
 76 348 76 348 76 629 c 0,47,48
 76 844 76 844 179.5 1012 c 128,-1,49
 283 1180 283 1180 440.5 1264 c 128,-1,50
 598 1348 598 1348 772 1348 c 0,0,1
EndSplineSet
Position2: "'cpsp' Capital Spacing lookup 0 subtable" dx=4 dy=0 dh=10 dv=0
EndChar

StartChar: H
Encoding: 72 72 43
Width: 1495
GlyphClass: 2
Flags: W
LayerCount: 2
Back
Fore
SplineSet
1266 250 m 2,0,1
 1266 127 1266 127 1297.5 97.5 c 128,-1,2
 1329 68 1329 68 1444 63 c 1,3,4
 1454 53 1454 53 1454 28.5 c 128,-1,5
 1454 4 1454 4 1444 -4 c 1,6,7
 1264 0 1264 0 1180 0 c 0,8,9
 1098 0 1098 0 913 -4 c 1,10,11
 905 4 905 4 905 28.5 c 128,-1,12
 905 53 905 53 913 63 c 1,13,14
 1028 67 1028 67 1060 97 c 128,-1,15
 1092 127 1092 127 1092 250 c 2,16,-1
 1092 657 l 1,17,-1
 391 657 l 1,18,-1
 391 250 l 2,19,20
 391 127 391 127 423 97.5 c 128,-1,21
 455 68 455 68 569 63 c 1,22,23
 577 53 577 53 577.5 28.5 c 128,-1,24
 578 4 578 4 569 -4 c 1,25,26
 389 0 389 0 305 0 c 0,27,28
 219 0 219 0 39 -4 c 1,29,30
 29 4 29 4 29 28.5 c 128,-1,31
 29 53 29 53 39 63 c 1,32,33
 154 67 154 67 185.5 97 c 128,-1,34
 217 127 217 127 217 250 c 2,35,-1
 217 1071 l 2,36,37
 217 1194 217 1194 185.5 1223.5 c 128,-1,38
 154 1253 154 1253 39 1257 c 1,39,40
 29 1265 29 1265 29 1290 c 128,-1,41
 29 1315 29 1315 39 1325 c 1,42,43
 195 1321 195 1321 303 1321 c 0,44,45
 414 1321 414 1321 569 1325 c 1,46,47
 577 1315 577 1315 577.5 1290.5 c 128,-1,48
 578 1266 578 1266 569 1257 c 1,49,50
 454 1253 454 1253 422.5 1223.5 c 128,-1,51
 391 1194 391 1194 391 1071 c 2,52,-1
 391 743 l 1,53,-1
 1092 743 l 1,54,-1
 1092 1071 l 2,55,56
 1092 1194 1092 1194 1060 1223.5 c 128,-1,57
 1028 1253 1028 1253 913 1257 c 1,58,59
 905 1265 905 1265 905 1290 c 128,-1,60
 905 1315 905 1315 913 1325 c 1,61,62
 1093 1321 1093 1321 1178 1321 c 0,63,64
 1276 1321 1276 1321 1444 1325 c 1,65,66
 1454 1315 1454 1315 1454 1290.5 c 128,-1,67
 1454 1266 1454 1266 1444 1257 c 1,68,69
 1329 1253 1329 1253 1297.5 1223.5 c 128,-1,70
 1266 1194 1266 1194 1266 1071 c 2,71,-1
 1266 250 l 2,0,1
EndSplineSet
Position2: "'cpsp' Capital Spacing lookup 0 subtable" dx=4 dy=0 dh=10 dv=0
EndChar

StartChar: I
Encoding: 73 73 44
Width: 608
GlyphClass: 2
Flags: W
LayerCount: 2
Back
Fore
SplineSet
391 250 m 2,0,1
 391 127 391 127 423 97.5 c 128,-1,2
 455 68 455 68 569 63 c 1,3,4
 577 53 577 53 577.5 28.5 c 128,-1,5
 578 4 578 4 569 -4 c 1,6,7
 385 0 385 0 305 0 c 0,8,9
 223 0 223 0 39 -4 c 1,10,11
 29 4 29 4 29 28.5 c 128,-1,12
 29 53 29 53 39 63 c 1,13,14
 154 67 154 67 185.5 97 c 128,-1,15
 217 127 217 127 217 250 c 2,16,-1
 217 1071 l 2,17,18
 217 1194 217 1194 185.5 1223.5 c 128,-1,19
 154 1253 154 1253 39 1257 c 1,20,21
 29 1265 29 1265 29 1290 c 128,-1,22
 29 1315 29 1315 39 1325 c 1,23,24
 232 1321 232 1321 303 1321 c 0,25,26
 389 1321 389 1321 569 1325 c 1,27,28
 577 1315 577 1315 577.5 1290.5 c 128,-1,29
 578 1266 578 1266 569 1257 c 1,30,31
 454 1253 454 1253 422.5 1223.5 c 128,-1,32
 391 1194 391 1194 391 1071 c 2,33,-1
 391 250 l 2,0,1
EndSplineSet
Position2: "'cpsp' Capital Spacing lookup 0 subtable" dx=4 dy=0 dh=10 dv=0
EndChar

StartChar: J
Encoding: 74 74 45
Width: 659
GlyphClass: 2
Flags: W
LayerCount: 2
Back
Fore
SplineSet
463 1071 m 2,0,-1
 463 211 l 2,1,2
 463 107 463 107 444.5 27 c 128,-1,3
 426 -53 426 -53 389 -110.5 c 128,-1,4
 352 -168 352 -168 325.5 -196.5 c 128,-1,5
 299 -225 299 -225 254 -264 c 0,6,7
 152 -352 152 -352 14 -352 c 0,8,9
 -31 -352 -31 -352 -85 -321.5 c 128,-1,10
 -139 -291 -139 -291 -139 -242 c 0,11,12
 -139 -211 -139 -211 -106.5 -182.5 c 128,-1,13
 -74 -154 -74 -154 -49 -154 c 0,14,15
 8 -154 8 -154 32 -206 c 0,16,17
 58 -260 58 -260 115 -260 c 0,18,19
 156 -260 156 -260 190.5 -233.5 c 128,-1,20
 225 -207 225 -207 257 -105.5 c 128,-1,21
 289 -4 289 -4 289 166 c 2,22,-1
 289 1071 l 2,23,24
 289 1194 289 1194 254 1223.5 c 128,-1,25
 219 1253 219 1253 90 1257 c 1,26,27
 82 1265 82 1265 82 1290 c 128,-1,28
 82 1315 82 1315 90 1325 c 1,29,30
 295 1321 295 1321 375 1321 c 0,31,32
 465 1321 465 1321 621 1325 c 1,33,34
 631 1315 631 1315 631 1290.5 c 128,-1,35
 631 1266 631 1266 621 1257 c 1,36,37
 523 1253 523 1253 493 1222.5 c 128,-1,38
 463 1192 463 1192 463 1071 c 2,0,-1
EndSplineSet
Position2: "'cpsp' Capital Spacing lookup 0 subtable" dx=4 dy=0 dh=10 dv=0
EndChar

StartChar: K
Encoding: 75 75 46
Width: 1304
GlyphClass: 2
Flags: W
LayerCount: 2
Back
Fore
SplineSet
391 250 m 2,0,1
 391 127 391 127 423 97.5 c 128,-1,2
 455 68 455 68 569 63 c 1,3,4
 577 53 577 53 577.5 28.5 c 128,-1,5
 578 4 578 4 569 -4 c 1,6,7
 385 0 385 0 305 0 c 0,8,9
 223 0 223 0 39 -4 c 1,10,11
 29 4 29 4 29 28.5 c 128,-1,12
 29 53 29 53 39 63 c 1,13,14
 154 67 154 67 185.5 97 c 128,-1,15
 217 127 217 127 217 250 c 2,16,-1
 217 1071 l 2,17,18
 217 1194 217 1194 185.5 1223.5 c 128,-1,19
 154 1253 154 1253 39 1257 c 1,20,21
 29 1265 29 1265 29 1290 c 128,-1,22
 29 1315 29 1315 39 1325 c 1,23,24
 223 1321 223 1321 303 1321 c 0,25,26
 381 1321 381 1321 569 1325 c 1,27,28
 577 1315 577 1315 577.5 1290.5 c 128,-1,29
 578 1266 578 1266 569 1257 c 1,30,31
 454 1253 454 1253 422.5 1223.5 c 128,-1,32
 391 1194 391 1194 391 1071 c 2,33,-1
 391 711 l 1,34,35
 486 719 486 719 553 791 c 2,36,-1
 891 1151 l 2,37,38
 922 1184 922 1184 930 1205.5 c 128,-1,39
 938 1227 938 1227 921.5 1237 c 128,-1,40
 905 1247 905 1247 887.5 1250 c 128,-1,41
 870 1253 870 1253 834 1257 c 1,42,43
 824 1265 824 1265 823.5 1290 c 128,-1,44
 823 1315 823 1315 834 1325 c 1,45,46
 986 1321 986 1321 1065 1321 c 0,47,48
 1133 1321 1133 1321 1260 1325 c 1,49,50
 1270 1315 1270 1315 1270 1290.5 c 128,-1,51
 1270 1266 1270 1266 1260 1257 c 1,52,53
 1207 1253 1207 1253 1175 1247 c 128,-1,54
 1143 1241 1143 1241 1095 1215.5 c 128,-1,55
 1047 1190 1047 1190 1001 1143 c 2,56,-1
 700 834 l 2,57,58
 628 760 628 760 629 733 c 0,59,60
 629 713 629 713 655 682 c 2,61,-1
 1104 150 l 2,62,63
 1133 115 1133 115 1166.5 95.5 c 128,-1,64
 1200 76 1200 76 1222.5 72 c 128,-1,65
 1245 68 1245 68 1284 63 c 1,66,67
 1294 53 1294 53 1294 28.5 c 128,-1,68
 1294 4 1294 4 1284 -4 c 1,69,70
 1149 0 1149 0 1077 0 c 0,71,72
 1048 0 1048 0 967 -4 c 0,73,74
 959 -4 959 -4 956 8 c 0,75,76
 948 65 948 65 883 150 c 2,77,-1
 561 555 l 2,78,79
 502 629 502 629 391 633 c 1,80,-1
 391 250 l 2,0,1
EndSplineSet
Position2: "'cpsp' Capital Spacing lookup 0 subtable" dx=4 dy=0 dh=10 dv=0
EndChar

StartChar: L
Encoding: 76 76 47
Width: 1081
GlyphClass: 2
Flags: W
LayerCount: 2
Back
Fore
SplineSet
305 0 m 2,0,1
 199 0 199 0 39 -4 c 1,2,3
 29 4 29 4 29 28.5 c 128,-1,4
 29 53 29 53 39 63 c 1,5,6
 154 67 154 67 185.5 97 c 128,-1,7
 217 127 217 127 217 250 c 2,8,-1
 217 1071 l 2,9,10
 217 1194 217 1194 185.5 1223.5 c 128,-1,11
 154 1253 154 1253 39 1257 c 1,12,13
 29 1265 29 1265 29 1290 c 128,-1,14
 29 1315 29 1315 39 1325 c 1,15,16
 227 1321 227 1321 303 1321 c 0,17,18
 385 1321 385 1321 569 1325 c 1,19,20
 577 1315 577 1315 577.5 1290.5 c 128,-1,21
 578 1266 578 1266 569 1257 c 1,22,23
 454 1253 454 1253 422.5 1223.5 c 128,-1,24
 391 1194 391 1194 391 1071 c 2,25,-1
 391 223 l 2,26,27
 391 145 391 145 418.5 112.5 c 128,-1,28
 446 80 446 80 508 80 c 2,29,-1
 637 80 l 2,30,31
 787 80 787 80 861.5 150.5 c 128,-1,32
 936 221 936 221 971 348 c 1,33,34
 1006 354 1006 354 1038 338 c 1,35,36
 1018 160 1018 160 985 -4 c 1,37,38
 796 0 796 0 741 0 c 2,39,-1
 305 0 l 2,0,1
EndSplineSet
Position2: "'cpsp' Capital Spacing lookup 0 subtable" dx=4 dy=0 dh=10 dv=0
EndChar

StartChar: M
Encoding: 77 77 48
Width: 1718
GlyphClass: 2
Flags: W
LayerCount: 2
Back
Fore
SplineSet
1357 238 m 2,0,-1
 1305 1094 l 1,1,-1
 1300 1094 l 1,2,-1
 840 10 l 2,3,4
 824 -21 824 -21 811 -20 c 0,5,6
 793 -20 793 -20 780 10 c 2,7,-1
 356 1073 l 1,8,-1
 352 1073 l 1,9,-1
 274 252 l 2,10,11
 266 156 266 156 290.5 114 c 128,-1,12
 315 72 315 72 410 63 c 1,13,14
 418 53 418 53 418 28.5 c 128,-1,15
 418 4 418 4 410 -4 c 1,16,17
 287 0 287 0 217 0 c 0,18,19
 164 0 164 0 41 -4 c 1,20,21
 33 4 33 4 33 28.5 c 128,-1,22
 33 53 33 53 41 63 c 1,23,24
 125 70 125 70 155 110 c 128,-1,25
 185 150 185 150 194 248 c 2,26,-1
 276 1092 l 2,27,28
 286 1205 286 1205 266 1228 c 128,-1,29
 246 1251 246 1251 137 1257 c 1,30,31
 127 1265 127 1265 127 1290 c 128,-1,32
 127 1315 127 1315 137 1325 c 1,33,-1
 434 1321 l 1,34,-1
 854 281 l 2,35,36
 864 254 864 254 870.5 254 c 128,-1,37
 877 254 877 254 889 283 c 2,38,-1
 1323 1321 l 1,39,-1
 1591 1325 l 1,40,41
 1601 1315 1601 1315 1601.5 1290.5 c 128,-1,42
 1602 1266 1602 1266 1591 1257 c 1,43,44
 1490 1251 1490 1251 1467 1224 c 128,-1,45
 1444 1197 1444 1197 1451 1110 c 2,46,-1
 1512 248 l 2,47,48
 1515 199 1515 199 1517.5 175 c 128,-1,49
 1520 151 1520 151 1527.5 126.5 c 128,-1,50
 1535 102 1535 102 1542.5 93.5 c 128,-1,51
 1550 85 1550 85 1569.5 77 c 128,-1,52
 1589 69 1589 69 1609.5 67 c 128,-1,53
 1630 65 1630 65 1669 63 c 1,54,55
 1679 53 1679 53 1679 28.5 c 128,-1,56
 1679 4 1679 4 1669 -4 c 1,57,58
 1534 0 1534 0 1446 0 c 0,59,60
 1378 0 1378 0 1227 -4 c 1,61,62
 1217 4 1217 4 1217 28.5 c 128,-1,63
 1217 53 1217 53 1227 63 c 1,64,65
 1267 65 1267 65 1284 66.5 c 128,-1,66
 1301 68 1301 68 1321 75 c 128,-1,67
 1341 82 1341 82 1346.5 90 c 128,-1,68
 1352 98 1352 98 1357 120.5 c 128,-1,69
 1362 143 1362 143 1361 167 c 128,-1,70
 1360 191 1360 191 1357 238 c 2,0,-1
EndSplineSet
Position2: "'cpsp' Capital Spacing lookup 0 subtable" dx=4 dy=0 dh=10 dv=0
EndChar

StartChar: N
Encoding: 78 78 49
Width: 1431
GlyphClass: 2
Flags: W
LayerCount: 2
Back
Fore
SplineSet
1139 1049 m 2,0,1
 1139 1121 1139 1121 1132.5 1158.5 c 128,-1,2
 1126 1196 1126 1196 1101.5 1217.5 c 128,-1,3
 1077 1239 1077 1239 1050.5 1245 c 128,-1,4
 1024 1251 1024 1251 961 1257 c 1,5,6
 951 1265 951 1265 950.5 1290 c 128,-1,7
 950 1315 950 1315 961 1325 c 1,8,9
 1141 1321 1141 1321 1188 1321 c 0,10,11
 1249 1321 1249 1321 1417 1325 c 1,12,13
 1425 1315 1425 1315 1425 1290.5 c 128,-1,14
 1425 1266 1425 1266 1417 1257 c 1,15,16
 1302 1245 1302 1245 1270.5 1212.5 c 128,-1,17
 1239 1180 1239 1180 1239 1049 c 2,18,-1
 1239 43 l 2,19,20
 1239 -20 1239 -20 1192 -20 c 0,21,22
 1147 -20 1147 -20 1110 29 c 2,23,-1
 395 932 l 2,24,25
 344 1000 344 1000 326 999 c 0,26,27
 310 999 310 999 309 899 c 2,28,-1
 309 272 l 2,29,30
 309 200 309 200 315.5 162.5 c 128,-1,31
 322 125 322 125 346.5 103.5 c 128,-1,32
 371 82 371 82 397.5 76 c 128,-1,33
 424 70 424 70 487 63 c 1,34,35
 495 53 495 53 495.5 28.5 c 128,-1,36
 496 4 496 4 487 -4 c 1,37,38
 315 0 315 0 260 0 c 0,39,40
 207 0 207 0 31 -4 c 1,41,42
 21 4 21 4 20.5 28.5 c 128,-1,43
 20 53 20 53 31 63 c 1,44,45
 146 75 146 75 177.5 108 c 128,-1,46
 209 141 209 141 209 272 c 2,47,-1
 209 1126 l 1,48,49
 199 1171 199 1171 154 1212 c 128,-1,50
 109 1253 109 1253 47 1257 c 1,51,52
 37 1265 37 1265 37 1290 c 128,-1,53
 37 1315 37 1315 47 1325 c 1,54,-1
 324 1321 l 1,55,-1
 1026 430 l 2,56,57
 1114 317 1114 317 1124 317 c 0,58,59
 1138 317 1138 317 1139 379 c 2,60,-1
 1139 1049 l 2,0,1
EndSplineSet
Position2: "'cpsp' Capital Spacing lookup 0 subtable" dx=4 dy=0 dh=10 dv=0
EndChar

StartChar: O
Encoding: 79 79 50
Width: 1437
GlyphClass: 2
Flags: W
LayerCount: 2
Back
Fore
SplineSet
678 1274 m 0,0,1
 510 1274 510 1274 391 1122.5 c 128,-1,2
 272 971 272 971 272 670 c 0,3,4
 272 387 272 387 415.5 220 c 128,-1,5
 559 53 559 53 758 53 c 0,6,7
 938 53 938 53 1052.5 210 c 128,-1,8
 1167 367 1167 367 1167 635 c 0,9,10
 1167 934 1167 934 1028 1104 c 128,-1,11
 889 1274 889 1274 678 1274 c 0,0,1
1364 674 m 0,12,13
 1364 418 1364 418 1237 238 c 0,14,15
 1151 115 1151 115 1017.5 47.5 c 128,-1,16
 884 -20 884 -20 717 -20 c 0,17,18
 447 -20 447 -20 261.5 160 c 128,-1,19
 76 340 76 340 76 635 c 0,20,21
 76 942 76 942 246 1145 c 128,-1,22
 416 1348 416 1348 705 1348 c 0,23,24
 990 1348 990 1348 1177 1165.5 c 128,-1,25
 1364 983 1364 983 1364 674 c 0,12,13
EndSplineSet
Position2: "'cpsp' Capital Spacing lookup 0 subtable" dx=4 dy=0 dh=10 dv=0
EndChar

StartChar: P
Encoding: 80 80 51
Width: 1107
GlyphClass: 2
Flags: W
LayerCount: 2
Back
Fore
SplineSet
387 1135 m 2,0,-1
 387 657 l 1,1,2
 424 647 424 647 543 647 c 0,3,4
 695 647 695 647 771.5 722 c 128,-1,5
 848 797 848 797 848 958 c 0,6,7
 848 1136 848 1136 770 1201 c 128,-1,8
 692 1266 692 1266 565 1266 c 0,9,10
 387 1266 387 1266 387 1135 c 2,0,-1
213 1071 m 2,11,12
 213 1194 213 1194 181.5 1223.5 c 128,-1,13
 150 1253 150 1253 35 1257 c 1,14,15
 25 1265 25 1265 25 1290 c 128,-1,16
 25 1315 25 1315 35 1325 c 1,17,18
 199 1321 199 1321 299 1321 c 0,19,20
 340 1321 340 1321 440.5 1328 c 128,-1,21
 541 1335 541 1335 580 1335 c 0,22,23
 713 1335 713 1335 809 1300.5 c 128,-1,24
 905 1266 905 1266 952 1209.5 c 128,-1,25
 999 1153 999 1153 1018.5 1101 c 128,-1,26
 1038 1049 1038 1049 1038 995 c 0,27,28
 1038 923 1038 923 1013.5 854.5 c 128,-1,29
 989 786 989 786 937 721.5 c 128,-1,30
 885 657 885 657 785.5 617.5 c 128,-1,31
 686 578 686 578 553 578 c 0,32,33
 451 578 451 578 387 598 c 1,34,-1
 387 250 l 2,35,36
 387 129 387 129 426 99.5 c 128,-1,37
 465 70 465 70 596 63 c 1,38,39
 606 53 606 53 606 28.5 c 128,-1,40
 606 4 606 4 596 -4 c 1,41,42
 391 0 391 0 301 0 c 0,43,44
 219 0 219 0 35 -4 c 1,45,46
 25 4 25 4 25 28.5 c 128,-1,47
 25 53 25 53 35 63 c 1,48,49
 150 67 150 67 181.5 97 c 128,-1,50
 213 127 213 127 213 250 c 2,51,-1
 213 1071 l 2,11,12
EndSplineSet
Position2: "'cpsp' Capital Spacing lookup 0 subtable" dx=4 dy=0 dh=10 dv=0
EndChar

StartChar: Q
Encoding: 81 81 52
Width: 1437
GlyphClass: 2
Flags: W
LayerCount: 2
Back
Fore
SplineSet
678 1274 m 0,0,1
 510 1274 510 1274 391 1122.5 c 128,-1,2
 272 971 272 971 272 670 c 0,3,4
 272 387 272 387 415.5 220 c 128,-1,5
 559 53 559 53 758 53 c 0,6,7
 938 53 938 53 1052.5 210 c 128,-1,8
 1167 367 1167 367 1167 635 c 0,9,10
 1167 934 1167 934 1028 1104 c 128,-1,11
 889 1274 889 1274 678 1274 c 0,0,1
1364 674 m 0,12,13
 1364 418 1364 418 1237 238 c 0,14,15
 1093 33 1093 33 838 -11 c 1,16,17
 703 -49 703 -49 570 -146 c 1,18,19
 592 -143 592 -143 610 -143 c 0,20,21
 739 -143 739 -143 927 -234 c 0,22,23
 1089 -312 1089 -312 1182 -311 c 0,24,25
 1299 -311 1299 -311 1360 -236 c 1,26,-1
 1395 -260 l 1,27,28
 1278 -428 1278 -428 1100 -428 c 0,29,30
 1032 -428 1032 -428 965.5 -410 c 128,-1,31
 899 -392 899 -392 857.5 -372.5 c 128,-1,32
 816 -353 816 -353 756 -318 c 0,33,34
 607 -233 607 -233 514 -233 c 0,35,36
 481 -233 481 -233 442 -259 c 1,37,38
 400 -304 400 -304 365 -354 c 1,39,-1
 285 -313 l 1,40,41
 299 -289 299 -289 321 -266 c 0,42,43
 449 -112 449 -112 633 -16 c 1,44,45
 392 13 392 13 234 189 c 128,-1,46
 76 365 76 365 76 635 c 0,47,48
 76 942 76 942 246 1145 c 128,-1,49
 416 1348 416 1348 705 1348 c 0,50,51
 990 1348 990 1348 1177 1165.5 c 128,-1,52
 1364 983 1364 983 1364 674 c 0,12,13
EndSplineSet
Position2: "'cpsp' Capital Spacing lookup 0 subtable" dx=4 dy=0 dh=10 dv=0
EndChar

StartChar: R
Encoding: 82 82 53
Width: 1202
GlyphClass: 2
Flags: W
LayerCount: 2
Back
Fore
SplineSet
557 1266 m 0,0,1
 387 1266 387 1266 387 1135 c 2,2,-1
 387 666 l 1,3,-1
 485 666 l 2,4,5
 651 666 651 666 740 733.5 c 128,-1,6
 829 801 829 801 829 979 c 0,7,8
 829 1266 829 1266 557 1266 c 0,0,1
387 250 m 2,9,10
 387 127 387 127 419 97.5 c 128,-1,11
 451 68 451 68 565 63 c 1,12,13
 573 53 573 53 573 28.5 c 128,-1,14
 573 4 573 4 565 -4 c 1,15,16
 385 0 385 0 301 0 c 0,17,18
 219 0 219 0 35 -4 c 1,19,20
 25 4 25 4 25 28.5 c 128,-1,21
 25 53 25 53 35 63 c 1,22,23
 150 67 150 67 181.5 97 c 128,-1,24
 213 127 213 127 213 250 c 2,25,-1
 213 1071 l 2,26,27
 213 1194 213 1194 181.5 1223.5 c 128,-1,28
 150 1253 150 1253 35 1257 c 1,29,30
 25 1265 25 1265 25 1290 c 128,-1,31
 25 1315 25 1315 35 1325 c 1,32,33
 228 1321 228 1321 299 1321 c 0,34,35
 334 1321 334 1321 419 1328 c 128,-1,36
 504 1335 504 1335 555 1335 c 0,37,38
 676 1335 676 1335 760 1316.5 c 128,-1,39
 844 1298 844 1298 909 1237 c 0,40,41
 1018 1135 1018 1135 1018 981 c 0,42,43
 1018 840 1018 840 929 751 c 128,-1,44
 840 662 840 662 745 631 c 1,45,-1
 1004 201 l 2,46,47
 1051 123 1051 123 1094 83 c 128,-1,48
 1137 43 1137 43 1200 43 c 1,49,50
 1214 16 1214 16 1202 -6 c 1,51,52
 1173 -20 1173 -20 1116 -20 c 0,53,54
 958 -20 958 -20 846 162 c 2,55,-1
 627 518 l 2,56,57
 602 559 602 559 554 577.5 c 128,-1,58
 506 596 506 596 387 596 c 1,59,-1
 387 250 l 2,9,10
EndSplineSet
Position2: "'cpsp' Capital Spacing lookup 0 subtable" dx=4 dy=0 dh=10 dv=0
EndChar

StartChar: S
Encoding: 83 83 54
Width: 993
GlyphClass: 2
Flags: W
LayerCount: 2
Back
Fore
SplineSet
808 1292 m 1,0,1
 836 1151 836 1151 845 1028 c 1,2,3
 820 1009 820 1009 778 1016 c 1,4,5
 760 1074 760 1074 740.5 1115 c 128,-1,6
 721 1156 721 1156 687 1196.5 c 128,-1,7
 653 1237 653 1237 599.5 1257.5 c 128,-1,8
 546 1278 546 1278 475 1278 c 0,9,10
 386 1278 386 1278 318.5 1207 c 128,-1,11
 251 1136 251 1136 251 1049 c 0,12,13
 251 1000 251 1000 275 956 c 128,-1,14
 299 912 299 912 329 884 c 128,-1,15
 359 856 359 856 411 827 c 128,-1,16
 463 798 463 798 494 785.5 c 128,-1,17
 525 773 525 773 577 753 c 0,18,19
 648 726 648 726 701 697 c 128,-1,20
 754 668 754 668 805 624 c 128,-1,21
 856 580 856 580 882.5 517.5 c 128,-1,22
 909 455 909 455 909 377 c 0,23,24
 909 280 909 280 857 191 c 128,-1,25
 805 102 805 102 717 47 c 0,26,27
 609 -20 609 -20 464 -20 c 0,28,29
 367 -20 367 -20 260.5 3.5 c 128,-1,30
 154 27 154 27 96 27 c 1,31,32
 65 156 65 156 55 338 c 1,33,34
 87 355 87 355 122 344 c 1,35,36
 186 53 186 53 481 53 c 0,37,38
 604 53 604 53 670.5 117.5 c 128,-1,39
 737 182 737 182 737 305 c 0,40,41
 737 363 737 363 719 410 c 128,-1,42
 701 457 701 457 678 485.5 c 128,-1,43
 655 514 655 514 611 540.5 c 128,-1,44
 567 567 567 567 540 579 c 128,-1,45
 513 591 513 591 462 610 c 0,46,47
 385 639 385 639 328.5 669.5 c 128,-1,48
 272 700 272 700 217 745.5 c 128,-1,49
 162 791 162 791 133 853.5 c 128,-1,50
 104 916 104 916 104 993 c 0,51,52
 104 1151 104 1151 218.5 1249.5 c 128,-1,53
 333 1348 333 1348 494 1348 c 0,54,55
 611 1348 611 1348 695.5 1322 c 128,-1,56
 780 1296 780 1296 808 1292 c 1,0,1
EndSplineSet
Position2: "'cpsp' Capital Spacing lookup 0 subtable" dx=4 dy=0 dh=10 dv=0
EndChar

StartChar: T
Encoding: 84 84 55
Width: 1222
GlyphClass: 2
Flags: W
LayerCount: 2
Back
Fore
SplineSet
717 250 m 2,0,1
 717 127 717 127 751.5 97.5 c 128,-1,2
 786 68 786 68 915 63 c 1,3,4
 925 53 925 53 925.5 28.5 c 128,-1,5
 926 4 926 4 915 -4 c 1,6,7
 710 0 710 0 631 0 c 0,8,9
 545 0 545 0 344 -4 c 1,10,11
 336 4 336 4 336 28.5 c 128,-1,12
 336 53 336 53 344 63 c 1,13,14
 473 67 473 67 508 97 c 128,-1,15
 543 127 543 127 543 250 c 2,16,-1
 543 1038 l 2,17,18
 543 1138 543 1138 521.5 1189.5 c 128,-1,19
 500 1241 500 1241 446 1241 c 2,20,-1
 346 1241 l 2,21,22
 240 1241 240 1241 172 1192 c 128,-1,23
 104 1143 104 1143 76 1024 c 1,24,25
 31 1024 31 1024 6 1034 c 1,26,27
 47 1210 47 1210 57 1331 c 0,28,29
 57 1337 57 1337 66 1337 c 0,30,31
 273 1321 273 1321 543 1321 c 2,32,-1
 719 1321 l 2,33,34
 991 1321 991 1321 1178 1337 c 0,35,36
 1184 1337 1184 1337 1184 1331 c 0,37,38
 1186 1196 1186 1196 1210 1040 c 1,39,40
 1187 1030 1187 1030 1141 1030 c 1,41,42
 1116 1145 1116 1145 1046.5 1193 c 128,-1,43
 977 1241 977 1241 856 1241 c 2,44,-1
 811 1241 l 2,45,46
 758 1241 758 1241 737.5 1189 c 128,-1,47
 717 1137 717 1137 717 1032 c 2,48,-1
 717 250 l 2,0,1
EndSplineSet
Position2: "'cpsp' Capital Spacing lookup 0 subtable" dx=4 dy=0 dh=10 dv=0
EndChar

StartChar: U
Encoding: 85 85 56
Width: 1353
GlyphClass: 2
Flags: W
LayerCount: 2
Back
Fore
SplineSet
352 1071 m 2,0,-1
 352 545 l 2,1,2
 352 459 352 459 356 403.5 c 128,-1,3
 360 348 360 348 385 276.5 c 128,-1,4
 410 205 410 205 457 160 c 0,5,6
 557 64 557 64 700 63 c 0,7,8
 800 63 800 63 872 95 c 128,-1,9
 944 127 944 127 983 173 c 128,-1,10
 1022 219 1022 219 1044.5 292 c 128,-1,11
 1067 365 1067 365 1072 425 c 128,-1,12
 1077 485 1077 485 1077 567 c 2,13,-1
 1077 1071 l 2,14,15
 1077 1134 1077 1134 1071 1168 c 128,-1,16
 1065 1202 1065 1202 1039.5 1221.5 c 128,-1,17
 1014 1241 1014 1241 985 1246 c 128,-1,18
 956 1251 956 1251 889 1257 c 1,19,20
 881 1265 881 1265 881 1290 c 128,-1,21
 881 1315 881 1315 889 1325 c 1,22,23
 1077 1321 1077 1321 1126 1321 c 0,24,25
 1179 1321 1179 1321 1335 1325 c 1,26,27
 1343 1315 1343 1315 1343 1290.5 c 128,-1,28
 1343 1266 1343 1266 1335 1257 c 1,29,30
 1235 1245 1235 1245 1206.5 1216.5 c 128,-1,31
 1178 1188 1178 1188 1178 1071 c 2,32,-1
 1178 604 l 2,33,34
 1178 459 1178 459 1155.5 351.5 c 128,-1,35
 1133 244 1133 244 1076.5 157 c 128,-1,36
 1020 70 1020 70 915.5 25 c 128,-1,37
 811 -20 811 -20 657 -20 c 0,38,39
 567 -20 567 -20 491.5 0 c 128,-1,40
 416 20 416 20 341 70.5 c 128,-1,41
 266 121 266 121 222 224.5 c 128,-1,42
 178 328 178 328 178 477 c 2,43,-1
 178 1071 l 2,44,45
 178 1192 178 1192 148.5 1222.5 c 128,-1,46
 119 1253 119 1253 20 1257 c 1,47,48
 12 1265 12 1265 12 1290 c 128,-1,49
 12 1315 12 1315 20 1325 c 1,50,51
 180 1321 180 1321 264 1321 c 128,-1,52
 348 1321 348 1321 541 1325 c 1,53,54
 549 1315 549 1315 549 1290.5 c 128,-1,55
 549 1266 549 1266 541 1257 c 1,56,57
 418 1253 418 1253 385 1223.5 c 128,-1,58
 352 1194 352 1194 352 1071 c 2,0,-1
EndSplineSet
Position2: "'cpsp' Capital Spacing lookup 0 subtable" dx=4 dy=0 dh=10 dv=0
EndChar

StartChar: V
Encoding: 86 86 57
Width: 1335
GlyphClass: 2
Flags: W
LayerCount: 2
Back
Fore
SplineSet
918 1257 m 1,0,1
 910 1265 910 1265 909.5 1290 c 128,-1,2
 909 1315 909 1315 918 1325 c 1,3,4
 1086 1321 1086 1321 1141 1321 c 0,5,6
 1198 1321 1198 1321 1321 1325 c 1,7,8
 1331 1315 1331 1315 1331 1290.5 c 128,-1,9
 1331 1266 1331 1266 1321 1257 c 1,10,11
 1275 1252 1275 1252 1242 1237 c 128,-1,12
 1209 1222 1209 1222 1186 1191.5 c 128,-1,13
 1163 1161 1163 1161 1151 1137.5 c 128,-1,14
 1139 1114 1139 1114 1120 1067 c 2,15,-1
 696 23 l 2,16,17
 678 -24 678 -24 647 -25 c 0,18,19
 618 -25 618 -25 600 23 c 2,20,-1
 196 1071 l 2,21,22
 152 1184 152 1184 122.5 1217 c 128,-1,23
 93 1250 93 1250 12 1257 c 1,24,25
 2 1267 2 1267 2 1291 c 128,-1,26
 2 1315 2 1315 10 1325 c 1,27,28
 145 1321 145 1321 223 1321 c 0,29,30
 307 1321 307 1321 471 1325 c 1,31,32
 479 1315 479 1315 479 1290.5 c 128,-1,33
 479 1266 479 1266 471 1257 c 1,34,35
 368 1246 368 1246 349 1215.5 c 128,-1,36
 330 1185 330 1185 367 1094 c 2,37,-1
 693 260 l 1,38,-1
 703 260 l 1,39,-1
 1026 1081 l 1,40,41
 1065 1165 1065 1165 1044.5 1207 c 128,-1,42
 1024 1249 1024 1249 918 1257 c 1,0,1
EndSplineSet
Position2: "'lfbd' Left Bounds lookup 2 subtable" dx=-55 dy=0 dh=-55 dv=0
Position2: "'rtbd' Right Bounds lookup 1 subtable" dx=0 dy=0 dh=-63 dv=0
Position2: "'cpsp' Capital Spacing lookup 0 subtable" dx=4 dy=0 dh=10 dv=0
EndChar

StartChar: W
Encoding: 87 87 58
Width: 1947
GlyphClass: 2
Flags: W
LayerCount: 2
Back
Fore
SplineSet
1659 1157 m 2,0,1
 1665 1175 1665 1175 1665 1189.5 c 128,-1,2
 1665 1204 1665 1204 1661 1214.5 c 128,-1,3
 1657 1225 1657 1225 1644.5 1232 c 128,-1,4
 1632 1239 1632 1239 1622 1243 c 128,-1,5
 1612 1247 1612 1247 1592.5 1250 c 128,-1,6
 1573 1253 1573 1253 1559.5 1254 c 128,-1,7
 1546 1255 1546 1255 1524 1257 c 1,8,9
 1516 1265 1516 1265 1516 1290 c 128,-1,10
 1516 1315 1516 1315 1524 1325 c 1,11,12
 1688 1321 1688 1321 1749 1321 c 0,13,14
 1808 1321 1808 1321 1927 1325 c 1,15,16
 1937 1315 1937 1315 1937 1290.5 c 128,-1,17
 1937 1266 1937 1266 1927 1257 c 1,18,19
 1849 1253 1849 1253 1811.5 1222.5 c 128,-1,20
 1774 1192 1774 1192 1751 1133 c 2,21,-1
 1339 29 l 2,22,23
 1321 -24 1321 -24 1292.5 -24.5 c 128,-1,24
 1264 -25 1264 -25 1245 31 c 2,25,-1
 1010 711 l 2,26,27
 990 768 990 768 981 768 c 0,28,29
 969 768 969 768 946 717 c 2,30,-1
 641 31 l 2,31,32
 616 -24 616 -24 588 -25 c 0,33,34
 561 -25 561 -25 543 31 c 2,35,-1
 158 1139 l 2,36,37
 131 1219 131 1219 107.5 1236 c 128,-1,38
 84 1253 84 1253 12 1257 c 1,39,40
 4 1265 4 1265 4 1290 c 128,-1,41
 4 1315 4 1315 12 1325 c 1,42,43
 131 1321 131 1321 203 1321 c 0,44,45
 305 1321 305 1321 440 1325 c 1,46,47
 450 1315 450 1315 450.5 1290.5 c 128,-1,48
 451 1266 451 1266 440 1257 c 1,49,50
 377 1253 377 1253 349.5 1237 c 128,-1,51
 322 1221 322 1221 338 1171 c 2,52,-1
 637 266 l 1,53,-1
 646 264 l 1,54,-1
 911 864 l 2,55,56
 929 905 929 905 930 936 c 0,57,58
 930 954 930 954 915 999 c 2,59,-1
 868 1135 l 2,60,61
 827 1250 827 1250 696 1257 c 1,62,63
 688 1265 688 1265 688 1290 c 128,-1,64
 688 1315 688 1315 696 1325 c 1,65,66
 827 1321 827 1321 901 1321 c 0,67,68
 989 1321 989 1321 1157 1325 c 1,69,70
 1167 1315 1167 1315 1167 1290.5 c 128,-1,71
 1167 1266 1167 1266 1157 1257 c 1,72,73
 1128 1255 1128 1255 1115 1253 c 128,-1,74
 1102 1251 1102 1251 1079.5 1243 c 128,-1,75
 1057 1235 1057 1235 1053 1223.5 c 128,-1,76
 1049 1212 1049 1212 1041.5 1189.5 c 128,-1,77
 1034 1167 1034 1167 1051 1135 c 1,78,-1
 1332 270 l 1,79,-1
 1339 268 l 1,80,-1
 1659 1157 l 2,0,1
EndSplineSet
Position2: "'lfbd' Left Bounds lookup 2 subtable" dx=-59 dy=0 dh=-59 dv=0
Position2: "'cpsp' Capital Spacing lookup 0 subtable" dx=4 dy=0 dh=10 dv=0
EndChar

StartChar: X
Encoding: 88 88 59
Width: 1351
GlyphClass: 2
Flags: W
LayerCount: 2
Back
Fore
SplineSet
1102 209 m 2,0,1
 1165 121 1165 121 1204 94.5 c 128,-1,2
 1243 68 1243 68 1309 63 c 1,3,4
 1319 53 1319 53 1319 29.5 c 128,-1,5
 1319 6 1319 6 1311 -4 c 1,6,7
 1188 0 1188 0 1102 0 c 0,8,9
 1020 0 1020 0 868 -4 c 1,10,11
 860 4 860 4 860 28.5 c 128,-1,12
 860 53 860 53 868 63 c 1,13,14
 950 67 950 67 957 90 c 128,-1,15
 964 113 964 113 916 174 c 1,16,-1
 664 535 l 2,17,18
 648 558 648 558 635 557 c 0,19,20
 625 557 625 557 604 528 c 2,21,-1
 334 150 l 1,22,23
 303 97 303 97 320.5 82.5 c 128,-1,24
 338 68 338 68 414 63 c 1,25,26
 422 53 422 53 422 28.5 c 128,-1,27
 422 4 422 4 414 -4 c 1,28,29
 250 0 250 0 199 0 c 0,30,31
 138 0 138 0 14 -4 c 1,32,33
 4 4 4 4 4 28.5 c 128,-1,34
 4 53 4 53 14 63 c 1,35,36
 88 69 88 69 140.5 96 c 128,-1,37
 193 123 193 123 242 190 c 2,38,-1
 545 596 l 2,39,40
 565 623 565 623 565 643.5 c 128,-1,41
 565 664 565 664 537 705 c 2,42,-1
 245 1120 l 2,43,44
 185 1205 185 1205 146 1228.5 c 128,-1,45
 107 1252 107 1252 37 1257 c 1,46,47
 27 1267 27 1267 27 1291 c 128,-1,48
 27 1315 27 1315 35 1325 c 1,49,50
 158 1321 158 1321 244 1321 c 0,51,52
 326 1321 326 1321 477 1325 c 1,53,54
 487 1315 487 1315 487 1290.5 c 128,-1,55
 487 1266 487 1266 477 1257 c 1,56,57
 395 1253 395 1253 388.5 1230.5 c 128,-1,58
 382 1208 382 1208 429 1146 c 1,59,-1
 655 811 l 2,60,61
 671 788 671 788 680 788 c 0,62,63
 696 788 696 788 713 813 c 2,64,-1
 965 1171 l 1,65,66
 996 1222 996 1222 977 1237.5 c 128,-1,67
 958 1253 958 1253 885 1257 c 1,68,69
 877 1265 877 1265 877 1290 c 128,-1,70
 877 1315 877 1315 885 1325 c 1,71,72
 1049 1321 1049 1321 1100 1321 c 0,73,74
 1161 1321 1161 1321 1284 1325 c 1,75,76
 1294 1315 1294 1315 1294 1290.5 c 128,-1,77
 1294 1266 1294 1266 1284 1257 c 1,78,79
 1210 1251 1210 1251 1159 1223.5 c 128,-1,80
 1108 1196 1108 1196 1057 1130 c 2,81,-1
 776 768 l 2,82,83
 756 741 756 741 756 707 c 0,84,85
 756 684 756 684 788 639 c 2,86,-1
 1102 209 l 2,0,1
EndSplineSet
Position2: "'cpsp' Capital Spacing lookup 0 subtable" dx=4 dy=0 dh=10 dv=0
EndChar

StartChar: Y
Encoding: 89 89 60
Width: 1177
GlyphClass: 2
Flags: W
LayerCount: 2
Back
Fore
SplineSet
690 250 m 2,0,1
 690 127 690 127 725 97.5 c 128,-1,2
 760 68 760 68 889 63 c 1,3,4
 897 53 897 53 897 28.5 c 128,-1,5
 897 4 897 4 889 -4 c 1,6,7
 684 0 684 0 604 0 c 0,8,9
 518 0 518 0 317 -4 c 1,10,11
 307 4 307 4 307 28.5 c 128,-1,12
 307 53 307 53 317 63 c 1,13,14
 446 67 446 67 481 97 c 128,-1,15
 516 127 516 127 516 250 c 2,16,-1
 516 510 l 2,17,18
 516 565 516 565 508 593 c 128,-1,19
 500 621 500 621 473 668 c 2,20,-1
 204 1120 l 2,21,22
 154 1205 154 1205 118 1229 c 128,-1,23
 82 1253 82 1253 12 1257 c 1,24,25
 2 1267 2 1267 2 1291 c 128,-1,26
 2 1315 2 1315 10 1325 c 1,27,28
 133 1321 133 1321 219 1321 c 128,-1,29
 305 1321 305 1321 453 1325 c 1,30,31
 463 1315 463 1315 463 1290.5 c 128,-1,32
 463 1266 463 1266 453 1257 c 1,33,34
 368 1252 368 1252 354.5 1231 c 128,-1,35
 341 1210 341 1210 379 1144 c 2,36,-1
 617 725 l 2,37,38
 631 700 631 700 640 699 c 128,-1,39
 649 698 649 698 662 721 c 2,40,-1
 888 1149 l 2,41,42
 917 1211 917 1211 899 1232 c 128,-1,43
 881 1253 881 1253 809 1257 c 1,44,45
 799 1265 799 1265 799 1290 c 128,-1,46
 799 1315 799 1315 809 1325 c 1,47,48
 940 1321 940 1321 995.5 1321 c 128,-1,49
 1051 1321 1051 1321 1165 1325 c 1,50,51
 1175 1315 1175 1315 1175.5 1290.5 c 128,-1,52
 1176 1266 1176 1266 1165 1257 c 1,53,54
 1091 1251 1091 1251 1051.5 1225.5 c 128,-1,55
 1012 1200 1012 1200 971 1126 c 2,56,-1
 726 684 l 2,57,58
 703 642 703 642 696.5 610.5 c 128,-1,59
 690 579 690 579 690 528 c 2,60,-1
 690 250 l 2,0,1
EndSplineSet
Position2: "'cpsp' Capital Spacing lookup 0 subtable" dx=4 dy=0 dh=10 dv=0
EndChar

StartChar: Z
Encoding: 90 90 61
Width: 1236
GlyphClass: 2
Flags: W
LayerCount: 2
Back
Fore
SplineSet
1128 -4 m 1,0,1
 924 0 924 0 869 0 c 2,2,-1
 123 0 l 2,3,4
 84 0 84 0 84 31 c 0,5,6
 84 56 84 56 100 78 c 0,7,8
 264 322 264 322 509 663 c 128,-1,9
 754 1004 754 1004 897 1186 c 0,10,11
 913 1209 913 1209 913 1223 c 0,12,13
 913 1241 913 1241 893 1241 c 2,14,-1
 461 1233 l 2,15,16
 348 1231 348 1231 283.5 1177.5 c 128,-1,17
 219 1124 219 1124 186 1016 c 1,18,19
 159 1016 159 1016 125 1026 c 1,20,21
 160 1208 160 1208 170 1337 c 1,22,23
 373 1321 373 1321 541 1321 c 2,24,-1
 993 1321 l 2,25,26
 1028 1321 1028 1321 1081.5 1323 c 128,-1,27
 1135 1325 1135 1325 1143 1325 c 0,28,29
 1170 1325 1170 1325 1169 1303 c 0,30,31
 1169 1274 1169 1274 1120 1210 c 0,32,33
 801 798 801 798 352 147 c 0,34,35
 336 118 336 118 336 106 c 0,36,37
 336 75 336 75 387 78 c 2,38,-1
 782 86 l 2,39,40
 862 88 862 88 918.5 106.5 c 128,-1,41
 975 125 975 125 1013 167 c 128,-1,42
 1051 209 1051 209 1070.5 244 c 128,-1,43
 1090 279 1090 279 1120 348 c 1,44,45
 1147 348 1147 348 1184 338 c 1,46,47
 1142 164 1142 164 1128 -4 c 1,0,1
EndSplineSet
Position2: "'cpsp' Capital Spacing lookup 0 subtable" dx=4 dy=0 dh=10 dv=0
EndChar

StartChar: bracketleft
Encoding: 91 91 62
Width: 729
GlyphClass: 2
Flags: W
LayerCount: 2
Back
Fore
SplineSet
221 -395 m 1,0,-1
 221 1440 l 1,1,-1
 655 1440 l 1,2,3
 663 1430 663 1430 663.5 1409.5 c 128,-1,4
 664 1389 664 1389 655 1378 c 1,5,6
 510 1368 510 1368 450.5 1346.5 c 128,-1,7
 391 1325 391 1325 374.5 1286 c 128,-1,8
 358 1247 358 1247 358 1149 c 2,9,-1
 358 -102 l 2,10,11
 358 -178 358 -178 364.5 -212 c 128,-1,12
 371 -246 371 -246 402.5 -275.5 c 128,-1,13
 434 -305 434 -305 489.5 -315.5 c 128,-1,14
 545 -326 545 -326 655 -334 c 1,15,16
 663 -344 663 -344 663.5 -364.5 c 128,-1,17
 664 -385 664 -385 655 -395 c 1,18,-1
 221 -395 l 1,0,-1
EndSplineSet
EndChar

StartChar: backslash
Encoding: 92 92 63
Width: 587
GlyphClass: 2
Flags: W
LayerCount: 2
Back
Fore
SplineSet
113 1430 m 1,0,-1
 584 -98 l 1,1,-1
 494 -98 l 1,2,-1
 23 1430 l 1,3,-1
 113 1430 l 1,0,-1
EndSplineSet
EndChar

StartChar: bracketright
Encoding: 93 93 64
Width: 729
GlyphClass: 2
Flags: W
LayerCount: 2
Back
Fore
SplineSet
508 1442 m 1,0,-1
 508 -393 l 1,1,-1
 74 -393 l 1,2,3
 66 -385 66 -385 66 -362.5 c 128,-1,4
 66 -340 66 -340 74 -332 c 1,5,6
 219 -322 219 -322 278.5 -300.5 c 128,-1,7
 338 -279 338 -279 354.5 -240 c 128,-1,8
 371 -201 371 -201 371 -102 c 2,9,-1
 371 1149 l 2,10,11
 371 1225 371 1225 364.5 1258.5 c 128,-1,12
 358 1292 358 1292 326.5 1322 c 128,-1,13
 295 1352 295 1352 239.5 1362 c 128,-1,14
 184 1372 184 1372 74 1380 c 1,15,16
 66 1388 66 1388 66 1411 c 128,-1,17
 66 1434 66 1434 74 1442 c 1,18,-1
 508 1442 l 1,0,-1
EndSplineSet
EndChar

StartChar: asciicircum
Encoding: 94 94 65
Width: 1060
GlyphClass: 2
Flags: W
LayerCount: 2
Back
Fore
SplineSet
530 1214 m 1,0,-1
 322 709 l 1,1,-1
 229 709 l 1,2,-1
 489 1331 l 1,3,-1
 575 1331 l 1,4,-1
 834 709 l 1,5,-1
 741 709 l 1,6,-1
 530 1214 l 1,0,-1
EndSplineSet
EndChar

StartChar: underscore
Encoding: 95 95 66
Width: 995
GlyphClass: 2
Flags: W
LayerCount: 2
Back
Fore
SplineSet
975 -225 m 1,0,1
 987 -237 987 -237 987 -270 c 128,-1,2
 987 -303 987 -303 975 -315 c 1,3,-1
 20 -315 l 1,4,5
 8 -303 8 -303 8 -270.5 c 128,-1,6
 8 -238 8 -238 20 -225 c 1,7,-1
 975 -225 l 1,0,1
EndSplineSet
EndChar

StartChar: a
Encoding: 97 97 67
Width: 935
GlyphClass: 2
Flags: W
LayerCount: 2
Back
Fore
SplineSet
600 477 m 1,0,-1
 438 434 l 2,1,2
 243 385 243 385 244 209 c 0,3,4
 244 154 244 154 281.5 108.5 c 128,-1,5
 319 63 319 63 391 63 c 0,6,7
 461 63 461 63 571 154 c 0,8,9
 600 177 600 177 600 207 c 2,10,-1
 600 477 l 1,0,-1
600 98 m 1,11,-1
 596 98 l 1,12,-1
 555 66 l 2,13,14
 444 -20 444 -20 332 -20 c 0,15,16
 74 -20 74 -20 74 201 c 0,17,18
 74 303 74 303 167 381 c 128,-1,19
 260 459 260 459 412 498 c 2,20,-1
 588 541 l 2,21,22
 600 545 600 545 600 565 c 0,23,24
 600 831 600 831 434 831 c 0,25,26
 366 831 366 831 318 809.5 c 128,-1,27
 270 788 270 788 270 745 c 0,28,29
 270 716 270 716 274 705 c 0,30,31
 280 693 280 693 281 668 c 0,32,33
 281 645 281 645 253 621.5 c 128,-1,34
 225 598 225 598 184 598 c 0,35,36
 112 598 112 598 113 672 c 0,37,38
 113 758 113 758 218.5 828.5 c 128,-1,39
 324 899 324 899 451 899 c 0,40,41
 760 899 760 899 760 553 c 2,42,-1
 760 252 l 2,43,44
 760 209 760 209 761 184.5 c 128,-1,45
 762 160 762 160 768 131 c 128,-1,46
 774 102 774 102 787.5 90 c 128,-1,47
 801 78 801 78 821 78 c 0,48,49
 858 78 858 78 897 111 c 1,50,51
 926 95 926 95 932 55 c 1,52,53
 854 -21 854 -21 737 -20 c 0,54,55
 667 -20 667 -20 638.5 10.5 c 128,-1,56
 610 41 610 41 600 98 c 1,11,-1
EndSplineSet
EndChar

StartChar: b
Encoding: 98 98 68
Width: 1009
GlyphClass: 2
Flags: W
LayerCount: 2
Back
Fore
SplineSet
356 743 m 0,0,1
 321 712 321 712 322 657 c 2,2,-1
 322 145 l 1,3,4
 400 49 400 49 469 49 c 0,5,6
 610 49 610 49 684 162.5 c 128,-1,7
 758 276 758 276 758 459 c 0,8,9
 758 606 758 606 691.5 707.5 c 128,-1,10
 625 809 625 809 530 809 c 0,11,12
 430 809 430 809 356 743 c 0,0,1
342 807 m 0,13,14
 444 899 444 899 571 899 c 0,15,16
 712 899 712 899 823 786.5 c 128,-1,17
 934 674 934 674 934 496 c 0,18,19
 934 267 934 267 792.5 123.5 c 128,-1,20
 651 -20 651 -20 481 -20 c 0,21,22
 361 -20 361 -20 301 30 c 0,23,24
 284 44 284 44 272.5 43.5 c 128,-1,25
 261 43 261 43 245 25 c 0,26,27
 230 8 230 8 197 -25 c 1,28,29
 166 -25 166 -25 152 0 c 1,30,31
 160 39 160 39 160 145 c 2,32,-1
 160 1145 l 2,33,34
 160 1211 160 1211 157 1243.5 c 128,-1,35
 154 1276 154 1276 131.5 1291.5 c 128,-1,36
 109 1307 109 1307 96.5 1308 c 128,-1,37
 84 1309 84 1309 29 1313 c 1,38,39
 6 1336 6 1336 16 1374 c 1,40,41
 198 1388 198 1388 303 1430 c 1,42,43
 330 1430 330 1430 330 1409 c 0,44,45
 322 1327 322 1327 322 1194 c 2,46,-1
 322 817 l 2,47,48
 322 789 322 789 342 807 c 0,13,14
EndSplineSet
EndChar

StartChar: c
Encoding: 99 99 69
Width: 876
GlyphClass: 2
Flags: W
LayerCount: 2
Back
Fore
SplineSet
815 186 m 1,0,1
 743 67 743 67 663.5 23.5 c 128,-1,2
 584 -20 584 -20 481 -20 c 0,3,4
 291 -20 291 -20 183.5 101.5 c 128,-1,5
 76 223 76 223 76 426 c 0,6,7
 76 633 76 633 205 766 c 128,-1,8
 334 899 334 899 496 899 c 0,9,10
 641 899 641 899 725 845 c 128,-1,11
 809 791 809 791 809 705 c 0,12,13
 809 662 809 662 777 638 c 128,-1,14
 745 614 745 614 709 614 c 0,15,16
 639 614 639 614 631 688 c 0,17,18
 627 733 627 733 617.5 758.5 c 128,-1,19
 608 784 608 784 575.5 807.5 c 128,-1,20
 543 831 543 831 485 831 c 0,21,22
 383 831 383 831 317.5 734 c 128,-1,23
 252 637 252 637 252 471 c 0,24,25
 252 295 252 295 332 187.5 c 128,-1,26
 412 80 412 80 526 80 c 0,27,28
 667 80 667 80 772 215 c 1,29,30
 805 211 805 211 815 186 c 1,0,1
EndSplineSet
EndChar

StartChar: d
Encoding: 100 100 70
Width: 1036
GlyphClass: 2
Flags: W
LayerCount: 2
Back
Fore
SplineSet
707 254 m 2,0,-1
 707 643 l 2,1,2
 707 690 707 690 700.5 709.5 c 128,-1,3
 694 729 694 729 672 754 c 0,4,5
 609 828 609 828 506 827 c 0,6,7
 383 827 383 827 315 725 c 0,8,9
 256 641 256 641 256 453 c 0,10,11
 256 273 256 273 323.5 174.5 c 128,-1,12
 391 76 391 76 481 76 c 0,13,14
 561 76 561 76 674 174 c 0,15,16
 707 203 707 203 707 254 c 2,0,-1
684 103 m 0,17,18
 534 -20 534 -20 428 -20 c 0,19,20
 266 -20 266 -20 173 100.5 c 128,-1,21
 80 221 80 221 80 416 c 0,22,23
 80 635 80 635 221 776 c 1,24,25
 350 899 350 899 528 899 c 0,26,27
 559 899 559 899 596 890 c 128,-1,28
 633 881 633 881 659.5 872.5 c 128,-1,29
 686 864 686 864 688 864 c 0,30,31
 706 864 706 864 707 883 c 2,32,-1
 707 1145 l 2,33,34
 707 1211 707 1211 703.5 1243.5 c 128,-1,35
 700 1276 700 1276 677.5 1291.5 c 128,-1,36
 655 1307 655 1307 643 1308 c 128,-1,37
 631 1309 631 1309 575 1313 c 1,38,39
 552 1336 552 1336 563 1374 c 1,40,41
 745 1388 745 1388 850 1430 c 1,42,43
 877 1430 877 1430 877 1409 c 0,44,45
 869 1327 869 1327 868 1194 c 2,46,-1
 868 266 l 2,47,48
 868 186 868 186 896 155.5 c 128,-1,49
 924 125 924 125 1018 117 c 1,50,51
 1028 107 1028 107 1028 88.5 c 128,-1,52
 1028 70 1028 70 1018 61 c 1,53,54
 854 43 854 43 776 -20 c 1,55,56
 758 -28 758 -28 737 -20 c 1,57,58
 719 52 719 52 715 100 c 0,59,60
 713 110 713 110 702.5 110 c 128,-1,61
 692 110 692 110 684 103 c 0,17,18
EndSplineSet
EndChar

StartChar: e
Encoding: 101 101 71
Width: 915
GlyphClass: 2
Flags: W
LayerCount: 2
Back
Fore
SplineSet
254 578 m 1,0,-1
 625 584 l 2,1,2
 656 584 656 584 655 612 c 0,3,4
 655 729 655 729 605 778 c 128,-1,5
 555 827 555 827 485 827 c 0,6,7
 458 827 458 827 432 820 c 128,-1,8
 406 813 406 813 368 790.5 c 128,-1,9
 330 768 330 768 299 713 c 128,-1,10
 268 658 268 658 254 578 c 1,0,-1
791 190 m 1,11,12
 826 188 826 188 834 158 c 1,13,14
 697 -20 697 -20 485 -20 c 0,15,16
 282 -20 282 -20 172 111 c 0,17,18
 76 222 76 222 76 414 c 0,19,20
 76 631 76 631 206 763 c 128,-1,21
 336 895 336 895 485 895 c 0,22,23
 831 895 831 895 831 539 c 0,24,25
 831 504 831 504 793 504 c 2,26,-1
 248 508 l 1,27,28
 248 336 248 336 313 227 c 0,29,30
 403 80 403 80 537 80 c 0,31,32
 623 80 623 80 677.5 104.5 c 128,-1,33
 732 129 732 129 791 190 c 1,11,12
EndSplineSet
EndChar

StartChar: f
Encoding: 102 102 72
Width: 634
GlyphClass: 2
Flags: W
LayerCount: 2
Back
Fore
SplineSet
358 250 m 2,0,1
 358 123 358 123 384 96.5 c 128,-1,2
 410 70 410 70 530 63 c 1,3,4
 540 53 540 53 540.5 28.5 c 128,-1,5
 541 4 541 4 530 -4 c 1,6,7
 387 0 387 0 279 0 c 0,8,9
 197 0 197 0 53 -4 c 1,10,11
 45 4 45 4 45 28.5 c 128,-1,12
 45 53 45 53 53 63 c 1,13,14
 143 69 143 69 170 99 c 128,-1,15
 197 129 197 129 197 250 c 2,16,-1
 197 799 l 1,17,-1
 55 799 l 2,18,19
 45 799 45 799 45 811 c 2,20,-1
 45 838 l 2,21,22
 45 879 45 879 92 879 c 2,23,-1
 197 879 l 1,24,-1
 197 961 l 2,25,26
 197 1184 197 1184 306.5 1307 c 128,-1,27
 416 1430 416 1430 559 1430 c 0,28,29
 682 1430 682 1430 743 1386 c 0,30,31
 809 1337 809 1337 809 1282 c 0,32,33
 809 1251 809 1251 780.5 1224.5 c 128,-1,34
 752 1198 752 1198 725 1198 c 0,35,36
 672 1198 672 1198 643 1264 c 0,37,38
 623 1317 623 1317 595 1338.5 c 128,-1,39
 567 1360 567 1360 520 1360 c 0,40,41
 358 1360 358 1360 358 995 c 2,42,-1
 358 879 l 1,43,-1
 580 879 l 2,44,45
 596 879 596 879 596 866 c 2,46,-1
 596 825 l 2,47,48
 596 798 596 798 549 799 c 2,49,-1
 358 799 l 1,50,-1
 358 250 l 2,0,1
EndSplineSet
EndChar

StartChar: g
Encoding: 103 103 73
Width: 1024
GlyphClass: 2
Flags: W
LayerCount: 2
Back
Fore
SplineSet
653 571 m 0,0,1
 653 698 653 698 602 767 c 128,-1,2
 551 836 551 836 455 836 c 0,3,4
 291 836 291 836 291 618 c 0,5,6
 291 561 291 561 297 519 c 128,-1,7
 303 477 303 477 321.5 433 c 128,-1,8
 340 389 340 389 380 365.5 c 128,-1,9
 420 342 420 342 481 342 c 0,10,11
 653 342 653 342 653 571 c 0,0,1
270 -20 m 1,12,13
 207 -96 207 -96 207 -213 c 0,14,15
 207 -305 207 -305 293 -358.5 c 128,-1,16
 379 -412 379 -412 453 -412 c 0,17,18
 549 -412 549 -412 639 -387 c 128,-1,19
 729 -362 729 -362 791.5 -309 c 128,-1,20
 854 -256 854 -256 854 -186 c 0,21,22
 854 -147 854 -147 831.5 -120.5 c 128,-1,23
 809 -94 809 -94 750 -59 c 0,24,25
 687 -24 687 -24 502 -25 c 0,26,27
 492 -25 492 -25 440.5 -28 c 128,-1,28
 389 -31 389 -31 352 -31 c 0,29,30
 307 -30 307 -30 270 -20 c 1,12,13
909 793 m 0,31,32
 870 793 870 793 852 829 c 0,33,34
 836 854 836 854 811 854 c 0,35,36
 793 854 793 854 767 837.5 c 128,-1,37
 741 821 741 821 729 805 c 1,38,39
 817 715 817 715 817 592 c 0,40,41
 817 449 817 449 715.5 364 c 128,-1,42
 614 279 614 279 471 279 c 0,43,44
 358 279 358 279 285 322 c 1,45,46
 248 271 248 271 248 203 c 0,47,48
 248 144 248 144 287 115 c 128,-1,49
 326 86 326 86 379 86 c 2,50,-1
 440 90 l 1,51,52
 522 100 522 100 578 100 c 0,53,54
 795 100 795 100 877 33 c 0,55,56
 967 -41 967 -41 967 -133 c 0,57,58
 967 -239 967 -239 880 -322.5 c 128,-1,59
 793 -406 793 -406 662.5 -446.5 c 128,-1,60
 532 -487 532 -487 391 -487 c 0,61,62
 254 -487 254 -487 160 -432 c 128,-1,63
 66 -377 66 -377 66 -254 c 0,64,65
 66 -107 66 -107 233 -6 c 1,66,67
 139 41 139 41 139 152 c 0,68,69
 139 207 139 207 163.5 265.5 c 128,-1,70
 188 324 188 324 229 358 c 1,71,72
 123 460 123 460 123 588 c 0,73,74
 123 725 123 725 227.5 812 c 128,-1,75
 332 899 332 899 473 899 c 0,76,77
 600 899 600 899 686 842 c 1,78,79
 723 891 723 891 784.5 918.5 c 128,-1,80
 846 946 846 946 891 946 c 0,81,82
 932 946 932 946 958.5 924.5 c 128,-1,83
 985 903 985 903 985 870 c 0,84,85
 985 839 985 839 961.5 816 c 128,-1,86
 938 793 938 793 909 793 c 0,31,32
EndSplineSet
EndChar

StartChar: h
Encoding: 104 104 74
Width: 1101
GlyphClass: 2
Flags: W
LayerCount: 2
Back
Fore
SplineSet
342 586 m 2,0,-1
 342 250 l 2,1,2
 342 163 342 163 352.5 126.5 c 128,-1,3
 363 90 363 90 385 79 c 128,-1,4
 407 68 407 68 464 63 c 1,5,6
 473 54 473 54 473.5 29.5 c 128,-1,7
 474 5 474 5 464 -4 c 1,8,9
 349 0 349 0 262 0 c 0,10,11
 172 0 172 0 37 -4 c 1,12,13
 28 5 28 5 28 29.5 c 128,-1,14
 28 54 28 54 37 63 c 1,15,16
 88 67 88 67 110.5 72 c 128,-1,17
 133 77 133 77 152 96.5 c 128,-1,18
 171 116 171 116 175.5 150 c 128,-1,19
 180 184 180 184 180 250 c 2,20,-1
 180 1145 l 2,21,22
 180 1211 180 1211 177 1243.5 c 128,-1,23
 174 1276 174 1276 151.5 1291.5 c 128,-1,24
 129 1307 129 1307 116.5 1308 c 128,-1,25
 104 1309 104 1309 49 1313 c 1,26,27
 26 1336 26 1336 37 1374 c 1,28,29
 219 1388 219 1388 324 1430 c 1,30,31
 351 1430 351 1430 350 1409 c 0,32,33
 342 1327 342 1327 342 1194 c 2,34,-1
 340 733 l 2,35,36
 340 708 340 708 357 729 c 0,37,38
 359 732 359 732 360 733 c 0,39,40
 510 899 510 899 709 899 c 0,41,42
 826 899 826 899 879 829 c 0,43,44
 934 757 934 757 934 555 c 2,45,-1
 934 250 l 2,46,47
 934 129 934 129 957.5 100.5 c 128,-1,48
 981 72 981 72 1071 63 c 1,49,50
 1079 53 1079 53 1079 28.5 c 128,-1,51
 1079 4 1079 4 1071 -4 c 1,52,53
 936 0 936 0 854 0 c 0,54,55
 760 0 760 0 645 -4 c 1,56,57
 637 6 637 6 637 30.5 c 128,-1,58
 637 55 637 55 645 63 c 1,59,60
 729 71 729 71 750.5 100 c 128,-1,61
 772 129 772 129 772 250 c 2,62,-1
 772 561 l 2,63,64
 772 670 772 670 748 719 c 0,65,66
 711 793 711 793 639 793 c 0,67,68
 500 793 500 793 377 672 c 0,69,70
 342 634 342 634 342 586 c 2,0,-1
EndSplineSet
EndChar

StartChar: i
Encoding: 105 105 75
Width: 555
GlyphClass: 2
Flags: W
LayerCount: 2
Back
Fore
SplineSet
184 1227 m 0,0,1
 184 1264 184 1264 219 1294.5 c 128,-1,2
 254 1325 254 1325 291 1325 c 0,3,4
 330 1325 330 1325 359.5 1291 c 128,-1,5
 389 1257 389 1257 389 1219 c 0,6,7
 389 1184 389 1184 356.5 1152 c 128,-1,8
 324 1120 324 1120 283 1120 c 0,9,10
 246 1120 246 1120 215 1154 c 128,-1,11
 184 1188 184 1188 184 1227 c 0,0,1
371 250 m 2,12,13
 371 127 371 127 395.5 98.5 c 128,-1,14
 420 70 420 70 518 63 c 1,15,16
 528 53 528 53 528 28.5 c 128,-1,17
 528 4 528 4 518 -4 c 1,18,19
 383 0 383 0 291 0 c 0,20,21
 197 0 197 0 61 -4 c 1,22,23
 53 4 53 4 53 28.5 c 128,-1,24
 53 53 53 53 61 63 c 1,25,26
 159 71 159 71 184 99 c 128,-1,27
 209 127 209 127 209 250 c 2,28,-1
 209 649 l 2,29,30
 209 735 209 735 185.5 757.5 c 128,-1,31
 162 780 162 780 76 788 c 1,32,33
 64 823 64 823 72 846 c 1,34,35
 262 871 262 871 352 905 c 1,36,37
 379 905 379 905 379 891 c 0,38,39
 371 760 371 760 371 658 c 2,40,-1
 371 250 l 2,12,13
EndSplineSet
EndChar

StartChar: j
Encoding: 106 106 76
Width: 557
GlyphClass: 2
Flags: W
LayerCount: 2
Back
Fore
SplineSet
203 1227 m 0,0,1
 203 1264 203 1264 237.5 1294.5 c 128,-1,2
 272 1325 272 1325 309 1325 c 0,3,4
 348 1325 348 1325 378 1291 c 128,-1,5
 408 1257 408 1257 408 1219 c 0,6,7
 408 1184 408 1184 375 1152 c 128,-1,8
 342 1120 342 1120 301 1120 c 0,9,10
 264 1120 264 1120 233.5 1154 c 128,-1,11
 203 1188 203 1188 203 1227 c 0,0,1
231 649 m 2,12,13
 231 735 231 735 207.5 757.5 c 128,-1,14
 184 780 184 780 98 788 c 1,15,16
 86 823 86 823 94 846 c 1,17,18
 289 871 289 871 375 905 c 1,19,20
 402 905 402 905 401 891 c 0,21,22
 393 760 393 760 393 657 c 2,23,-1
 393 225 l 2,24,25
 393 -51 393 -51 355 -187.5 c 128,-1,26
 317 -324 317 -324 240 -387 c 0,27,28
 156 -457 156 -457 14 -457 c 0,29,30
 -23 -457 -23 -457 -60.5 -433.5 c 128,-1,31
 -98 -410 -98 -410 -98 -369 c 0,32,33
 -98 -342 -98 -342 -74.5 -316.5 c 128,-1,34
 -51 -291 -51 -291 -33 -291 c 0,35,36
 -23 -291 -23 -291 -12.5 -294 c 128,-1,37
 -2 -297 -2 -297 5 -300 c 128,-1,38
 12 -303 12 -303 21.5 -310 c 128,-1,39
 31 -317 31 -317 35 -320.5 c 128,-1,40
 39 -324 39 -324 47 -333 c 128,-1,41
 55 -342 55 -342 57 -344 c 0,42,43
 80 -367 80 -367 121 -367 c 0,44,45
 191 -367 191 -367 211 -231.5 c 128,-1,46
 231 -96 231 -96 231 156 c 2,47,-1
 231 649 l 2,12,13
EndSplineSet
EndChar

StartChar: k
Encoding: 107 107 77
Width: 1048
GlyphClass: 2
Flags: W
LayerCount: 2
Back
Fore
SplineSet
176 250 m 2,0,-1
 176 1145 l 2,1,2
 176 1211 176 1211 173 1243.5 c 128,-1,3
 170 1276 170 1276 147.5 1291.5 c 128,-1,4
 125 1307 125 1307 112.5 1308 c 128,-1,5
 100 1309 100 1309 45 1313 c 1,6,7
 22 1336 22 1336 33 1374 c 1,8,9
 215 1388 215 1388 319 1430 c 1,10,11
 346 1430 346 1430 346 1409 c 0,12,13
 338 1327 338 1327 338 1194 c 2,14,-1
 338 480 l 1,15,16
 404 489 404 489 477 543 c 0,17,18
 551 598 551 598 641 711 c 0,19,20
 651 723 651 723 657.5 736.5 c 128,-1,21
 664 750 664 750 668 768 c 128,-1,22
 672 786 672 786 653.5 799.5 c 128,-1,23
 635 813 635 813 594 815 c 1,24,25
 586 823 586 823 586 847.5 c 128,-1,26
 586 872 586 872 594 883 c 1,27,28
 688 879 688 879 795 879 c 0,29,30
 879 879 879 879 973 883 c 1,31,32
 983 873 983 873 983 848 c 128,-1,33
 983 823 983 823 973 815 c 1,34,35
 830 801 830 801 758 725 c 2,36,-1
 578 539 l 2,37,38
 570 531 570 531 569 518 c 0,39,40
 569 508 569 508 584 489 c 2,41,-1
 854 150 l 2,42,43
 891 103 891 103 929 87.5 c 128,-1,44
 967 72 967 72 1030 63 c 1,45,46
 1040 53 1040 53 1040 28.5 c 128,-1,47
 1040 4 1040 4 1030 -4 c 1,48,49
 948 0 948 0 862 0 c 0,50,51
 817 0 817 0 735 -4 c 0,52,53
 727 -4 727 -4 727 6 c 0,54,55
 723 39 723 39 641 150 c 2,56,-1
 492 350 l 2,57,58
 459 394 459 394 426 417 c 1,59,60
 399 426 399 426 338 428 c 1,61,-1
 338 250 l 2,62,63
 338 129 338 129 357.5 99.5 c 128,-1,64
 377 70 377 70 444 63 c 1,65,66
 454 53 454 53 454.5 28.5 c 128,-1,67
 455 4 455 4 444 -4 c 1,68,69
 350 0 350 0 258 0 c 0,70,71
 174 0 174 0 39 -4 c 1,72,73
 29 4 29 4 29 28.5 c 128,-1,74
 29 53 29 53 39 63 c 1,75,76
 129 69 129 69 152.5 98 c 128,-1,77
 176 127 176 127 176 250 c 2,0,-1
EndSplineSet
EndChar

StartChar: l
Encoding: 108 108 78
Width: 540
GlyphClass: 2
Flags: W
LayerCount: 2
Back
Fore
SplineSet
195 250 m 2,0,-1
 195 1145 l 2,1,2
 195 1258 195 1258 174.5 1282.5 c 128,-1,3
 154 1307 154 1307 63 1313 c 1,4,5
 40 1336 40 1336 51 1374 c 1,6,7
 233 1388 233 1388 338 1430 c 1,8,9
 365 1430 365 1430 365 1409 c 0,10,11
 357 1327 357 1327 356 1194 c 2,12,-1
 356 250 l 2,13,14
 356 127 356 127 382 97.5 c 128,-1,15
 408 68 408 68 504 63 c 1,16,17
 512 53 512 53 512 28.5 c 128,-1,18
 512 4 512 4 504 -4 c 1,19,20
 369 0 369 0 276 0 c 0,21,22
 190 0 190 0 47 -4 c 1,23,24
 37 4 37 4 37 28.5 c 128,-1,25
 37 53 37 53 47 63 c 1,26,27
 143 67 143 67 169 97 c 128,-1,28
 195 127 195 127 195 250 c 2,0,-1
EndSplineSet
EndChar

StartChar: m
Encoding: 109 109 79
Width: 1617
GlyphClass: 2
Flags: W
LayerCount: 2
Back
Fore
SplineSet
348 733 m 0,0,1
 350 706 350 706 373 733 c 0,2,3
 520 899 520 899 684 899 c 0,4,5
 762 899 762 899 818 856.5 c 128,-1,6
 874 814 874 814 889 749 c 0,7,8
 894 729 894 729 911 748 c 0,9,10
 1054 899 1054 899 1249 899 c 0,11,12
 1374 899 1374 899 1417 815 c 128,-1,13
 1460 731 1460 731 1460 573 c 2,14,-1
 1460 250 l 2,15,16
 1460 127 1460 127 1481.5 98.5 c 128,-1,17
 1503 70 1503 70 1591 63 c 1,18,19
 1599 53 1599 53 1599 28.5 c 128,-1,20
 1599 4 1599 4 1591 -4 c 1,21,22
 1476 0 1476 0 1380 0 c 0,23,24
 1274 0 1274 0 1171 -4 c 1,25,26
 1163 4 1163 4 1163 28.5 c 128,-1,27
 1163 53 1163 53 1171 63 c 1,28,29
 1255 69 1255 69 1276.5 99 c 128,-1,30
 1298 129 1298 129 1298 250 c 2,31,-1
 1298 610 l 2,32,33
 1298 708 1298 708 1267.5 750.5 c 128,-1,34
 1237 793 1237 793 1176 793 c 0,35,36
 1029 793 1029 793 905 657 c 1,37,38
 907 632 907 632 907 575 c 2,39,-1
 907 250 l 2,40,41
 907 127 907 127 927.5 98.5 c 128,-1,42
 948 70 948 70 1028 63 c 1,43,44
 1036 53 1036 53 1036 29.5 c 128,-1,45
 1036 6 1036 6 1028 -4 c 1,46,47
 926 0 926 0 827 0 c 0,48,49
 721 0 721 0 618 -4 c 1,50,51
 610 6 610 6 610 30.5 c 128,-1,52
 610 55 610 55 618 63 c 1,53,54
 704 69 704 69 724.5 98 c 128,-1,55
 745 127 745 127 745 250 c 2,56,-1
 745 606 l 2,57,58
 745 792 745 792 610 793 c 0,59,60
 512 793 512 793 389 672 c 0,61,62
 354 635 354 635 354 586 c 2,63,-1
 354 250 l 2,64,65
 354 165 354 165 366 128 c 128,-1,66
 378 91 378 91 400 80 c 128,-1,67
 422 69 422 69 481 63 c 1,68,69
 490 54 490 54 490 29.5 c 128,-1,70
 490 5 490 5 481 -4 c 1,71,72
 358 0 358 0 274 0 c 0,73,74
 176 0 176 0 53 -4 c 1,75,76
 45 4 45 4 45 28.5 c 128,-1,77
 45 53 45 53 53 63 c 1,78,79
 143 69 143 69 168 99 c 128,-1,80
 193 129 193 129 193 250 c 2,81,-1
 193 649 l 2,82,83
 193 735 193 735 169 757.5 c 128,-1,84
 145 780 145 780 59 788 c 1,85,86
 47 823 47 823 55 846 c 1,87,88
 207 866 207 866 307 905 c 1,89,90
 323 905 323 905 332 889 c 0,91,92
 342 866 342 866 348 733 c 0,0,1
EndSplineSet
EndChar

StartChar: n
Encoding: 110 110 80
Width: 1110
GlyphClass: 2
Flags: W
LayerCount: 2
Back
Fore
SplineSet
377 733 m 0,0,1
 522 899 522 899 713 899 c 0,2,3
 830 899 830 899 883 829 c 0,4,5
 938 755 938 755 938 555 c 2,6,-1
 938 250 l 2,7,8
 938 129 938 129 961.5 100.5 c 128,-1,9
 985 72 985 72 1075 63 c 1,10,11
 1083 53 1083 53 1083 28.5 c 128,-1,12
 1083 4 1083 4 1075 -4 c 1,13,14
 952 0 952 0 858 0 c 0,15,16
 772 0 772 0 649 -4 c 1,17,18
 641 6 641 6 641 30.5 c 128,-1,19
 641 55 641 55 649 63 c 1,20,21
 733 71 733 71 754.5 100 c 128,-1,22
 776 129 776 129 776 250 c 2,23,-1
 776 561 l 2,24,25
 776 670 776 670 752 719 c 0,26,27
 713 793 713 793 643 793 c 0,28,29
 518 793 518 793 393 672 c 0,30,31
 358 633 358 633 358 586 c 2,32,-1
 358 250 l 2,33,34
 358 129 358 129 379.5 100.5 c 128,-1,35
 401 72 401 72 483 63 c 1,36,37
 491 53 491 53 491.5 28.5 c 128,-1,38
 492 4 492 4 483 -4 c 1,39,40
 360 0 360 0 279 0 c 0,41,42
 177 0 177 0 53 -4 c 1,43,44
 45 4 45 4 45 28.5 c 128,-1,45
 45 53 45 53 53 63 c 1,46,47
 149 71 149 71 173 99 c 128,-1,48
 197 127 197 127 197 250 c 2,49,-1
 197 649 l 2,50,51
 197 735 197 735 173.5 757.5 c 128,-1,52
 150 780 150 780 63 788 c 1,53,54
 51 823 51 823 59 846 c 1,55,56
 211 866 211 866 311 905 c 1,57,58
 327 905 327 905 336 889 c 0,59,60
 348 864 348 864 352 733 c 0,61,62
 352 706 352 706 377 733 c 0,0,1
EndSplineSet
EndChar

StartChar: o
Encoding: 111 111 81
Width: 1032
GlyphClass: 2
Flags: W
LayerCount: 2
Back
Fore
SplineSet
84 420 m 0,0,1
 84 623 84 623 197 756 c 0,2,3
 319 899 319 899 518 899 c 0,4,5
 665 899 665 899 766.5 826.5 c 128,-1,6
 868 754 868 754 908 653.5 c 128,-1,7
 948 553 948 553 948 438 c 0,8,9
 948 224 948 224 815 94 c 0,10,11
 698 -21 698 -21 514 -20 c 0,12,13
 309 -20 309 -20 196.5 113 c 128,-1,14
 84 246 84 246 84 420 c 0,0,1
487 827 m 0,15,16
 260 827 260 827 260 467 c 0,17,18
 260 401 260 401 275.5 333.5 c 128,-1,19
 291 266 291 266 321.5 200.5 c 128,-1,20
 352 135 352 135 409.5 93 c 128,-1,21
 467 51 467 51 543 51 c 0,22,23
 633 51 633 51 702.5 125 c 128,-1,24
 772 199 772 199 772 373 c 0,25,26
 772 592 772 592 696 709.5 c 128,-1,27
 620 827 620 827 487 827 c 0,15,16
EndSplineSet
EndChar

StartChar: p
Encoding: 112 112 82
Width: 1062
GlyphClass: 2
Flags: W
LayerCount: 2
Back
Fore
SplineSet
358 678 m 0,0,1
 325 637 325 637 326 588 c 2,2,-1
 326 215 l 2,3,4
 326 161 326 161 334.5 141 c 128,-1,5
 343 121 343 121 375 92 c 0,6,7
 423 49 423 49 520 49 c 0,8,9
 602 49 602 49 661.5 83 c 128,-1,10
 721 117 721 117 751.5 175 c 128,-1,11
 782 233 782 233 795.5 294.5 c 128,-1,12
 809 356 809 356 809 426 c 0,13,14
 809 594 809 594 738.5 699.5 c 128,-1,15
 668 805 668 805 565 805 c 0,16,17
 522 805 522 805 460.5 767 c 128,-1,18
 399 729 399 729 358 678 c 0,0,1
319 754 m 0,19,20
 321 723 321 723 342 745 c 0,21,22
 479 899 479 899 623 899 c 0,23,24
 777 899 777 899 881 774 c 128,-1,25
 985 649 985 649 985 481 c 0,26,27
 985 241 985 241 834 94 c 0,28,29
 713 -21 713 -21 532 -20 c 0,30,31
 432 -20 432 -20 354 11 c 0,32,33
 338 19 338 19 332 17 c 128,-1,34
 326 15 326 15 326 -4 c 2,35,-1
 326 -225 l 2,36,37
 326 -348 326 -348 353.5 -377 c 128,-1,38
 381 -406 381 -406 494 -412 c 1,39,40
 504 -422 504 -422 504 -446.5 c 128,-1,41
 504 -471 504 -471 494 -479 c 1,42,43
 359 -475 359 -475 246 -475 c 0,44,45
 160 -475 160 -475 16 -479 c 1,46,47
 8 -471 8 -471 8 -446.5 c 128,-1,48
 8 -422 8 -422 16 -412 c 1,49,50
 112 -408 112 -408 138 -378 c 128,-1,51
 164 -348 164 -348 164 -225 c 2,52,-1
 164 649 l 2,53,54
 164 735 164 735 140.5 757.5 c 128,-1,55
 117 780 117 780 31 788 c 1,56,57
 19 823 19 823 27 846 c 1,58,59
 179 866 179 866 279 905 c 1,60,61
 295 905 295 905 303 889 c 0,62,63
 313 865 313 865 319 754 c 0,19,20
EndSplineSet
EndChar

StartChar: q
Encoding: 113 113 83
Width: 1030
GlyphClass: 2
Flags: W
LayerCount: 2
Back
Fore
SplineSet
659 754 m 0,0,1
 592 829 592 829 498 829 c 0,2,3
 379 829 379 829 313.5 729 c 128,-1,4
 248 629 248 629 248 465 c 0,5,6
 248 354 248 354 276.5 273.5 c 128,-1,7
 305 193 305 193 352 151 c 128,-1,8
 399 109 399 109 447.5 89.5 c 128,-1,9
 496 70 496 70 545 70 c 0,10,11
 628 70 628 70 680 97 c 0,12,13
 699 107 699 107 704 118 c 128,-1,14
 709 129 709 129 709 158 c 2,15,-1
 709 629 l 2,16,17
 709 668 709 668 698.5 694.5 c 128,-1,18
 688 721 688 721 659 754 c 0,0,1
709 -227 m 2,19,-1
 709 0 l 2,20,21
 709 31 709 31 699 32 c 128,-1,22
 689 33 689 33 653 11 c 0,23,24
 598 -21 598 -21 496 -20 c 0,25,26
 293 -20 293 -20 182.5 119 c 128,-1,27
 72 258 72 258 72 424 c 0,28,29
 72 627 72 627 195.5 763 c 128,-1,30
 319 899 319 899 506 899 c 0,31,32
 645 899 645 899 737 839 c 0,33,34
 756 828 756 828 766 833 c 128,-1,35
 776 838 776 838 797 866 c 0,36,37
 826 905 826 905 840 905 c 0,38,39
 871 905 871 905 870 854 c 2,40,-1
 870 -227 l 2,41,42
 870 -350 870 -350 895 -379 c 128,-1,43
 920 -408 920 -408 1018 -412 c 1,44,45
 1028 -422 1028 -422 1028 -446.5 c 128,-1,46
 1028 -471 1028 -471 1018 -479 c 1,47,48
 883 -475 883 -475 791 -475 c 0,49,50
 705 -475 705 -475 561 -479 c 1,51,52
 553 -471 553 -471 553 -446.5 c 128,-1,53
 553 -422 553 -422 561 -412 c 1,54,55
 659 -408 659 -408 684 -379 c 128,-1,56
 709 -350 709 -350 709 -227 c 2,19,-1
EndSplineSet
EndChar

StartChar: r
Encoding: 114 114 84
Width: 761
GlyphClass: 2
Flags: W
LayerCount: 2
Back
Fore
SplineSet
360 733 m 0,0,1
 360 723 360 723 366.5 719 c 128,-1,2
 373 715 373 715 383 729 c 0,3,4
 424 799 424 799 484.5 849 c 128,-1,5
 545 899 545 899 610 899 c 0,6,7
 669 899 669 899 701 867.5 c 128,-1,8
 733 836 733 836 733 801 c 0,9,10
 733 762 733 762 703.5 730 c 128,-1,11
 674 698 674 698 637 698 c 0,12,13
 599 698 599 698 563 746 c 0,14,15
 543 772 543 772 510 772 c 0,16,17
 485 772 485 772 416 672 c 0,18,19
 367 598 367 598 367 535 c 2,20,-1
 367 250 l 2,21,22
 367 127 367 127 394.5 99.5 c 128,-1,23
 422 72 422 72 535 63 c 1,24,25
 545 53 545 53 545 28.5 c 128,-1,26
 545 4 545 4 535 -4 c 1,27,28
 392 0 392 0 287 0 c 0,29,30
 197 0 197 0 53 -4 c 1,31,32
 45 4 45 4 45 28.5 c 128,-1,33
 45 53 45 53 53 63 c 1,34,35
 153 69 153 69 179 98 c 128,-1,36
 205 127 205 127 205 250 c 2,37,-1
 205 649 l 2,38,39
 205 735 205 735 181.5 757.5 c 128,-1,40
 158 780 158 780 72 788 c 1,41,42
 60 823 60 823 68 846 c 1,43,44
 220 866 220 866 319 905 c 1,45,46
 335 905 335 905 344 889 c 0,47,48
 354 864 354 864 360 733 c 0,0,1
EndSplineSet
EndChar

StartChar: s
Encoding: 115 115 85
Width: 798
GlyphClass: 2
Flags: W
LayerCount: 2
Back
Fore
SplineSet
98 283 m 1,0,1
 108 293 108 293 130 293 c 128,-1,2
 152 293 152 293 162 285 c 1,3,4
 195 146 195 146 242 96.5 c 128,-1,5
 289 47 289 47 387 47 c 0,6,7
 453 47 453 47 507 84 c 128,-1,8
 561 121 561 121 561 190 c 0,9,10
 561 258 561 258 519 299 c 128,-1,11
 477 340 477 340 352 391 c 0,12,13
 229 442 229 442 178 501.5 c 128,-1,14
 127 561 127 561 127 670 c 0,15,16
 127 766 127 766 213 832.5 c 128,-1,17
 299 899 299 899 416 899 c 0,18,19
 463 899 463 899 512 892 c 128,-1,20
 561 885 561 885 615.5 873.5 c 128,-1,21
 670 862 670 862 684 860 c 1,22,23
 680 751 680 751 672 643 c 1,24,25
 662 633 662 633 639 633 c 128,-1,26
 616 633 616 633 606 641 c 1,27,28
 596 702 596 702 572.5 743 c 128,-1,29
 549 784 549 784 517 801.5 c 128,-1,30
 485 819 485 819 461.5 825 c 128,-1,31
 438 831 438 831 416 831 c 0,32,33
 361 831 361 831 316.5 795.5 c 128,-1,34
 272 760 272 760 272 700 c 0,35,36
 272 623 272 623 318.5 587.5 c 128,-1,37
 365 552 365 552 477 510 c 0,38,39
 717 421 717 421 717 238 c 0,40,41
 717 166 717 166 683 112.5 c 128,-1,42
 649 59 649 59 596 31.5 c 128,-1,43
 543 4 543 4 491.5 -8 c 128,-1,44
 440 -20 440 -20 391 -20 c 0,45,46
 291 -20 291 -20 205 2 c 0,47,48
 191 6 191 6 164 6 c 0,49,50
 144 6 144 6 113 0 c 1,51,52
 112 107 112 107 98 283 c 1,0,1
EndSplineSet
EndChar

StartChar: t
Encoding: 116 116 86
Width: 647
GlyphClass: 2
Flags: W
LayerCount: 2
Back
Fore
SplineSet
88 879 m 2,0,-1
 182 879 l 1,1,2
 182 957 182 957 181 1008 c 128,-1,3
 180 1059 180 1059 179 1074.5 c 128,-1,4
 178 1090 178 1090 177 1100 c 128,-1,5
 176 1110 176 1110 176 1116 c 0,6,7
 176 1131 176 1131 221 1144 c 0,8,9
 257 1154 257 1154 291 1173 c 0,10,11
 325 1191 325 1191 336 1192 c 0,12,13
 352 1192 352 1192 352 1174 c 0,14,15
 344 1092 344 1092 344 958 c 2,16,-1
 344 879 l 1,17,-1
 590 879 l 2,18,19
 606 879 606 879 606 866 c 2,20,-1
 606 825 l 2,21,22
 606 798 606 798 557 799 c 2,23,-1
 344 799 l 1,24,-1
 344 281 l 2,25,26
 344 181 344 181 358.5 136.5 c 128,-1,27
 373 92 373 92 412 92 c 0,28,29
 506 92 506 92 580 150 c 1,30,31
 611 148 611 148 616 115 c 1,32,33
 495 -20 495 -20 340 -20 c 0,34,35
 182 -20 182 -20 182 182 c 2,36,-1
 182 799 l 1,37,-1
 61 799 l 2,38,39
 51 799 51 799 51 811 c 2,40,-1
 51 838 l 2,41,42
 51 879 51 879 88 879 c 2,0,-1
EndSplineSet
EndChar

StartChar: u
Encoding: 117 117 87
Width: 1087
GlyphClass: 2
Flags: W
LayerCount: 2
Back
Fore
SplineSet
444 -20 m 0,0,1
 303 -20 303 -20 241.5 58.5 c 128,-1,2
 180 137 180 137 180 258 c 2,3,-1
 180 651 l 2,4,5
 180 747 180 747 154.5 778 c 128,-1,6
 129 809 129 809 53 815 c 1,7,8
 45 823 45 823 45 847.5 c 128,-1,9
 45 872 45 872 53 883 c 1,10,11
 192 879 192 879 262 879 c 0,12,13
 313 879 313 879 334 883 c 0,14,15
 350 883 350 883 350 870 c 0,16,17
 342 720 342 720 342 659 c 2,18,-1
 342 287 l 2,19,20
 342 166 342 166 392 121 c 128,-1,21
 442 76 442 76 506 76 c 0,22,23
 598 76 598 76 711 174 c 0,24,25
 744 203 744 203 743 254 c 2,26,-1
 743 649 l 2,27,28
 743 747 743 747 718.5 779 c 128,-1,29
 694 811 694 811 616 815 c 1,30,31
 606 823 606 823 606 847.5 c 128,-1,32
 606 872 606 872 616 883 c 1,33,34
 755 879 755 879 825 879 c 0,35,36
 876 879 876 879 897 883 c 0,37,38
 913 883 913 883 913 870 c 0,39,40
 905 720 905 720 905 659 c 2,41,-1
 905 266 l 2,42,43
 905 186 905 186 933 155.5 c 128,-1,44
 961 125 961 125 1055 117 c 1,45,46
 1065 107 1065 107 1065 88.5 c 128,-1,47
 1065 70 1065 70 1055 61 c 1,48,49
 891 43 891 43 813 -20 c 1,50,51
 795 -28 795 -28 774 -20 c 1,52,53
 756 50 756 50 752 100 c 0,54,55
 750 110 750 110 739.5 109.5 c 128,-1,56
 729 109 729 109 721 102 c 0,57,58
 569 -20 569 -20 444 -20 c 0,0,1
EndSplineSet
EndChar

StartChar: v
Encoding: 118 118 88
Width: 1017
GlyphClass: 2
Flags: W
LayerCount: 2
Back
Fore
SplineSet
666 815 m 1,0,1
 656 823 656 823 655.5 847.5 c 128,-1,2
 655 872 655 872 666 883 c 1,3,4
 768 879 768 879 854 879 c 0,5,6
 915 879 915 879 997 883 c 1,7,8
 1007 873 1007 873 1007.5 848 c 128,-1,9
 1008 823 1008 823 997 815 c 1,10,11
 919 808 919 808 887.5 776 c 128,-1,12
 856 744 856 744 822 664 c 2,13,-1
 549 23 l 2,14,15
 529 -24 529 -24 500 -25 c 0,16,17
 465 -25 465 -25 449 18 c 2,18,-1
 187 666 l 2,19,20
 153 752 153 752 126 779 c 128,-1,21
 99 806 99 806 23 815 c 1,22,23
 13 823 13 823 12.5 847.5 c 128,-1,24
 12 872 12 872 23 883 c 1,25,26
 146 879 146 879 213 879 c 0,27,28
 285 879 285 879 420 883 c 1,29,30
 430 873 430 873 430 848 c 128,-1,31
 430 823 430 823 420 815 c 1,32,33
 343 805 343 805 333.5 778 c 128,-1,34
 324 751 324 751 356 678 c 1,35,-1
 504 283 l 2,36,37
 529 220 529 220 542 217.5 c 128,-1,38
 555 215 555 215 580 276 c 2,39,-1
 745 678 l 2,40,41
 778 756 778 756 763 782.5 c 128,-1,42
 748 809 748 809 666 815 c 1,0,1
EndSplineSet
Position2: "'rtbd' Right Bounds lookup 1 subtable" dx=0 dy=0 dh=-57 dv=0
EndChar

StartChar: w
Encoding: 119 119 89
Width: 1529
GlyphClass: 2
Flags: W
LayerCount: 2
Back
Fore
SplineSet
416 815 m 1,0,1
 345 811 345 811 333.5 781 c 128,-1,2
 322 751 322 751 354 678 c 2,3,-1
 518 256 l 2,4,5
 532 221 532 221 539.5 213 c 128,-1,6
 547 205 547 205 554 214 c 128,-1,7
 561 223 561 223 575 260 c 2,8,-1
 719 623 l 1,9,-1
 706 655 l 2,10,11
 689 698 689 698 679 719 c 128,-1,12
 669 740 669 740 650.5 765 c 128,-1,13
 632 790 632 790 608 801 c 128,-1,14
 584 812 584 812 549 815 c 1,15,16
 541 823 541 823 541 847.5 c 128,-1,17
 541 872 541 872 549 883 c 1,18,19
 672 879 672 879 729 879 c 0,20,21
 811 879 811 879 934 883 c 1,22,23
 942 873 942 873 942 848 c 128,-1,24
 942 823 942 823 934 815 c 1,25,26
 854 809 854 809 841.5 785.5 c 128,-1,27
 829 762 829 762 859 690 c 2,28,-1
 1036 242 l 2,29,30
 1048 210 1048 210 1057 211 c 128,-1,31
 1066 212 1066 212 1081 250 c 2,32,-1
 1253 676 l 2,33,34
 1267 710 1267 710 1270.5 728 c 128,-1,35
 1274 746 1274 746 1269 768 c 128,-1,36
 1264 790 1264 790 1234 801 c 128,-1,37
 1204 812 1204 812 1149 815 c 1,38,39
 1139 823 1139 823 1139 847.5 c 128,-1,40
 1139 872 1139 872 1149 883 c 1,41,42
 1272 879 1272 879 1358 879 c 0,43,44
 1424 879 1424 879 1505 883 c 1,45,46
 1515 873 1515 873 1515.5 848 c 128,-1,47
 1516 823 1516 823 1505 815 c 1,48,49
 1433 811 1433 811 1397 775.5 c 128,-1,50
 1361 740 1361 740 1332 668 c 2,51,-1
 1065 18 l 2,52,53
 1049 -25 1049 -25 1018 -25 c 128,-1,54
 987 -25 987 -25 969 16 c 2,55,-1
 758 524 l 1,56,-1
 551 20 l 2,57,58
 531 -25 531 -25 502 -25 c 0,59,60
 471 -25 471 -25 453 16 c 2,61,-1
 185 678 l 2,62,63
 152 759 152 759 123 783.5 c 128,-1,64
 94 808 94 808 23 815 c 1,65,66
 13 823 13 823 12.5 847.5 c 128,-1,67
 12 872 12 872 23 883 c 1,68,69
 129 879 129 879 209 879 c 0,70,71
 293 879 293 879 416 883 c 1,72,73
 426 873 426 873 426 848 c 128,-1,74
 426 823 426 823 416 815 c 1,0,1
EndSplineSet
EndChar

StartChar: x
Encoding: 120 120 90
Width: 1003
GlyphClass: 2
Flags: W
LayerCount: 2
Back
Fore
SplineSet
373 733 m 2,0,-1
 498 549 l 2,1,2
 518 518 518 518 537 545 c 2,3,-1
 670 731 l 2,4,5
 703 784 703 784 692.5 796.5 c 128,-1,6
 682 809 682 809 621 815 c 1,7,8
 611 823 611 823 610.5 847.5 c 128,-1,9
 610 872 610 872 621 883 c 1,10,11
 727 879 727 879 793 879 c 0,12,13
 861 879 861 879 942 883 c 1,14,15
 950 873 950 873 950 848 c 128,-1,16
 950 823 950 823 942 815 c 1,17,18
 879 809 879 809 838 788.5 c 128,-1,19
 797 768 797 768 743 702 c 2,20,-1
 571 483 l 2,21,22
 559 469 559 469 571 453 c 2,23,-1
 756 193 l 2,24,25
 815 111 815 111 850 89.5 c 128,-1,26
 885 68 885 68 961 63 c 1,27,28
 971 53 971 53 971 28.5 c 128,-1,29
 971 4 971 4 961 -4 c 1,30,31
 863 0 863 0 778 0 c 0,32,33
 698 0 698 0 575 -4 c 1,34,35
 565 4 565 4 565 28.5 c 128,-1,36
 565 53 565 53 575 63 c 1,37,38
 614 67 614 67 628.5 72.5 c 128,-1,39
 643 78 643 78 640 101.5 c 128,-1,40
 637 125 637 125 602 172 c 2,41,-1
 483 336 l 2,42,43
 465 361 465 361 446 332 c 2,44,-1
 317 145 l 2,45,46
 286 94 286 94 294.5 82 c 128,-1,47
 303 70 303 70 362 63 c 1,48,49
 372 53 372 53 372.5 28.5 c 128,-1,50
 373 4 373 4 362 -4 c 1,51,52
 256 0 256 0 190.5 0 c 128,-1,53
 125 0 125 0 43 -4 c 1,54,55
 33 4 33 4 33 28.5 c 128,-1,56
 33 53 33 53 43 63 c 1,57,58
 106 67 106 67 146 86.5 c 128,-1,59
 186 106 186 106 242 178 c 2,60,-1
 414 399 l 2,61,62
 424 411 424 411 412 430 c 2,63,-1
 233 690 l 2,64,65
 153 805 153 805 49 815 c 1,66,67
 41 823 41 823 41 847.5 c 128,-1,68
 41 872 41 872 49 883 c 1,69,70
 155 879 155 879 225 879 c 0,71,72
 321 879 321 879 432 883 c 1,73,74
 442 873 442 873 442 848 c 128,-1,75
 442 823 442 823 432 815 c 1,76,77
 360 807 360 807 350 796.5 c 128,-1,78
 340 786 340 786 373 733 c 2,0,-1
EndSplineSet
EndChar

StartChar: y
Encoding: 121 121 91
Width: 1054
GlyphClass: 2
Flags: W
LayerCount: 2
Back
Fore
SplineSet
418 -328 m 0,0,1
 334 -475 334 -475 219 -475 c 0,2,3
 178 -475 178 -475 150.5 -453.5 c 128,-1,4
 123 -432 123 -432 123 -399 c 0,5,6
 123 -372 123 -372 148.5 -341.5 c 128,-1,7
 174 -311 174 -311 213 -311 c 0,8,9
 223 -311 223 -311 240.5 -314 c 128,-1,10
 258 -317 258 -317 272 -317 c 0,11,12
 342 -317 342 -317 375 -258 c 0,13,14
 424 -158 424 -158 455 -70 c 0,15,16
 480 0 480 0 426 123 c 2,17,-1
 194 662 l 2,18,19
 155 753 155 753 125.5 780 c 128,-1,20
 96 807 96 807 33 815 c 1,21,22
 25 823 25 823 25 847.5 c 128,-1,23
 25 872 25 872 33 883 c 1,24,25
 115 879 115 879 199 879 c 0,26,27
 279 879 279 879 430 883 c 1,28,29
 438 873 438 873 438 848 c 128,-1,30
 438 823 438 823 430 815 c 1,31,32
 350 809 350 809 339.5 777.5 c 128,-1,33
 329 746 329 746 363 682 c 1,34,-1
 545 256 l 2,35,36
 570 198 570 198 594 254 c 2,37,-1
 797 723 l 2,38,39
 820 772 820 772 790 790.5 c 128,-1,40
 760 809 760 809 698 815 c 1,41,42
 688 823 688 823 688 847.5 c 128,-1,43
 688 872 688 872 698 883 c 1,44,45
 821 879 821 879 884.5 879 c 128,-1,46
 948 879 948 879 1030 883 c 1,47,48
 1040 873 1040 873 1040 848 c 128,-1,49
 1040 823 1040 823 1030 815 c 1,50,51
 960 807 960 807 928.5 779.5 c 128,-1,52
 897 752 897 752 864 684 c 0,53,54
 714 360 714 360 502 -152 c 0,55,56
 459 -254 459 -254 418 -328 c 0,0,1
EndSplineSet
EndChar

StartChar: z
Encoding: 122 122 92
Width: 868
GlyphClass: 2
Flags: W
LayerCount: 2
Back
Fore
SplineSet
145 899 m 1,0,1
 200 879 200 879 266 879 c 2,2,-1
 641 879 l 2,3,4
 668 879 668 879 696.5 880 c 128,-1,5
 725 881 725 881 745.5 882 c 128,-1,6
 766 883 766 883 768 883 c 0,7,8
 793 883 793 883 793 868.5 c 128,-1,9
 793 854 793 854 756 793 c 0,10,11
 494 361 494 361 264 70 c 1,12,-1
 537 70 l 2,13,14
 613 72 613 72 654.5 105.5 c 128,-1,15
 696 139 696 139 737 225 c 2,16,-1
 766 285 l 1,17,18
 805 285 805 285 827 272 c 1,19,20
 804 118 804 118 762 -6 c 1,21,-1
 123 0 l 2,22,23
 76 0 76 0 76 25 c 0,24,25
 76 41 76 41 94 66 c 0,26,27
 401 478 401 478 598 809 c 1,28,-1
 336 803 l 2,29,30
 221 801 221 801 170 616 c 1,31,32
 135 608 135 608 102 623 c 1,33,34
 131 777 131 777 133 887 c 0,35,36
 133 899 133 899 145 899 c 1,0,1
EndSplineSet
EndChar

StartChar: braceleft
Encoding: 123 123 93
Width: 567
GlyphClass: 2
Flags: W
GlyphCompositionVertical: 5  .notdef%0,0,283,885 .notdef%1,883,883,885 .notdef%0,119,119,1831 .notdef%1,883,883,885 .notdef%0,283,0,885
LayerCount: 2
Back
Fore
SplineSet
365 1130 m 2,0,-1
 381 791 l 2,1,2
 387 664 387 664 334 603.5 c 128,-1,3
 281 543 281 543 166 510 c 1,4,-1
 166 502 l 1,5,6
 279 455 279 455 333 384 c 128,-1,7
 387 313 387 313 381 195 c 2,8,-1
 365 -111 l 2,9,10
 359 -234 359 -234 408 -309.5 c 128,-1,11
 457 -385 457 -385 528 -385 c 1,12,13
 536 -393 536 -393 536.5 -409.5 c 128,-1,14
 537 -426 537 -426 528 -434 c 1,15,16
 362 -434 362 -434 285.5 -362.5 c 128,-1,17
 209 -291 209 -291 217 -100 c 2,18,-1
 229 248 l 2,19,20
 235 457 235 457 29 481 c 1,21,22
 4 506 4 506 29 530 c 1,23,24
 133 540 133 540 181 605 c 128,-1,25
 229 670 229 670 229 758 c 2,26,-1
 217 1135 l 2,27,28
 207 1448 207 1448 528 1448 c 1,29,30
 536 1438 536 1438 536.5 1423.5 c 128,-1,31
 537 1409 537 1409 528 1399 c 1,32,33
 491 1389 491 1389 467.5 1376.5 c 128,-1,34
 444 1364 444 1364 414.5 1336.5 c 128,-1,35
 385 1309 385 1309 373 1257.5 c 128,-1,36
 361 1206 361 1206 365 1130 c 2,0,-1
EndSplineSet
EndChar

StartChar: bar
Encoding: 124 124 94
Width: 419
GlyphClass: 2
Flags: W
LayerCount: 2
Back
Fore
SplineSet
256 -475 m 1,0,-1
 166 -475 l 1,1,-1
 166 1430 l 1,2,-1
 256 1430 l 1,3,-1
 256 -475 l 1,0,-1
EndSplineSet
EndChar

StartChar: braceright
Encoding: 125 125 95
Width: 567
GlyphClass: 2
Flags: W
LayerCount: 2
Back
Fore
SplineSet
195 -119 m 2,0,-1
 178 221 l 2,1,2
 172 348 172 348 225.5 408.5 c 128,-1,3
 279 469 279 469 393 502 c 1,4,-1
 393 510 l 1,5,6
 280 557 280 557 226 627.5 c 128,-1,7
 172 698 172 698 178 817 c 2,8,-1
 195 1122 l 2,9,10
 201 1245 201 1245 151.5 1321 c 128,-1,11
 102 1397 102 1397 31 1397 c 1,12,13
 21 1405 21 1405 20.5 1421.5 c 128,-1,14
 20 1438 20 1438 31 1446 c 1,15,16
 197 1446 197 1446 273.5 1374.5 c 128,-1,17
 350 1303 350 1303 342 1112 c 2,18,-1
 330 764 l 2,19,20
 324 555 324 555 530 530 c 1,21,22
 555 505 555 505 530 481 c 1,23,24
 426 471 426 471 378 406.5 c 128,-1,25
 330 342 330 342 330 254 c 2,26,-1
 342 -123 l 2,27,28
 352 -436 352 -436 31 -436 c 1,29,30
 21 -426 21 -426 20.5 -411.5 c 128,-1,31
 20 -397 20 -397 31 -387 c 1,32,33
 68 -377 68 -377 91.5 -364.5 c 128,-1,34
 115 -352 115 -352 144.5 -324.5 c 128,-1,35
 174 -297 174 -297 186.5 -246 c 128,-1,36
 199 -195 199 -195 195 -119 c 2,0,-1
EndSplineSet
EndChar

StartChar: quoteleft
Encoding: 8216 8216 96
Width: 548
GlyphClass: 2
Flags: W
LayerCount: 2
Back
Fore
SplineSet
285 1038 m 0,0,1
 224 1038 224 1038 187 1093.5 c 128,-1,2
 150 1149 150 1149 150 1241 c 0,3,4
 150 1343 150 1343 221.5 1415 c 128,-1,5
 293 1487 293 1487 391 1505 c 1,6,7
 409 1487 409 1487 410 1456 c 1,8,9
 336 1438 336 1438 282.5 1383.5 c 128,-1,10
 229 1329 229 1329 229 1292 c 0,11,12
 229 1237 229 1237 303 1229 c 0,13,14
 393 1215 393 1215 393 1139 c 0,15,16
 393 1096 393 1096 362.5 1067 c 128,-1,17
 332 1038 332 1038 285 1038 c 0,0,1
EndSplineSet
EndChar

StartChar: quoteright
Encoding: 8217 8217 97
Width: 548
GlyphClass: 2
Flags: W
LayerCount: 2
Back
Fore
SplineSet
264 1430 m 0,0,1
 325 1430 325 1430 362 1374.5 c 128,-1,2
 399 1319 399 1319 399 1227 c 0,3,4
 399 1125 399 1125 327.5 1053 c 128,-1,5
 256 981 256 981 158 963 c 1,6,7
 140 981 140 981 139 1012 c 1,8,9
 213 1030 213 1030 266 1084.5 c 128,-1,10
 319 1139 319 1139 319 1176 c 0,11,12
 319 1231 319 1231 246 1239 c 0,13,14
 156 1253 156 1253 156 1329 c 0,15,16
 156 1372 156 1372 186.5 1401 c 128,-1,17
 217 1430 217 1430 264 1430 c 0,0,1
EndSplineSet
EndChar

StartChar: quotereversed
Encoding: 8219 8219 98
Width: 548
GlyphClass: 2
Flags: W
LayerCount: 2
Back
Fore
SplineSet
283 1430 m 0,0,1
 330 1430 330 1430 361 1401 c 128,-1,2
 392 1372 392 1372 392 1329 c 0,3,4
 392 1254 392 1254 302 1239 c 1,5,6
 228 1231 228 1231 228 1176 c 0,7,8
 228 1139 228 1139 279.5 1085.5 c 128,-1,9
 331 1032 331 1032 404 1014 c 1,10,11
 415 981 415 981 394 963 c 1,12,13
 295 981 295 981 221.5 1053 c 128,-1,14
 148 1125 148 1125 148 1227 c 0,15,16
 148 1319 148 1319 185 1374.5 c 128,-1,17
 222 1430 222 1430 283 1430 c 0,0,1
EndSplineSet
EndChar

StartChar: quotedblleft
Encoding: 8220 8220 99
Width: 768
GlyphClass: 2
Flags: W
LayerCount: 2
Back
Fore
SplineSet
555 1040 m 0,0,1
 494 1040 494 1040 457 1095.5 c 128,-1,2
 420 1151 420 1151 420 1243 c 0,3,4
 420 1345 420 1345 491.5 1417 c 128,-1,5
 563 1489 563 1489 662 1507 c 1,6,7
 680 1489 680 1489 680 1458 c 1,8,9
 606 1440 606 1440 553 1385.5 c 128,-1,10
 500 1331 500 1331 500 1294 c 0,11,12
 500 1239 500 1239 573 1231 c 0,13,14
 663 1217 663 1217 664 1141 c 0,15,16
 664 1098 664 1098 633 1069 c 128,-1,17
 602 1040 602 1040 555 1040 c 0,0,1
233 1040 m 0,18,19
 172 1040 172 1040 135 1095.5 c 128,-1,20
 98 1151 98 1151 98 1243 c 0,21,22
 98 1345 98 1345 170 1417 c 128,-1,23
 242 1489 242 1489 340 1507 c 1,24,25
 358 1489 358 1489 358 1458 c 1,26,27
 284 1440 284 1440 231 1385.5 c 128,-1,28
 178 1331 178 1331 178 1294 c 0,29,30
 178 1239 178 1239 252 1231 c 0,31,32
 342 1217 342 1217 342 1141 c 0,33,34
 342 1098 342 1098 311 1069 c 128,-1,35
 280 1040 280 1040 233 1040 c 0,18,19
EndSplineSet
EndChar

StartChar: quotedblright
Encoding: 8221 8221 100
Width: 768
GlyphClass: 2
Flags: W
LayerCount: 2
Back
Fore
SplineSet
215 1430 m 0,0,1
 276 1430 276 1430 313 1374.5 c 128,-1,2
 350 1319 350 1319 350 1227 c 0,3,4
 350 1125 350 1125 278.5 1053 c 128,-1,5
 207 981 207 981 109 963 c 1,6,7
 91 981 91 981 90 1012 c 1,8,9
 164 1030 164 1030 217 1084.5 c 128,-1,10
 270 1139 270 1139 270 1176 c 0,11,12
 270 1231 270 1231 197 1239 c 0,13,14
 107 1253 107 1253 106 1329 c 0,15,16
 106 1372 106 1372 137 1401 c 128,-1,17
 168 1430 168 1430 215 1430 c 0,0,1
537 1430 m 0,18,19
 598 1430 598 1430 635 1374.5 c 128,-1,20
 672 1319 672 1319 672 1227 c 0,21,22
 672 1125 672 1125 600 1053 c 128,-1,23
 528 981 528 981 430 963 c 1,24,25
 412 981 412 981 412 1012 c 1,26,27
 486 1030 486 1030 539 1084.5 c 128,-1,28
 592 1139 592 1139 592 1176 c 0,29,30
 592 1231 592 1231 518 1239 c 0,31,32
 428 1253 428 1253 428 1329 c 0,33,34
 428 1372 428 1372 459 1401 c 128,-1,35
 490 1430 490 1430 537 1430 c 0,18,19
EndSplineSet
EndChar

StartChar: uni201F
Encoding: 8223 8223 101
Width: 763
GlyphClass: 2
Flags: W
LayerCount: 2
Back
Fore
SplineSet
556 1430 m 0,0,1
 603 1430 603 1430 633.5 1401 c 128,-1,2
 664 1372 664 1372 664 1329 c 0,3,4
 664 1254 664 1254 574 1239 c 1,5,6
 500 1231 500 1231 500 1176 c 0,7,8
 500 1139 500 1139 551.5 1085.5 c 128,-1,9
 603 1032 603 1032 676 1014 c 1,10,11
 687 981 687 981 666 963 c 1,12,13
 567 981 567 981 493.5 1053 c 128,-1,14
 420 1125 420 1125 420 1227 c 0,15,16
 420 1319 420 1319 457.5 1374.5 c 128,-1,17
 495 1430 495 1430 556 1430 c 0,0,1
236 1430 m 0,18,19
 283 1430 283 1430 314 1401 c 128,-1,20
 345 1372 345 1372 345 1329 c 0,21,22
 345 1254 345 1254 255 1239 c 1,23,24
 181 1231 181 1231 181 1176 c 0,25,26
 181 1139 181 1139 232.5 1085.5 c 128,-1,27
 284 1032 284 1032 357 1014 c 1,28,29
 368 981 368 981 347 963 c 1,30,31
 248 981 248 981 174.5 1053 c 128,-1,32
 101 1125 101 1125 101 1227 c 0,33,34
 101 1319 101 1319 138 1374.5 c 128,-1,35
 175 1430 175 1430 236 1430 c 0,18,19
EndSplineSet
EndChar

StartChar: bullet
Encoding: 8226 8226 102
Width: 718
GlyphClass: 2
Flags: W
LayerCount: 2
Back
Fore
SplineSet
127 471 m 128,-1,1
 127 567 127 567 195.5 636 c 128,-1,2
 264 705 264 705 360.5 705 c 128,-1,3
 457 705 457 705 525.5 636 c 128,-1,4
 594 567 594 567 594 471 c 128,-1,5
 594 375 594 375 525.5 306.5 c 128,-1,6
 457 238 457 238 360.5 238 c 128,-1,7
 264 238 264 238 195.5 306.5 c 128,-1,0
 127 375 127 375 127 471 c 128,-1,1
EndSplineSet
EndChar

StartChar: uni2023
Encoding: 8227 8227 103
Width: 768
GlyphClass: 2
Flags: W
LayerCount: 2
Back
Fore
SplineSet
150 172 m 1,0,-1
 150 778 l 1,1,-1
 690 475 l 1,2,-1
 150 172 l 1,0,-1
EndSplineSet
EndChar

StartChar: ellipsis
Encoding: 8230 8230 104
Width: 1533
GlyphClass: 3
LigCaretCntFixed: 1
Flags: W
LayerCount: 2
Back
Fore
SplineSet
117 88 m 128,-1,1
 117 133 117 133 148.5 165 c 128,-1,2
 180 197 180 197 225 197 c 128,-1,3
 270 197 270 197 302 165 c 128,-1,4
 334 133 334 133 334 88 c 128,-1,5
 334 43 334 43 302 11.5 c 128,-1,6
 270 -20 270 -20 225 -20 c 128,-1,7
 180 -20 180 -20 148.5 11.5 c 128,-1,0
 117 43 117 43 117 88 c 128,-1,1
659 88 m 128,-1,9
 659 133 659 133 691 165 c 128,-1,10
 723 197 723 197 768 197 c 128,-1,11
 813 197 813 197 845 165 c 128,-1,12
 877 133 877 133 877 88 c 128,-1,13
 877 43 877 43 845 11.5 c 128,-1,14
 813 -20 813 -20 768 -20 c 128,-1,15
 723 -20 723 -20 691 11.5 c 128,-1,8
 659 43 659 43 659 88 c 128,-1,9
1200 88 m 128,-1,17
 1200 133 1200 133 1232 165 c 128,-1,18
 1264 197 1264 197 1309 197 c 128,-1,19
 1354 197 1354 197 1385.5 165 c 128,-1,20
 1417 133 1417 133 1417 88 c 128,-1,21
 1417 43 1417 43 1385.5 11.5 c 128,-1,22
 1354 -20 1354 -20 1309 -20 c 128,-1,23
 1264 -20 1264 -20 1232 11.5 c 128,-1,16
 1200 43 1200 43 1200 88 c 128,-1,17
EndSplineSet
Ligature2: "'liga' Standard Ligatures lookup 1 subtable" period period period
LCarets2: 2 492 1044
EndChar

StartChar: afii61352
Encoding: 8470 8470 105
Width: 1894
GlyphClass: 2
Flags: W
LayerCount: 2
Back
Fore
SplineSet
406 344 m 2,0,1
 406 129 406 129 366 54.5 c 128,-1,2
 326 -20 326 -20 195 -20 c 0,3,4
 117 -20 117 -20 62.5 15.5 c 128,-1,5
 8 51 8 51 8 100 c 0,6,7
 8 139 8 139 27.5 158.5 c 128,-1,8
 47 178 47 178 76 178 c 0,9,10
 131 178 131 178 164 115 c 0,11,12
 166 111 166 111 174 94.5 c 128,-1,13
 182 78 182 78 186 69.5 c 128,-1,14
 190 61 190 61 199.5 53 c 128,-1,15
 209 45 209 45 219 45 c 0,16,17
 278 45 278 45 295.5 94 c 128,-1,18
 313 143 313 143 313 301 c 2,19,-1
 313 1126 l 1,20,21
 303 1173 303 1173 262 1219.5 c 128,-1,22
 221 1266 221 1266 174 1266 c 2,23,-1
 164 1266 l 2,24,25
 137 1266 137 1266 137 1282 c 2,26,-1
 137 1321 l 1,27,-1
 141 1323 l 1,28,-1
 412 1323 l 1,29,-1
 950 420 l 2,30,31
 1032 281 1032 281 1048.5 281 c 128,-1,32
 1065 281 1065 281 1065 365 c 2,33,-1
 1065 983 l 2,34,35
 1065 1198 1065 1198 1105 1273 c 128,-1,36
 1145 1348 1145 1348 1276 1348 c 0,37,38
 1354 1348 1354 1348 1408 1312 c 128,-1,39
 1462 1276 1462 1276 1462 1227 c 0,40,41
 1462 1188 1462 1188 1442.5 1168.5 c 128,-1,42
 1423 1149 1423 1149 1395 1149 c 0,43,44
 1340 1149 1340 1149 1307 1212 c 0,45,46
 1305 1216 1305 1216 1296.5 1232.5 c 128,-1,47
 1288 1249 1288 1249 1284 1257.5 c 128,-1,48
 1280 1266 1280 1266 1271 1274 c 128,-1,49
 1262 1282 1262 1282 1251 1282 c 0,50,51
 1192 1282 1192 1282 1174.5 1233 c 128,-1,52
 1157 1184 1157 1184 1157 1026 c 2,53,-1
 1157 43 l 2,54,55
 1157 14 1157 14 1135.5 -5.5 c 128,-1,56
 1114 -25 1114 -25 1092 -25 c 0,57,58
 1020 -25 1020 -25 985 29 c 2,59,-1
 449 932 l 2,60,61
 422 975 422 975 416 975 c 0,62,63
 406 975 406 975 406 899 c 2,64,-1
 406 344 l 2,0,1
1798 121 m 2,65,-1
 1376 121 l 2,66,67
 1345 121 1345 121 1346 150 c 0,68,69
 1346 170 1346 170 1362 190.5 c 128,-1,70
 1378 211 1378 211 1397 211 c 2,71,-1
 1825 211 l 2,72,73
 1854 211 1854 211 1853 180 c 0,74,75
 1853 164 1853 164 1834.5 142.5 c 128,-1,76
 1816 121 1816 121 1798 121 c 2,65,-1
1597 934 m 0,77,78
 1728 934 1728 934 1795 849 c 128,-1,79
 1862 764 1862 764 1862 641 c 0,80,81
 1862 532 1862 532 1789 448.5 c 128,-1,82
 1716 365 1716 365 1595 365 c 0,83,84
 1476 365 1476 365 1404.5 446.5 c 128,-1,85
 1333 528 1333 528 1333 635 c 0,86,87
 1333 756 1333 756 1401.5 845 c 128,-1,88
 1470 934 1470 934 1597 934 c 0,77,78
1741 602 m 0,89,90
 1741 723 1741 723 1696 803 c 128,-1,91
 1651 883 1651 883 1585 883 c 0,92,93
 1528 883 1528 883 1491 828.5 c 128,-1,94
 1454 774 1454 774 1454 659.5 c 128,-1,95
 1454 545 1454 545 1502 480.5 c 128,-1,96
 1550 416 1550 416 1618 416 c 0,97,98
 1667 416 1667 416 1704 465 c 128,-1,99
 1741 514 1741 514 1741 602 c 0,89,90
EndSplineSet
EndChar

StartChar: minus
Encoding: 8722 8722 106
Width: 1126
GlyphClass: 2
Flags: W
LayerCount: 2
Back
Fore
SplineSet
948 463 m 2,0,-1
 154 463 l 2,1,2
 123 463 123 463 123 496 c 0,3,4
 123 519 123 519 139.5 542 c 128,-1,5
 156 565 156 565 174 565 c 2,6,-1
 975 565 l 2,7,8
 1004 565 1004 565 1004 530 c 0,9,10
 1004 514 1004 514 985 488.5 c 128,-1,11
 966 463 966 463 948 463 c 2,0,-1
EndSplineSet
EndChar

StartChar: uni261E
Encoding: 9758 9758 107
Width: 1830
GlyphClass: 2
Flags: W
LayerCount: 2
Back
Fore
SplineSet
395 702 m 1,0,1
 481 702 481 702 603 779 c 128,-1,2
 725 856 725 856 797 856 c 0,3,4
 854 856 854 856 915 825 c 1,5,-1
 1163 825 l 2,6,7
 1781 825 1781 825 1782 666 c 0,8,9
 1782 625 1782 625 1745 598 c 128,-1,10
 1708 571 1708 571 1635.5 561 c 128,-1,11
 1563 551 1563 551 1503.5 548 c 128,-1,12
 1444 545 1444 545 1350 545 c 2,13,-1
 1223 545 l 1,14,15
 1260 508 1260 508 1260 471 c 0,16,17
 1260 457 1260 457 1245 424 c 1,18,19
 1315 393 1315 393 1315 330 c 0,20,21
 1315 295 1315 295 1294 262 c 1,22,23
 1345 231 1345 231 1346 178 c 0,24,25
 1346 106 1346 106 1258.5 61 c 128,-1,26
 1171 16 1171 16 1069 16 c 0,27,28
 987 16 987 16 948 74 c 1,29,30
 934 72 934 72 934 74 c 1,31,32
 893 70 893 70 856 70 c 0,33,34
 762 70 762 70 691.5 91.5 c 128,-1,35
 621 113 621 113 587 137.5 c 128,-1,36
 553 162 553 162 508 183.5 c 128,-1,37
 463 205 463 205 414 205 c 1,38,-1
 395 104 l 1,39,-1
 49 76 l 1,40,-1
 49 764 l 1,41,-1
 387 778 l 1,42,-1
 395 702 l 1,0,1
109 707 m 1,43,-1
 109 166 l 1,44,-1
 342 184 l 1,45,-1
 342 719 l 1,46,-1
 109 707 l 1,43,-1
1028 471 m 0,47,48
 1053 471 1053 471 1086.5 483.5 c 128,-1,49
 1120 496 1120 496 1120 522 c 0,50,51
 1120 551 1120 551 994 678 c 128,-1,52
 868 805 868 805 795 805 c 0,53,54
 740 805 740 805 678 765 c 128,-1,55
 616 725 616 725 547.5 684 c 128,-1,56
 479 643 479 643 408 643 c 1,57,-1
 408 256 l 1,58,59
 476 256 476 256 524.5 234.5 c 128,-1,60
 573 213 573 213 604 188.5 c 128,-1,61
 635 164 635 164 719 142.5 c 128,-1,62
 803 121 803 121 932 121 c 1,63,-1
 938 145 l 1,64,65
 860 151 860 151 860 227 c 0,66,67
 860 237 860 237 870 264 c 1,68,-1
 862 264 l 2,69,70
 749 264 749 264 750 385 c 1,71,72
 695 373 695 373 659 373 c 0,73,74
 587 373 587 373 512 434 c 1,75,-1
 512 455 l 1,76,77
 604 426 604 426 655 426 c 0,78,79
 744 426 744 426 827 506 c 1,80,-1
 729 616 l 1,81,-1
 745 637 l 1,82,83
 780 602 780 602 875.5 536.5 c 128,-1,84
 971 471 971 471 1028 471 c 0,47,48
1260 322 m 0,85,86
 1260 373 1260 373 1208 373 c 0,87,88
 1202 373 1202 373 1073 321.5 c 128,-1,89
 944 270 944 270 915 266 c 1,90,-1
 913 258 l 1,91,92
 913 238 913 238 915.5 226.5 c 128,-1,93
 918 215 918 215 935 202.5 c 128,-1,94
 952 190 952 190 987 190 c 0,95,96
 1067 190 1067 190 1163.5 228.5 c 128,-1,97
 1260 267 1260 267 1260 322 c 0,85,86
1079 70 m 0,98,99
 1153 70 1153 70 1222.5 102.5 c 128,-1,100
 1292 135 1292 135 1292 176 c 0,101,102
 1292 223 1292 223 1253 223 c 1,103,104
 1226 213 1226 213 1180 195 c 0,105,106
 1127 175 1127 175 1072.5 162.5 c 128,-1,107
 1018 150 1018 150 998.5 144.5 c 128,-1,108
 979 139 979 139 979 125 c 0,109,110
 979 100 979 100 1008.5 85 c 128,-1,111
 1038 70 1038 70 1079 70 c 0,98,99
1716 668 m 0,112,113
 1716 772 1716 772 1180 772 c 0,114,115
 1102 772 1102 772 971 768 c 1,116,117
 1069 672 1069 672 1122 602 c 1,118,119
 1261 594 1261 594 1343 594 c 0,120,121
 1716 594 1716 594 1716 668 c 0,112,113
891 467 m 0,122,123
 858 467 858 467 826.5 442.5 c 128,-1,124
 795 418 795 418 795 391 c 0,125,126
 795 319 795 319 870 319 c 0,127,128
 948 319 948 319 1077 370.5 c 128,-1,129
 1206 422 1206 422 1206 475 c 0,130,131
 1206 502 1206 502 1153 537 c 1,132,133
 1159 522 1159 522 1159 506 c 0,134,135
 1159 463 1159 463 1121 440.5 c 128,-1,136
 1083 418 1083 418 1024 418 c 0,137,138
 1004 418 1004 418 956.5 442.5 c 128,-1,139
 909 467 909 467 891 467 c 0,122,123
EndSplineSet
EndChar

StartChar: uni2767
Encoding: 10087 10087 108
Width: 2265
GlyphClass: 2
Flags: W
LayerCount: 2
Back
Fore
SplineSet
565 717 m 0,0,1
 565 662 565 662 580.5 621 c 128,-1,2
 596 580 596 580 615.5 562.5 c 128,-1,3
 635 545 635 545 654.5 526.5 c 128,-1,4
 674 508 674 508 680 494 c 1,5,6
 731 494 731 494 749.5 502 c 128,-1,7
 768 510 768 510 786 545 c 1,8,9
 759 535 759 535 731 535 c 0,10,11
 678 535 678 535 678 598 c 0,12,13
 678 631 678 631 722 689.5 c 128,-1,14
 766 748 766 748 766 793 c 0,15,16
 766 840 766 840 735 913 c 1,17,18
 637 886 637 886 580 788 c 0,19,20
 565 760 565 760 565 717 c 0,0,1
1266 479 m 1,21,22
 1162 399 1162 399 1096 365.5 c 128,-1,23
 1030 332 1030 332 956 332 c 0,24,25
 907 332 907 332 864 352 c 1,26,27
 895 313 895 313 895 272 c 0,28,29
 895 170 895 170 819 33 c 1,30,-1
 840 29 l 1,31,32
 1006 29 1006 29 1006 190 c 0,33,34
 1006 213 1006 213 1004 223 c 1,35,36
 1104 157 1104 157 1155 158 c 0,37,38
 1237 158 1237 158 1268 207 c 1,39,40
 1221 193 1221 193 1196 193 c 0,41,42
 1141 193 1141 193 1141 238 c 0,43,44
 1141 297 1141 297 1208 297 c 0,45,46
 1237 297 1237 297 1278 318.5 c 128,-1,47
 1319 340 1319 340 1345 362 c 2,48,-1
 1370 385 l 1,49,50
 1450 477 1450 477 1481 485 c 1,51,52
 1446 518 1446 518 1405 549 c 0,53,54
 1344 596 1344 596 1304 612.5 c 128,-1,55
 1264 629 1264 629 1210 629 c 0,56,57
 1147 629 1147 629 1147 688 c 0,58,59
 1147 731 1147 731 1200 731 c 0,60,61
 1229 731 1229 731 1253 725 c 1,62,63
 1216 754 1216 754 1200 754 c 0,64,65
 1159 754 1159 754 1094.5 718 c 128,-1,66
 1030 682 1030 682 1001 653 c 1,67,68
 1005 669 1005 669 1006 684 c 0,69,70
 1006 762 1006 762 956.5 845 c 128,-1,71
 907 928 907 928 811 928 c 1,72,73
 885 803 885 803 885 682 c 0,74,75
 885 645 885 645 858 606 c 1,76,77
 903 624 903 624 952 625 c 0,78,79
 1028 625 1028 625 1090.5 592 c 128,-1,80
 1153 559 1153 559 1266 479 c 1,21,22
686 358 m 0,81,82
 686 421 686 421 743 422 c 0,83,84
 759 422 759 422 788 414 c 1,85,86
 765 441 765 441 749 446 c 128,-1,87
 733 451 733 451 680 451 c 1,88,89
 677 444 677 444 648.5 415 c 128,-1,90
 620 386 620 386 596 342.5 c 128,-1,91
 572 299 572 299 572 246 c 0,92,93
 572 164 572 164 626 115.5 c 128,-1,94
 680 67 680 67 745 47 c 1,95,96
 774 125 774 125 774 166 c 0,97,98
 774 209 774 209 730 267 c 128,-1,99
 686 325 686 325 686 358 c 0,81,82
1855 475 m 1,100,101
 1802 532 1802 532 1747 532 c 0,102,103
 1681 532 1681 532 1622 477 c 1,104,105
 1683 432 1683 432 1741 432 c 0,106,107
 1810 432 1810 432 1855 475 c 1,100,101
1198 983 m 1,108,109
 1292 1024 1292 1024 1386 1024 c 0,110,111
 1509 1024 1509 1024 1634 968.5 c 128,-1,112
 1759 913 1759 913 1831 846 c 2,113,-1
 2216 481 l 1,114,-1
 1837 111 l 2,115,116
 1765 41 1765 41 1643.5 -27.5 c 128,-1,117
 1522 -96 1522 -96 1401 -96 c 0,118,119
 1299 -96 1299 -96 1190 -49 c 1,120,121
 1067 -315 1067 -315 840 -496 c 1,122,123
 834 -430 834 -430 777.5 -342 c 128,-1,124
 721 -254 721 -254 666 -221 c 0,125,126
 584 -171 584 -171 483 -140 c 0,127,128
 436 -126 436 -126 394.5 -103.5 c 128,-1,129
 353 -81 353 -81 313.5 -46.5 c 128,-1,130
 274 -12 274 -12 250.5 40 c 128,-1,131
 227 92 227 92 227 156 c 0,132,133
 227 287 227 287 342 395 c 0,134,135
 358 413 358 413 418 457 c 1,136,-1
 416 457 l 1,137,-1
 332 446 l 1,138,-1
 49 365 l 1,139,-1
 49 436 l 1,140,-1
 164 479 l 1,141,-1
 47 524 l 1,142,-1
 47 598 l 1,143,-1
 332 506 l 1,144,-1
 414 494 l 1,145,146
 232 621 232 621 231 791 c 0,147,148
 231 857 231 857 246.5 907.5 c 128,-1,149
 262 958 262 958 282.5 989 c 128,-1,150
 303 1020 303 1020 346 1047.5 c 128,-1,151
 389 1075 389 1075 420 1088.5 c 128,-1,152
 451 1102 451 1102 512 1124 c 0,153,154
 643 1173 643 1173 696 1227 c 0,155,156
 798 1329 798 1329 803 1464 c 1,157,158
 975 1360 975 1360 1063 1235 c 0,159,160
 1090 1198 1090 1198 1134 1116 c 128,-1,161
 1178 1034 1178 1034 1198 983 c 1,108,109
958.5 410 m 128,-1,163
 995 410 995 410 1028 420 c 128,-1,164
 1061 430 1061 430 1079.5 441.5 c 128,-1,165
 1098 453 1098 453 1133 479 c 1,166,167
 1051 549 1051 549 954 549 c 0,168,169
 903 549 903 549 868.5 521.5 c 128,-1,170
 834 494 834 494 834 475 c 0,171,172
 834 467 834 467 847 452.5 c 128,-1,173
 860 438 860 438 891 424 c 128,-1,162
 922 410 922 410 958.5 410 c 128,-1,163
852 -55 m 0,174,175
 879 -55 879 -55 893 -72.5 c 128,-1,176
 907 -90 907 -90 907 -113 c 0,177,178
 907 -123 907 -123 903 -137 c 1,179,-1
 956 -133 l 1,180,181
 919 -194 919 -194 854 -195 c 0,182,183
 721 -195 721 -195 721 -63 c 0,184,185
 721 -34 721 -34 729 -8 c 1,186,187
 600 23 600 23 530 115 c 1,188,189
 512 97 512 97 477 80 c 128,-1,190
 442 63 442 63 430 63 c 0,191,192
 397 63 397 63 377.5 90 c 128,-1,193
 358 117 358 117 358 160 c 0,194,195
 358 189 358 189 377.5 209 c 128,-1,196
 397 229 397 229 430 229 c 0,197,198
 446 229 446 229 455.5 213 c 128,-1,199
 465 197 465 197 500 197 c 1,200,201
 498 209 498 209 498 231 c 0,202,203
 498 288 498 288 523.5 342.5 c 128,-1,204
 549 397 549 397 568.5 419.5 c 128,-1,205
 588 442 588 442 600 451 c 1,206,-1
 559 451 l 1,207,208
 432 400 432 400 364.5 324 c 128,-1,209
 297 248 297 248 297 160 c 0,210,211
 297 85 297 85 347.5 22 c 128,-1,212
 398 -41 398 -41 498 -80 c 0,213,214
 673 -148 673 -148 735 -197 c 0,215,216
 805 -254 805 -254 866 -385 c 1,217,218
 948 -317 948 -317 1033 -188 c 128,-1,219
 1118 -59 1118 -59 1155 35 c 1,220,221
 1249 -24 1249 -24 1395 -25 c 0,222,223
 1602 -25 1602 -25 1794 168 c 2,224,-1
 2111 483 l 1,225,-1
 1786 791 l 2,226,227
 1612 955 1612 955 1378 954 c 0,228,229
 1317 954 1317 954 1284 946 c 128,-1,230
 1251 938 1251 938 1222.5 921.5 c 128,-1,231
 1194 905 1194 905 1169 897 c 1,232,233
 1146 989 1146 989 1018 1198 c 0,234,235
 995 1233 995 1233 944 1283 c 128,-1,236
 893 1333 893 1333 844 1366 c 1,237,238
 819 1282 819 1282 741 1194 c 0,239,240
 678 1126 678 1126 536 1076 c 0,241,242
 409 1032 409 1032 348 975 c 0,243,244
 289 918 289 918 289 791 c 0,245,246
 289 601 289 601 563 494 c 1,247,-1
 608 494 l 1,248,249
 499 594 499 594 500 725 c 2,250,-1
 500 748 l 1,251,252
 496 744 496 744 485 743 c 0,253,254
 483 743 483 743 476 744 c 128,-1,255
 469 745 469 745 465 745 c 0,256,257
 451 745 451 745 441.5 728 c 128,-1,258
 432 711 432 711 416 711 c 0,259,260
 383 711 383 711 363.5 733.5 c 128,-1,261
 344 756 344 756 344 780 c 0,262,263
 344 823 344 823 363.5 850 c 128,-1,264
 383 877 383 877 416 877 c 0,265,266
 430 877 430 877 468 858.5 c 128,-1,267
 506 840 506 840 522 821 c 1,268,269
 590 938 590 938 717 977 c 1,270,271
 713 1010 713 1010 713 1026 c 0,272,273
 713 1165 713 1165 846 1165 c 0,274,275
 907 1165 907 1165 948 1104 c 1,276,-1
 895 1108 l 1,277,278
 897 1100 897 1100 897 1083 c 0,279,280
 897 1026 897 1026 842 1026 c 0,281,282
 822 1026 822 1026 802 1041.5 c 128,-1,283
 782 1057 782 1057 782 1092 c 2,284,-1
 782 1104 l 1,285,286
 762 1077 762 1077 762 1049 c 0,287,288
 762 1041 762 1041 780 989 c 1,289,290
 790 991 790 991 803 991 c 0,291,292
 918 991 918 991 987 911 c 0,293,294
 1046 843 1046 843 1047 760 c 2,295,-1
 1047 748 l 1,296,297
 1137 805 1137 805 1214 805 c 0,298,299
 1259 805 1259 805 1298 762 c 1,300,-1
 1352 760 l 1,301,302
 1350 771 1350 771 1350 789 c 0,303,304
 1350 811 1350 811 1362 824.5 c 128,-1,305
 1374 838 1374 838 1395 838 c 0,306,307
 1413 838 1413 838 1439.5 818.5 c 128,-1,308
 1466 799 1466 799 1466 762 c 0,309,310
 1466 705 1466 705 1378 705 c 2,311,-1
 1346 705 l 1,312,313
 1391 646 1391 646 1409 622 c 128,-1,314
 1427 598 1427 598 1454 567.5 c 128,-1,315
 1481 537 1481 537 1497 527.5 c 128,-1,316
 1513 518 1513 518 1527.5 518 c 128,-1,317
 1542 518 1542 518 1595 530 c 1,318,319
 1597 546 1597 546 1597 580 c 0,320,321
 1597 611 1597 611 1594.5 617.5 c 128,-1,322
 1592 624 1592 624 1580 624 c 0,323,324
 1571 624 1571 624 1565.5 613 c 128,-1,325
 1560 602 1560 602 1558 593.5 c 128,-1,326
 1556 585 1556 585 1556 582 c 0,327,328
 1556 574 1556 574 1561 559 c 1,329,330
 1549 555 1549 555 1536.5 555 c 128,-1,331
 1524 555 1524 555 1506.5 568.5 c 128,-1,332
 1489 582 1489 582 1489 606 c 0,333,334
 1489 639 1489 639 1535 670.5 c 128,-1,335
 1581 702 1581 702 1581 725 c 0,336,337
 1581 750 1581 750 1567 809 c 1,338,339
 1686 754 1686 754 1686 569 c 1,340,341
 1719 585 1719 585 1757 586 c 0,342,343
 1837 586 1837 586 1952 475 c 1,344,345
 1919 442 1919 442 1898.5 424 c 128,-1,346
 1878 406 1878 406 1841 390.5 c 128,-1,347
 1804 375 1804 375 1761 375 c 0,348,349
 1734 375 1734 375 1686 387 c 1,350,351
 1686 344 1686 344 1683.5 320.5 c 128,-1,352
 1681 297 1681 297 1671 263 c 128,-1,353
 1661 229 1661 229 1635.5 202.5 c 128,-1,354
 1610 176 1610 176 1569 154 c 1,355,356
 1581 201 1581 201 1581 229 c 0,357,358
 1581 252 1581 252 1535 283.5 c 128,-1,359
 1489 315 1489 315 1489 346 c 0,360,361
 1489 373 1489 373 1508.5 387 c 128,-1,362
 1528 401 1528 401 1540 401 c 0,363,364
 1546 401 1546 401 1563 399 c 1,365,366
 1561 389 1561 389 1561 375 c 0,367,368
 1561 330 1561 330 1581 330 c 0,369,370
 1599 330 1599 330 1599 375 c 0,371,372
 1599 412 1599 412 1597 424 c 1,373,374
 1540 451 1540 451 1524 451 c 0,375,376
 1504 451 1504 451 1467 418 c 128,-1,377
 1430 385 1430 385 1403 342 c 1,378,379
 1376 307 1376 307 1327 199 c 1,380,-1
 1372 199 l 2,381,382
 1423 199 1423 199 1432 193 c 0,383,384
 1459 179 1459 179 1458 143 c 0,385,386
 1458 104 1458 104 1434.5 87 c 128,-1,387
 1411 70 1411 70 1386 70 c 0,388,389
 1341 70 1341 70 1341 115 c 0,390,391
 1341 133 1341 133 1343 145 c 1,392,-1
 1286 143 l 1,393,394
 1237 100 1237 100 1176 100 c 0,395,396
 1098 100 1098 100 1053 127 c 1,397,398
 1026 -23 1026 -23 850 -23 c 0,399,400
 819 -23 819 -23 793 -18 c 1,401,402
 773 -51 773 -51 772 -78 c 0,403,404
 772 -111 772 -111 793 -133 c 1,405,-1
 793 -119 l 2,406,407
 793 -84 793 -84 811 -69.5 c 128,-1,408
 829 -55 829 -55 852 -55 c 0,174,175
EndSplineSet
EndChar

StartChar: uniE000
Encoding: 57344 57344 109
Width: 885
GlyphClass: 2
Flags: W
LayerCount: 2
Back
Fore
SplineSet
0 885 m 1,0,-1
 885 885 l 1,1,-1
 885 0 l 1,2,-1
 0 0 l 1,3,-1
 0 885 l 1,0,-1
EndSplineSet
EndChar
